<svg xmlns="http://www.w3.org/2000/svg" width="12.119" height="12.121" viewBox="0 0 12.119 12.121">
  <g id="Group_24285" data-name="Group 24285" transform="translate(2413.756 2387.011)">
    <g id="world" transform="translate(-2413.756 -2387.011)">
      <g id="Group_6027" data-name="Group 6027" transform="translate(0)">
        <path id="Path_6071" data-name="Path 6071" d="M19.771,4.634l-.181.057-.966.086-.273.436-.2-.063-.769-.693-.112-.36-.149-.384-.483-.433-.57-.112-.013.261.558.545.273.322-.307.161-.25-.074-.375-.156.013-.3-.492-.2-.163.71-.5.112.049.4.645.124.112-.633.533.079.248.145h.4l.272.545.721.732-.053.284-.581-.074-1,.507-.723.868L15.34,7.9h-.26L14.6,7.678l-.47.223.117.5.2-.236.36-.011-.025.445.3.087.3.334.486-.137.555.088.644.173.322.038.546.619,1.053.619-.681,1.3-.719.334-.273.743-1.04.694-.111.4a6.053,6.053,0,0,0,3.611-9.257Z" transform="translate(-8.678 -1.946)" fill="#9f9f9f"/>
        <path id="Path_6072" data-name="Path 6072" d="M6.76,13.854l-.441-.818.405-.844-.405-.121-.455-.457-1.008-.226-.335-.7V11.1H4.374L3.506,9.925V8.958L2.869,7.923,1.858,8.1H1.177L.835,7.878l.437-.346-.436.1a6.052,6.052,0,0,0,5.228,9.114,6.344,6.344,0,0,0,.76-.053l-.063-.734s.278-1.09.278-1.127S6.76,13.854,6.76,13.854Z" transform="translate(-0.004 -4.626)" fill="#9f9f9f"/>
        <path id="Path_6073" data-name="Path 6073" d="M4.462,1.954,5.538,1.8l.5-.272.558.161.892-.049.306-.48.446.073,1.082-.1.3-.329.421-.281.595.09.217-.033A6.041,6.041,0,0,0,3.6,2.2h0ZM8.525.6,9.144.262l.4.23L8.966.929,8.417.985,8.17.824ZM6.692.652l.273.114L7.323.652,7.518.99l-.826.217L6.3.975S6.683.725,6.692.652Z" transform="translate(-2.21 0)" fill="#9f9f9f"/>
      </g>
    </g>
  </g>
</svg>
