<svg xmlns="http://www.w3.org/2000/svg" width="32.059" height="35.244" viewBox="0 0 32.059 35.244">
  <g id="Group_24254" data-name="Group 24254" transform="translate(9707.17 5902.145)">
    <g id="Group_6533" data-name="Group 6533" transform="translate(-9902 -6074.523)">
      <g id="coach_1_" data-name="coach (1)" transform="translate(171.689 172.377)">
        <g id="Group_6448" data-name="Group 6448" transform="translate(23.141 0)">
          <path id="Path_6354" data-name="Path 6354" d="M53.789,24.766a7.023,7.023,0,0,0-3.663-2.548l-6.288-1.961a1.081,1.081,0,0,0-.346-.048,1.457,1.457,0,0,1-.388-.946V17.844a8.049,8.049,0,0,0,.8-.6,6.452,6.452,0,0,0,2.175-4.287,1.681,1.681,0,0,0,1.631-1.678V9.986a1.676,1.676,0,0,0-.594-1.281V7.04a.517.517,0,1,0-1.034,0V8.15l-.13-.043-.2-.065-.258-.081L45.3,7.9l-.266-.077-.186-.053L44.559,7.7l-.166-.044c-.122-.031-.244-.06-.367-.089l-.087-.021q-.226-.052-.453-.1l-.138-.027c-.106-.021-.212-.043-.318-.063l-.176-.031-.28-.049-.189-.03-.268-.04-.195-.027-.264-.034-.2-.023L41.2,7.091,41,7.073l-.268-.022-.191-.014-.279-.016-.179-.009L39.778,7l-.151,0q-.229-.005-.458-.005T38.712,7l-.151,0-.307.011-.18.009-.278.016-.191.014-.268.022-.2.019-.263.027-.2.023-.263.033-.2.027-.267.04-.19.03-.279.048-.178.032c-.105.02-.21.041-.315.062l-.14.028q-.227.047-.453.1l-.092.022c-.12.028-.241.057-.361.088l-.169.045-.283.076-.189.054-.262.076-.2.061-.253.08-.2.066-.128.042V4.62a2.635,2.635,0,0,1,2.031-2.572l3.776-.9A4.264,4.264,0,0,1,40,1.141l4.025.923a2.631,2.631,0,0,1,2.053,2.577.517.517,0,0,0,1.034,0,3.66,3.66,0,0,0-2.856-3.585L40.231.133a5.305,5.305,0,0,0-2.4.01l-3.775.9A3.666,3.666,0,0,0,31.228,4.62V8.705a1.676,1.676,0,0,0-.595,1.281v1.287a1.681,1.681,0,0,0,1.631,1.678,6.452,6.452,0,0,0,2.175,4.287,8.05,8.05,0,0,0,.8.6v1.419a1.457,1.457,0,0,1-.388.946,1.077,1.077,0,0,0-.346.048l-6.288,1.961A7.074,7.074,0,0,0,23.141,29v.386a.517.517,0,0,0,1.034,0V29a6.04,6.04,0,0,1,4.334-5.794l.008,0,3.349-1.044,2.8,3.193a2.071,2.071,0,0,0,2.232.6l.632-.215.891,1.881a2.161,2.161,0,0,0-.745.479,2.228,2.228,0,0,0-.665,1.58v3.158a.754.754,0,0,0,.753.753h1.3a.754.754,0,0,0,.753-.753V31.7a2.159,2.159,0,0,0,.111-4.087l.89-1.879.632.215a2.071,2.071,0,0,0,2.232-.6l2.8-3.193,3.349,1.044.008,0A6.04,6.04,0,0,1,54.164,29v4.426a.781.781,0,0,1-.78.78H50.789V29.257a.517.517,0,0,0-1.034,0V34.21H28.585V29.257a.517.517,0,1,0-1.034,0V34.21H24.956a.781.781,0,0,1-.78-.78V31.8a.517.517,0,0,0-1.034,0v1.634a1.817,1.817,0,0,0,1.815,1.815H53.384A1.817,1.817,0,0,0,55.2,33.429V29A7.024,7.024,0,0,0,53.789,24.766ZM32.808,9.059l.128-.04c.1-.033.2-.066.307-.1l.164-.048.273-.079.178-.049.259-.069L34.3,8.63l.252-.061.192-.044L35,8.47l.2-.04.245-.048.2-.036.244-.042.2-.032.244-.037.2-.028.246-.031.2-.023.25-.026.192-.019.256-.021.186-.014.268-.016.174-.009c.1,0,.2-.007.3-.01l.146,0q.221,0,.442-.005h0q.22,0,.441.005l.147,0,.295.01.177.01.265.015.189.014.253.021.2.019.247.026.2.024.243.031.2.028.241.036.2.033.241.042.2.037.241.047.2.041.243.053.2.045.246.06.193.048.252.067.186.051.264.077.173.051c.1.03.194.061.291.092l.144.046q.2.066.4.137l.031.011h0l-.133.494a.684.684,0,0,1-.332.424.673.673,0,0,1-.527.055q-.361-.111-.723-.208a19.409,19.409,0,0,0-10.9.208.673.673,0,0,1-.527-.055.7.7,0,0,1-.115-.079A.684.684,0,0,1,32.5,9.7l-.065-.241-.068-.253Q32.588,9.131,32.808,9.059Zm2.306,7.4a5.455,5.455,0,0,1-1.845-4.031.517.517,0,0,0-.517-.506h-.439a.645.645,0,0,1-.645-.645v-.9l.005.008q.023.041.049.08l.018.026q.023.033.047.066l.016.021c.021.027.043.054.066.08l.016.018q.028.031.057.06l.023.023q.031.03.064.059l.014.013c.027.023.054.045.082.066l.023.017.068.047.025.016c.03.019.061.038.093.056l0,0c.028.015.056.03.085.043l.03.014.062.027.033.013.064.023.03.01c.031.01.062.019.093.027l.011,0,.084.019.032.006.065.01.035,0,.068.006.03,0c.032,0,.064,0,.1,0h.013c.034,0,.067,0,.1,0l.029,0c.037,0,.074-.007.112-.013h.008c.035-.005.069-.012.1-.02l.031-.007c.035-.008.07-.017.105-.028h.005a19.253,19.253,0,0,1,2.748-.631,18.23,18.23,0,0,1,6.547.187q.859.181,1.716.444a1.7,1.7,0,0,0,1.332-.139c.032-.017.062-.036.092-.055l.026-.017.067-.046.023-.017c.028-.021.055-.043.082-.066l.014-.013q.033-.029.064-.059l.023-.023.058-.061.015-.017q.034-.039.066-.08l.015-.021q.024-.032.047-.066l.018-.026c.017-.026.033-.052.049-.079l.005-.009v.9a.645.645,0,0,1-.645.645h-.439a.517.517,0,0,0-.517.506,5.455,5.455,0,0,1-1.845,4.031,6.843,6.843,0,0,1-.9.658l-.005,0c-.048.029-.1.057-.145.085l-.045.026q-.077.043-.154.084l-.042.022a6.112,6.112,0,0,1-.723.316l-.018.007q-.278.1-.566.172l-.016,0-.165.038-.069.015-.152.03-.1.016q-.105.017-.211.031l-.145.017-.1.01L39.509,18,39.418,18c-.078,0-.156.007-.235.008h-.026c-.079,0-.157,0-.235-.008L38.83,18l-.157-.012-.1-.01-.145-.017q-.106-.014-.211-.031l-.1-.016-.152-.03-.069-.015-.165-.038-.016,0q-.287-.072-.566-.172l-.018-.007a6.112,6.112,0,0,1-.723-.316l-.042-.022-.154-.084-.046-.026c-.048-.028-.1-.056-.145-.085l-.005,0A6.849,6.849,0,0,1,35.114,16.455Zm1.448,8.519a1.04,1.04,0,0,1-1.121-.3l-2.5-2.848,1.863-.581h.007a.048.048,0,0,1,.017,0h0a.047.047,0,0,1,.014.008l.006,0h0l3.337,3.162ZM40.3,29.641a1.13,1.13,0,0,1-1.041,1.123.517.517,0,0,0-.479.516v1.275h-.734V29.677a1.187,1.187,0,0,1,.355-.841,1.1,1.1,0,0,1,.793-.322A1.132,1.132,0,0,1,40.3,29.641ZM38.513,25.4l.657-.224.657.224-.657,1.386Zm.657-1.483-3.392-3.214a2.49,2.49,0,0,0,.491-1.442v-.847a7,7,0,0,0,1.4.464h0q.154.033.31.06l.108.018.154.023c.07.009.14.018.21.025l.094.009q.129.012.26.02l.059,0c.1,0,.194.008.292.009h.012c.1,0,.2,0,.292-.009l.059,0q.131-.007.26-.02l.094-.009q.105-.011.21-.025l.154-.023.108-.018q.156-.027.31-.06h0a7,7,0,0,0,1.4-.464v.847a2.49,2.49,0,0,0,.491,1.442Zm3.729.755a1.039,1.039,0,0,1-1.121.3l-1.631-.555L42.91,21.8l.573-.543,0,0a.048.048,0,0,1,.016-.009l0,0a.048.048,0,0,1,.024,0l1.863.581Z" transform="translate(-23.141 0)"/>
        </g>
      </g>
    </g>
  </g>
</svg>
