<svg id="comment" xmlns="http://www.w3.org/2000/svg" width="23.746" height="21.847" viewBox="0 0 23.746 21.847">
  <path id="Path_6081" data-name="Path 6081" d="M20.482-1.332H3.265A3.268,3.268,0,0,0,0,1.933V12.469a3.268,3.268,0,0,0,3.253,3.265v4.781l6.871-4.781H20.482a3.268,3.268,0,0,0,3.265-3.265V1.933a3.268,3.268,0,0,0-3.265-3.265Zm1.873,13.8a1.875,1.875,0,0,1-1.873,1.873H9.688L4.645,17.852V14.342H3.265a1.875,1.875,0,0,1-1.873-1.873V1.933A1.875,1.875,0,0,1,3.265.059H20.482a1.875,1.875,0,0,1,1.873,1.873Zm0,0" transform="translate(-0.001 1.332)"/>
  <path id="Path_6082" data-name="Path 6082" d="M171.293,131.172h11.035v1.391H171.293Zm0,0" transform="translate(-164.938 -126.256)"/>
  <path id="Path_6083" data-name="Path 6083" d="M171.293,211.172h11.035v1.391H171.293Zm0,0" transform="translate(-164.938 -203.287)"/>
  <path id="Path_6084" data-name="Path 6084" d="M171.293,291.172h11.035v1.391H171.293Zm0,0" transform="translate(-164.938 -280.319)"/>
</svg>
