<svg xmlns="http://www.w3.org/2000/svg" xmlns:xlink="http://www.w3.org/1999/xlink" width="109" height="109" viewBox="0 0 109 109">
  <defs>
    <filter id="Ellipse_576" x="0" y="0" width="109" height="109" filterUnits="userSpaceOnUse">
      <feOffset dy="5" input="SourceAlpha"/>
      <feGaussianBlur stdDeviation="4.5" result="blur"/>
      <feFlood flood-opacity="0.161"/>
      <feComposite operator="in" in2="blur"/>
      <feComposite in="SourceGraphic"/>
    </filter>
  </defs>
  <g id="Group_24274" data-name="Group 24274" transform="translate(7736.5 6095.5)">
    <g id="Group_24273" data-name="Group 24273" transform="translate(-9104.159 -15754.159)">
      <g transform="matrix(1, 0, 0, 1, 1367.66, 9658.66)" filter="url(#Ellipse_576)">
        <circle id="Ellipse_576-2" data-name="Ellipse 576" cx="41" cy="41" r="41" transform="translate(13.5 8.5)" fill="#ff4a4a"/>
      </g>
      <g id="report" transform="translate(1400.83 9686.83)">
        <path id="Path_10829" data-name="Path 10829" d="M240.3,292.105a1.437,1.437,0,1,0,1.438,1.437A1.439,1.439,0,0,0,240.3,292.105Zm0,0" transform="translate(-218.829 -267.601)" fill="#fff"/>
        <path id="Path_10830" data-name="Path 10830" d="M240.3,94.27a1.439,1.439,0,0,0-1.437,1.437v5.814a1.437,1.437,0,0,0,2.875,0V95.706A1.439,1.439,0,0,0,240.3,94.27Zm0,0" transform="translate(-218.829 -86.361)" fill="#fff"/>
        <path id="Path_10831" data-name="Path 10831" d="M38.323,0H4.628A4.633,4.633,0,0,0,0,4.628V29.311a4.633,4.633,0,0,0,4.628,4.628H15.307l3.536,7.073a3.059,3.059,0,0,0,2.632,1.939,3.059,3.059,0,0,0,2.632-1.939l3.536-7.073H38.323a4.633,4.633,0,0,0,4.628-4.628V4.628A4.633,4.633,0,0,0,38.323,0ZM21.475,29.9a3.954,3.954,0,1,1,3.954-3.954A3.958,3.958,0,0,1,21.475,29.9ZM25.43,15.159a3.954,3.954,0,0,1-7.908,0V9.345a3.954,3.954,0,0,1,7.908,0Zm0,0" fill="#fff"/>
      </g>
    </g>
  </g>
</svg>
