<svg xmlns="http://www.w3.org/2000/svg" width="27.813" height="27.705" viewBox="0 0 27.813 27.705">
  <g id="Group_24267" data-name="Group 24267" transform="translate(8211.952 4215.941)">
    <path id="Path_6053" data-name="Path 6053" d="M180.324,320.089a2.716,2.716,0,1,0-4.685,0,3.536,3.536,0,0,0-2.139,3.245v2.444a.815.815,0,0,0,.815.815h7.333a.815.815,0,0,0,.815-.815v-2.444A3.536,3.536,0,0,0,180.324,320.089Z" transform="translate(-8376.028 -4514.83)" fill="#2c6959"/>
    <path id="Path_6054" data-name="Path 6054" d="M6.878,155.089a2.716,2.716,0,1,0-4.7-.018A3.536,3.536,0,0,0,0,158.333v2.444a.815.815,0,0,0,.815.815H8.2a.815.815,0,0,0,.815-.815v-2.444A3.536,3.536,0,0,0,6.878,155.089Z" transform="translate(-8211.952 -4358.793)" fill="#2c6959"/>
    <path id="Path_6055" data-name="Path 6055" d="M352.878,155.089a2.716,2.716,0,1,0-4.7-.018A3.536,3.536,0,0,0,346,158.333v2.444a.815.815,0,0,0,.815.815H354.2a.815.815,0,0,0,.815-.815v-2.444A3.536,3.536,0,0,0,352.878,155.089Z" transform="translate(-8539.156 -4358.793)" fill="#2c6959"/>
    <path id="Path_6056" data-name="Path 6056" d="M180.324,5.089a2.716,2.716,0,1,0-4.685,0A3.536,3.536,0,0,0,173.5,8.333v2.444a.815.815,0,0,0,.815.815h7.333a.815.815,0,0,0,.815-.815V8.333A3.536,3.536,0,0,0,180.324,5.089Z" transform="translate(-8376.028 -4216.941)" fill="#2c6959"/>
    <path id="Path_6057" data-name="Path 6057" d="M369.843,376.815a2.447,2.447,0,0,1-2.445,2.445h-.092a9.224,9.224,0,0,1,.065,1.63,4.078,4.078,0,0,0,4.1-4.074V376h-1.63Z" transform="translate(-8559.306 -4571.57)" fill="#2c6959"/>
    <path id="Path_6058" data-name="Path 6058" d="M333.571,32.63H335.4a2.447,2.447,0,0,1,2.444,2.444v.9a4.315,4.315,0,0,1,1.63-.01v-.888A4.079,4.079,0,0,0,335.4,31h-1.93A4.335,4.335,0,0,1,333.571,32.63Z" transform="translate(-8527.307 -4245.312)" fill="#2c6959"/>
    <path id="Path_6059" data-name="Path 6059" d="M70.13,35.967v-.893a2.447,2.447,0,0,1,2.444-2.444h1.8a4.336,4.336,0,0,1,.1-1.63h-1.9A4.079,4.079,0,0,0,68.5,35.074v.893A4.311,4.311,0,0,1,70.13,35.967Z" transform="translate(-8276.731 -4245.312)" fill="#2c6959"/>
    <path id="Path_6060" data-name="Path 6060" d="M70.13,376.815V376H68.5v.815a4.079,4.079,0,0,0,4.074,4.074,9.221,9.221,0,0,1,.065-1.63h-.065A2.447,2.447,0,0,1,70.13,376.815Z" transform="translate(-8276.731 -4571.57)" fill="#2c6959"/>
  </g>
</svg>
