<svg xmlns="http://www.w3.org/2000/svg" width="14.453" height="14.453" viewBox="0 0 14.453 14.453">
  <g id="clock_1_" data-name="clock (1)" transform="translate(-1 -1)">
    <path id="Path_10852" data-name="Path 10852" d="M8.227,1a7.227,7.227,0,1,0,7.227,7.227A7.227,7.227,0,0,0,8.227,1Zm0,13.139a5.913,5.913,0,1,1,5.913-5.913A5.913,5.913,0,0,1,8.227,14.139Z" fill="#70757a"/>
    <path id="Path_10853" data-name="Path 10853" d="M12.314,9.327V5.657a.657.657,0,1,0-1.314,0V9.6a.657.657,0,0,0,.192.464l1.971,1.971a.657.657,0,1,0,.929-.929Z" transform="translate(-3.43 -1.372)" fill="#70757a"/>
  </g>
</svg>
