<svg id="envelope_1_" data-name="envelope (1)" xmlns="http://www.w3.org/2000/svg" width="30.198" height="22.648" viewBox="0 0 30.198 22.648">
  <g id="Group_930" data-name="Group 930" transform="translate(0 0)">
    <g id="Group_929" data-name="Group 929">
      <path id="Path_3710" data-name="Path 3710" d="M7.136,65.838c4.145,3.51,11.417,9.685,13.554,11.611a1.263,1.263,0,0,0,1.827,0c2.139-1.927,9.412-8.1,13.556-11.613a.629.629,0,0,0,.088-.868A2.5,2.5,0,0,0,34.187,64H9.022a2.5,2.5,0,0,0-1.975.97A.629.629,0,0,0,7.136,65.838Z" transform="translate(-6.506 -64)" fill="#2c6959"/>
      <path id="Path_3711" data-name="Path 3711" d="M29.833,126.47a.626.626,0,0,0-.671.091c-4.6,3.9-10.462,8.891-12.308,10.554a2.548,2.548,0,0,1-3.512,0c-1.967-1.773-8.555-7.373-12.307-10.553a.629.629,0,0,0-1.036.48v15.821a2.519,2.519,0,0,0,2.517,2.517H27.681a2.519,2.519,0,0,0,2.516-2.517V127.041A.629.629,0,0,0,29.833,126.47Z" transform="translate(0 -122.73)" fill="#2c6959"/>
    </g>
  </g>
</svg>
