<svg xmlns="http://www.w3.org/2000/svg" width="27.538" height="16.415" viewBox="0 0 27.538 16.415">
  <g id="Group_24313" data-name="Group 24313" transform="translate(1898.711 -6671.635)">
    <g id="eye" transform="translate(-1898.711 6671.635)">
      <path id="Path_6429" data-name="Path 6429" d="M13.769,98.725c-5.261,0-10.033,2.879-13.553,7.554a1.09,1.09,0,0,0,0,1.3c3.521,4.681,8.292,7.56,13.553,7.56s10.033-2.879,13.553-7.554a1.09,1.09,0,0,0,0-1.3C23.8,101.6,19.03,98.725,13.769,98.725Zm.377,13.987a5.792,5.792,0,1,1,5.4-5.4A5.8,5.8,0,0,1,14.146,112.712Zm-.175-2.67a3.119,3.119,0,1,1,2.912-2.912A3.114,3.114,0,0,1,13.972,110.042Z" transform="translate(0 -98.725)" fill="#2c6959"/>
    </g>
  </g>
</svg>
