<svg xmlns="http://www.w3.org/2000/svg" width="43.292" height="40.406" viewBox="0 0 43.292 40.406">
  <g id="Group_24258" data-name="Group 24258" transform="translate(8572.646 5903.997)">
    <g id="knowledge" transform="translate(-8588.646 -5943.997)">
      <path id="Path_6381" data-name="Path 6381" d="M274.636,101.437a7.49,7.49,0,0,0,.881-11.374A7.082,7.082,0,0,0,270.408,88a7.329,7.329,0,0,0-7.113,7.4,7.444,7.444,0,0,0,3.093,6.044.388.388,0,0,1,.154.318v.963a2.163,2.163,0,0,0,.361,3.914v.845a2.167,2.167,0,0,0,2.165,2.165h2.886a2.167,2.167,0,0,0,2.165-2.165v-.846a2.163,2.163,0,0,0,.361-3.914v-.963A.389.389,0,0,1,274.636,101.437Zm-9.9-6.046a5.881,5.881,0,0,1,5.69-5.95h.082a5.655,5.655,0,0,1,3.993,1.651,6.047,6.047,0,0,1-.707,9.172,1.835,1.835,0,0,0-.761,1.494v.672h-5.051v-.672a1.832,1.832,0,0,0-.759-1.493A6,6,0,0,1,264.739,95.392Zm7.215,12.809h-2.886a.722.722,0,0,1-.722-.722v-.722h4.329v.722A.722.722,0,0,1,271.955,108.2Zm1.443-2.886h-5.772a.722.722,0,1,1,0-1.443H273.4a.722.722,0,1,1,0,1.443Z" transform="translate(-224.992 -43.669)"/>
      <path id="Path_6382" data-name="Path 6382" d="M351.743,124.525a3.262,3.262,0,0,1,1.88,2.131.722.722,0,1,0,1.389-.391,4.715,4.715,0,0,0-2.722-3.076.722.722,0,1,0-.546,1.336Z" transform="translate(-305.053 -75.637)"/>
      <path id="Path_6383" data-name="Path 6383" d="M336.743,42.165V40.722a.722.722,0,1,0-1.443,0v1.443a.722.722,0,1,0,1.443,0Z" transform="translate(-290.502)"/>
      <path id="Path_6384" data-name="Path 6384" d="M284.54,53.826a.722.722,0,0,0,.658-1.015l-.587-1.318a.722.722,0,0,0-1.318.587l.587,1.318A.722.722,0,0,0,284.54,53.826Z" transform="translate(-243.128 -10.066)"/>
      <path id="Path_6385" data-name="Path 6385" d="M241.968,84.76a.722.722,0,0,0,.483-1.258l-1.072-.966a.722.722,0,1,0-.966,1.073l1.072.965A.719.719,0,0,0,241.968,84.76Z" transform="translate(-203.956 -38.532)"/>
      <path id="Path_6386" data-name="Path 6386" d="M216.342,129.835a.722.722,0,0,0-.463-.909l-1.372-.446a.722.722,0,1,0-.446,1.372l1.372.446a.721.721,0,0,0,.909-.463Z" transform="translate(-179.743 -80.467)"/>
      <path id="Path_6387" data-name="Path 6387" d="M210.081,179.71l-1.435.151a.722.722,0,1,0,.151,1.435l1.435-.151a.722.722,0,1,0-.151-1.435Z" transform="translate(-174.682 -127.106)"/>
      <path id="Path_6388" data-name="Path 6388" d="M447.331,181.146l1.435.151a.722.722,0,1,0,.151-1.435l-1.435-.151a.722.722,0,0,0-.151,1.435Z" transform="translate(-391.84 -127.106)"/>
      <path id="Path_6389" data-name="Path 6389" d="M442.532,130.334a.72.72,0,0,0,.223-.036l1.372-.446a.722.722,0,0,0-.446-1.372l-1.372.446a.722.722,0,0,0,.223,1.408Z" transform="translate(-387.405 -80.467)"/>
      <path id="Path_6390" data-name="Path 6390" d="M419.736,84.577l1.072-.965a.722.722,0,1,0-.966-1.072l-1.072.965a.722.722,0,1,0,.966,1.072Z" transform="translate(-366.226 -38.534)"/>
      <path id="Path_6391" data-name="Path 6391" d="M381.576,53.826a.721.721,0,0,0,.66-.428l.587-1.318a.722.722,0,1,0-1.318-.587l-.587,1.318a.722.722,0,0,0,.658,1.015Z" transform="translate(-331.948 -10.066)"/>
      <path id="Path_6392" data-name="Path 6392" d="M57.128,292.988h-9.38v-.722c0-1.083-1.41-1.872-1.842-2.088a.728.728,0,0,0-.115-.046l-7.062-2.119c-.447-.395-2.044-1.781-4-3.187-3.118-2.245-5.536-3.383-7.186-3.383H21.772v-.722a.722.722,0,0,0-.722-.722H16.722a.722.722,0,0,0-.722.722V296.6a.722.722,0,0,0,.722.722h4.329a.722.722,0,0,0,.722-.722v-.722H23.9c.45.06,4.132.787,7.387,1.429,6.51,1.285,7.43,1.457,7.633,1.457h18.2a2.167,2.167,0,0,0,2.165-2.165v-1.443a2.167,2.167,0,0,0-2.165-2.165Zm-36.8,2.886H17.443V281.443h2.886Zm37.52.722a.722.722,0,0,1-.722.722H38.957c-.45-.06-4.132-.787-7.387-1.429-6.511-1.285-7.431-1.457-7.634-1.457H21.772V282.886h5.772c2.73,0,8.39,4.554,10.34,6.309a.722.722,0,0,0,.275.155l7.152,2.146a2.692,2.692,0,0,1,.992.793v1.421a.723.723,0,0,1-.662.719l-7.018-1.4L33.675,290.2a.722.722,0,1,0-.716,1.253l5.051,2.886a.721.721,0,0,0,.216.081l7.215,1.443a.722.722,0,0,0,.142.014,2.168,2.168,0,0,0,2.041-1.443h9.5a.722.722,0,0,1,.722.722Z" transform="translate(0 -218.354)"/>
    </g>
  </g>
</svg>
