<svg id="Group_24259" data-name="Group 24259" xmlns="http://www.w3.org/2000/svg" width="24.329" height="24.938" viewBox="0 0 24.329 24.938">
  <path id="filter" d="M23.28,0H1.047A1.044,1.044,0,0,0,.116.567,1.059,1.059,0,0,0,.2,1.669L8.343,13.144l.008.012a2.326,2.326,0,0,1,.457,1.381v9.355a1.04,1.04,0,0,0,1.04,1.047,1.072,1.072,0,0,0,.41-.082l4.577-1.745a.992.992,0,0,0,.682-.978v-7.6a2.328,2.328,0,0,1,.457-1.381l.008-.012L24.129,1.669a1.058,1.058,0,0,0,.082-1.1A1.044,1.044,0,0,0,23.28,0Zm0,0" transform="translate(0.001 0)" fill="#2c6959"/>
</svg>
