<svg xmlns="http://www.w3.org/2000/svg" width="23.624" height="15.75" viewBox="0 0 23.624 15.75">
  <g id="mail" transform="translate(0 -85.333)">
    <g id="Group_24128" data-name="Group 24128" transform="translate(0 85.333)">
      <path id="Path_10842" data-name="Path 10842" d="M22.413,85.333H1.212A1.215,1.215,0,0,0,0,86.544V99.871a1.215,1.215,0,0,0,1.212,1.212h21.2a1.215,1.215,0,0,0,1.212-1.212V86.544A1.215,1.215,0,0,0,22.413,85.333Zm-.455.909-9.449,7.087a1.267,1.267,0,0,1-1.394,0L1.666,86.242ZM16.911,93.8l5.149,6.36c.005.006.011.011.017.017H1.548c.005-.006.012-.011.017-.017L6.713,93.8a.454.454,0,0,0-.706-.572l-5.1,6.3V86.809l9.662,7.246a2.169,2.169,0,0,0,2.483,0l9.662-7.246V99.523l-5.1-6.3a.454.454,0,0,0-.706.572Z" transform="translate(0 -85.333)" fill="#fff"/>
    </g>
  </g>
</svg>
