<svg xmlns="http://www.w3.org/2000/svg" width="31.253" height="31.253" viewBox="0 0 31.253 31.253">
  <g id="Group_24279" data-name="Group 24279" transform="translate(8933 5639.5)">
    <path id="_001-facebook" data-name="001-facebook" d="M29.528,0H1.724A1.725,1.725,0,0,0,0,1.725v27.8a1.725,1.725,0,0,0,1.725,1.724H16.695V19.166H12.635V14.436h4.059V10.954c0-4.037,2.465-6.235,6.066-6.235a33.4,33.4,0,0,1,3.639.186v4.22H23.917c-1.959,0-2.339.931-2.339,2.3v3.013h4.685l-.61,4.731H21.578V31.252h7.95a1.725,1.725,0,0,0,1.725-1.724h0V1.723A1.725,1.725,0,0,0,29.528,0Zm0,0" transform="translate(-8933 -5639.5)" fill="#fff"/>
  </g>
</svg>
