<svg xmlns="http://www.w3.org/2000/svg" width="33.057" height="33.057" viewBox="0 0 33.057 33.057">
  <g id="Group_24248" data-name="Group 24248" transform="translate(10403.381 6144.296)">
    <g id="online-learning" transform="translate(-10405.381 -6146.296)">
      <path id="Path_10832" data-name="Path 10832" d="M26.237,9.76l-.594.222v3.28a1.163,1.163,0,0,1,.59,1v2.361H23.872V14.262a1.163,1.163,0,0,1,.59-1V10.425l-7,2.626a.234.234,0,0,1-.165,0L8.52,9.76a.235.235,0,0,1,0-.44L17.3,6.029a.234.234,0,0,1,.165,0l8.775,3.29A.235.235,0,0,1,26.237,9.76Z" transform="translate(1.15 0.725)" fill="#2c6959"/>
      <path id="Path_10833" data-name="Path 10833" d="M21.445,12.1v3.2a9.1,9.1,0,0,1-4.722,1.4A9.1,9.1,0,0,1,12,15.3V12.1l4.722,1.771Z" transform="translate(1.806 1.825)" fill="#2c6959"/>
      <path id="Path_10834" data-name="Path 10834" d="M33.286,2H3.771A1.772,1.772,0,0,0,2,3.771V25.022a1.772,1.772,0,0,0,1.771,1.771H33.286a1.772,1.772,0,0,0,1.771-1.771V3.771A1.772,1.772,0,0,0,33.286,2ZM32.7,4.361V22.07H4.361V4.361Z" fill="#2c6959"/>
      <path id="Path_10835" data-name="Path 10835" d="M22.806,29.813a1.18,1.18,0,0,1-1.181,1.181H12.181a1.181,1.181,0,1,1,0-2.361h1.181V24.5h7.084v4.132h1.181A1.18,1.18,0,0,1,22.806,29.813Z" transform="translate(1.626 4.064)" fill="#2c6959"/>
    </g>
  </g>
</svg>
