<svg xmlns="http://www.w3.org/2000/svg" width="23.138" height="25.443" viewBox="0 0 23.138 25.443">
  <g id="Group_24263" data-name="Group 24263" transform="translate(8211.832 4282.816)">
    <path id="Path_6049" data-name="Path 6049" d="M23.288,18.307c0,1.391-.989,2.908-2.208,2.908s-2.208-1.515-2.208-2.908a2.042,2.042,0,0,1,2.208-2.129A2.043,2.043,0,0,1,23.288,18.307Zm-20.221,0c0,1.391.989,2.908,2.208,2.908S7.484,19.7,7.484,18.307a2.042,2.042,0,0,0-2.208-2.129A2.043,2.043,0,0,0,3.067,18.307Zm7.9,0c0,1.391.988,2.908,2.208,2.908s2.208-1.515,2.208-2.908a2.042,2.042,0,0,0-2.208-2.129A2.042,2.042,0,0,0,10.97,18.307Zm13.5,3.855a.975.975,0,0,0-.689-.286H18.382a.971.971,0,0,0-.971.971v2.6h7.3l.031-2.588A.968.968,0,0,0,24.466,22.162ZM7.973,21.876H2.579a.97.97,0,0,0-.971.971v2.6h7.3l.031-2.588a.975.975,0,0,0-.282-.692A.961.961,0,0,0,7.973,21.876Zm7.9,0H10.482a.97.97,0,0,0-.971.971v2.6h7.3l.031-2.588a.974.974,0,0,0-.28-.692A.964.964,0,0,0,15.875,21.876Zm8.042-19.4v9.735a2.471,2.471,0,0,1-2.471,2.471H10.131V8.014L11.558,9.95a.766.766,0,0,0,1.01.2l1.7-1.022a.767.767,0,1,0-.789-1.315l-1.106.664L11,6.613a.77.77,0,0,0-.617-.313H8.733l-.288.385.531,3-.718.677L7.537,9.69l.531-3L7.779,6.3H6.126a.767.767,0,0,0-.766.766v4.984a.763.763,0,0,0,1.022.72v1.909H4.91a2.471,2.471,0,0,1-2.471-2.471V2.471A2.471,2.471,0,0,1,4.91,0H21.445A2.472,2.472,0,0,1,23.917,2.473ZM10,3.482A1.615,1.615,0,0,0,8.255,1.8,1.614,1.614,0,0,0,6.511,3.482c0,1.1.781,2.3,1.744,2.3S10,4.581,10,3.482Z" transform="translate(-8213.439 -4282.816)" fill="#2c6959"/>
  </g>
</svg>
