<svg xmlns="http://www.w3.org/2000/svg" width="31.252" height="21.882" viewBox="0 0 31.252 21.882">
  <g id="Group_24278" data-name="Group 24278" transform="translate(8873.854 5635.172)">
    <path id="_008-youtube" data-name="008-youtube" d="M30.609-2.658a3.915,3.915,0,0,0-2.754-2.755c-2.446-.669-12.228-.669-12.228-.669s-9.782,0-12.228.644A4,4,0,0,0,.644-2.658,41.256,41.256,0,0,0,0,4.859a41.1,41.1,0,0,0,.644,7.517A3.916,3.916,0,0,0,3.4,15.131c2.471.669,12.228.669,12.228.669s9.782,0,12.228-.644A3.916,3.916,0,0,0,30.61,12.4a41.269,41.269,0,0,0,.643-7.517,39.162,39.162,0,0,0-.644-7.543Zm-18.1,12.2V.174l8.135,4.685Zm0,0" transform="translate(-8873.855 -5629.09)" fill="#fff"/>
  </g>
</svg>
