<svg xmlns="http://www.w3.org/2000/svg" width="35.438" height="33" viewBox="0 0 35.438 33">
  <g id="Group_24249" data-name="Group 24249" transform="translate(10262 6144)">
    <g id="home-icon-silhouette" transform="translate(-10262.001 -6161.046)">
      <g id="Group_5985" data-name="Group 5985" transform="translate(0.001 17.047)">
        <g id="Group_5984" data-name="Group 5984" transform="translate(0 0)">
          <path id="Path_6042" data-name="Path 6042" d="M34.845,31.96l-5.371-5.371v-6.2a2.031,2.031,0,0,0-4.063,0v2.142l-4-4a5.344,5.344,0,0,0-7.388,0L.6,31.96a2.032,2.032,0,0,0,2.874,2.873L16.9,21.4a1.2,1.2,0,0,1,1.644,0l13.43,13.431a2.032,2.032,0,1,0,2.874-2.873Z" transform="translate(-0.001 -17.047)" fill="#2c6959"/>
          <path id="Path_6043" data-name="Path 6043" d="M82.143,128.04a1,1,0,0,0-1.411,0L68.919,139.849a1,1,0,0,0-.292.707v8.613a3.66,3.66,0,0,0,3.66,3.66h5.848v-9.057h6.6v9.057h5.848a3.66,3.66,0,0,0,3.66-3.66v-8.613a1,1,0,0,0-.292-.707Z" transform="translate(-63.718 -119.829)" fill="#2c6959"/>
        </g>
      </g>
    </g>
  </g>
</svg>
