<svg xmlns="http://www.w3.org/2000/svg" width="24.993" height="24.997" viewBox="0 0 24.993 24.997">
  <g id="Group_24276" data-name="Group 24276" transform="translate(8755.566 5636.615)">
    <g id="_011-instagram" data-name="011-instagram" transform="translate(-8755.566 -5636.615)">
      <path id="Path_10839" data-name="Path 10839" d="M25.378,7.349A9.134,9.134,0,0,0,24.8,4.317,6.4,6.4,0,0,0,21.139.659,9.158,9.158,0,0,0,18.106.078C16.768.015,16.344,0,12.95,0S9.131.015,7.8.073A9.137,9.137,0,0,0,4.765.654,6.1,6.1,0,0,0,2.548,2.1,6.154,6.154,0,0,0,1.108,4.312,9.159,9.159,0,0,0,.527,7.344C.463,8.682.449,9.107.449,12.5s.015,3.819.073,5.152A9.134,9.134,0,0,0,1.1,20.686,6.4,6.4,0,0,0,4.76,24.343a9.159,9.159,0,0,0,3.033.581c1.333.059,1.758.073,5.152.073s3.819-.014,5.152-.073a9.132,9.132,0,0,0,3.032-.581,6.394,6.394,0,0,0,3.658-3.657,9.165,9.165,0,0,0,.581-3.033c.059-1.333.073-1.758.073-5.152s0-3.819-.064-5.152ZM23.126,17.555a6.852,6.852,0,0,1-.43,2.32,4.147,4.147,0,0,1-2.373,2.373,6.876,6.876,0,0,1-2.32.43c-1.318.059-1.714.073-5.049.073s-3.736-.014-5.049-.073a6.848,6.848,0,0,1-2.32-.43,3.846,3.846,0,0,1-1.436-.933,3.886,3.886,0,0,1-.933-1.436,6.877,6.877,0,0,1-.43-2.32c-.059-1.318-.073-1.714-.073-5.049s.014-3.736.073-5.049a6.848,6.848,0,0,1,.43-2.32,3.8,3.8,0,0,1,.938-1.436,3.88,3.88,0,0,1,1.436-.933,6.881,6.881,0,0,1,2.32-.43c1.318-.059,1.714-.073,5.049-.073s3.736.015,5.049.073a6.852,6.852,0,0,1,2.32.43,3.844,3.844,0,0,1,1.436.933A3.886,3.886,0,0,1,22.7,5.142a6.879,6.879,0,0,1,.43,2.32c.059,1.318.073,1.714.073,5.049s-.015,3.726-.073,5.044Zm0,0" transform="translate(-0.449 0)" fill="#fff"/>
      <path id="Path_10840" data-name="Path 10840" d="M131.37,124.5a6.421,6.421,0,1,0,6.421,6.421A6.423,6.423,0,0,0,131.37,124.5Zm0,10.587a4.165,4.165,0,1,1,4.165-4.165A4.166,4.166,0,0,1,131.37,135.087Zm0,0" transform="translate(-118.869 -118.42)" fill="#fff"/>
      <path id="Path_10841" data-name="Path 10841" d="M365.448,90.1a1.5,1.5,0,1,1-1.5-1.5A1.5,1.5,0,0,1,365.448,90.1Zm0,0" transform="translate(-344.772 -84.275)" fill="#fff"/>
    </g>
  </g>
</svg>
