<svg xmlns="http://www.w3.org/2000/svg" width="31.191" height="25.35" viewBox="0 0 31.191 25.35">
  <g id="Group_24275" data-name="Group 24275" transform="translate(8702.191 5636.615)">
    <path id="_013-twitter" data-name="013-twitter" d="M9.891,21.526c11.771,0,18.208-9.752,18.208-18.208q0-.415-.018-.827A13.023,13.023,0,0,0,31.274-.824,12.768,12.768,0,0,1,27.6.184a6.424,6.424,0,0,0,2.814-3.54A12.835,12.835,0,0,1,26.349-1.8,6.405,6.405,0,0,0,15.444,4.034,18.17,18.17,0,0,1,2.252-2.652,6.384,6.384,0,0,0,1.386.564,6.394,6.394,0,0,0,4.234,5.891a6.35,6.35,0,0,1-2.9-.8c0,.027,0,.053,0,.082a6.4,6.4,0,0,0,5.134,6.273,6.423,6.423,0,0,1-1.688.225,6.36,6.36,0,0,1-1.2-.115A6.406,6.406,0,0,0,9.557,16,12.839,12.839,0,0,1,1.608,18.74a13.024,13.024,0,0,1-1.527-.089,18.115,18.115,0,0,0,9.81,2.875" transform="translate(-8702.273 -5632.791)" fill="#fff"/>
  </g>
</svg>
