<svg xmlns="http://www.w3.org/2000/svg" width="28.779" height="25.294" viewBox="0 0 28.779 25.294">
  <g id="Group_24272" data-name="Group 24272" transform="translate(8206.567 3687.314)">
    <g id="negotiation" transform="translate(-8206.567 -3687.314)">
      <path id="Path_6125" data-name="Path 6125" d="M161.916,152.529v-1.686a.843.843,0,0,0-.843-.843h-10.23a.843.843,0,0,0-.843.843v1.686a.843.843,0,0,0,.843.843h10.23A.843.843,0,0,0,161.916,152.529Zm0,0" transform="translate(-141.569 -141.569)" fill="#2c6959"/>
      <path id="Path_6126" data-name="Path 6126" d="M1.686,133.49H6.745v4.216a.843.843,0,0,0,.843.843h2.529V131.8a1.686,1.686,0,0,0-1.686-1.686H5.059v-7.588a2.529,2.529,0,1,0-5.059,0V131.8A1.686,1.686,0,0,0,1.686,133.49Zm0,0" transform="translate(0 -113.255)" fill="#2c6959"/>
      <path id="Path_6127" data-name="Path 6127" d="M5.059,2.529A2.529,2.529,0,1,1,2.529,0,2.529,2.529,0,0,1,5.059,2.529Zm0,0" fill="#2c6959"/>
      <path id="Path_6128" data-name="Path 6128" d="M339.588,120a2.532,2.532,0,0,0-2.529,2.529v7.588h-3.373A1.686,1.686,0,0,0,332,131.8v6.745h2.529a.843.843,0,0,0,.843-.843V133.49h5.059a1.686,1.686,0,0,0,1.686-1.686v-9.274A2.532,2.532,0,0,0,339.588,120Zm0,0" transform="translate(-313.339 -113.255)" fill="#2c6959"/>
      <path id="Path_6129" data-name="Path 6129" d="M427.059,2.529A2.529,2.529,0,1,1,424.529,0,2.529,2.529,0,0,1,427.059,2.529Zm0,0" transform="translate(-398.28)" fill="#2c6959"/>
      <path id="Path_6130" data-name="Path 6130" d="M210,240h5.171v11.8H210Zm0,0" transform="translate(-198.196 -226.51)" fill="#2c6959"/>
    </g>
  </g>
</svg>
