<svg xmlns="http://www.w3.org/2000/svg" xmlns:xlink="http://www.w3.org/1999/xlink" width="68" height="68" viewBox="0 0 68 68">
  <defs>
    <filter id="Ellipse_312" x="0" y="0" width="68" height="68" filterUnits="userSpaceOnUse">
      <feOffset dy="3" input="SourceAlpha"/>
      <feGaussianBlur stdDeviation="3" result="blur"/>
      <feFlood flood-opacity="0.161"/>
      <feComposite operator="in" in2="blur"/>
      <feComposite in="SourceGraphic"/>
    </filter>
  </defs>
  <g id="Group_24243" data-name="Group 24243" transform="translate(8285 6778)">
    <g id="Group_895" data-name="Group 895" transform="translate(-8276.38 -6772.016)">
      <g transform="matrix(1, 0, 0, 1, -8.62, -5.98)" filter="url(#Ellipse_312)">
        <g id="Ellipse_312-2" data-name="Ellipse 312" transform="translate(9 6)" fill="#fff" stroke="#707070" stroke-width="1">
          <circle cx="25" cy="25" r="25" stroke="none"/>
          <circle cx="25" cy="25" r="24.5" fill="none"/>
        </g>
      </g>
      <g id="facebook" transform="translate(0 0)">
        <circle id="Ellipse_315" data-name="Ellipse 315" cx="25" cy="25" r="25" transform="translate(0.38 0.016)" fill="#3b5998"/>
        <path id="Path_314" data-name="Path 314" d="M52.468,38.293h-4.53V54.887H41.076V38.293H37.812V32.461h3.264V28.688c0-2.7,1.282-6.925,6.924-6.925l5.083.021v5.661H49.395a1.4,1.4,0,0,0-1.456,1.59v3.432h5.129Z" transform="translate(-21.054 -12.031)" fill="#fff"/>
      </g>
    </g>
  </g>
</svg>
