<svg xmlns="http://www.w3.org/2000/svg" xmlns:xlink="http://www.w3.org/1999/xlink" width="68" height="68" viewBox="0 0 68 68">
  <defs>
    <filter id="Ellipse_313" x="0" y="0" width="68" height="68" filterUnits="userSpaceOnUse">
      <feOffset dy="3" input="SourceAlpha"/>
      <feGaussianBlur stdDeviation="3" result="blur"/>
      <feFlood flood-opacity="0.161"/>
      <feComposite operator="in" in2="blur"/>
      <feComposite in="SourceGraphic"/>
    </filter>
  </defs>
  <g id="Group_24244" data-name="Group 24244" transform="translate(8192 6778)">
    <g id="Group_894" data-name="Group 894" transform="translate(-8182.87 -6772.016)">
      <g transform="matrix(1, 0, 0, 1, -9.13, -5.98)" filter="url(#Ellipse_313)">
        <circle id="Ellipse_313-2" data-name="Ellipse 313" cx="25" cy="25" r="25" transform="translate(9 6)" fill="#fff"/>
      </g>
      <g id="gmail" transform="translate(10.882 15.466)">
        <rect id="Rectangle_913" data-name="Rectangle 913" width="21.724" height="21.913" transform="translate(3.582 0)" fill="#eceff1"/>
        <path id="Path_315" data-name="Path 315" d="M256,157.03l10.864,8.579V148.672Z" transform="translate(-241.515 -143.788)" fill="#cfd8dc"/>
        <path id="Path_316" data-name="Path 316" d="M26.255,64h-.905L14.485,72.579,3.621,64H2.716A2.717,2.717,0,0,0,0,66.716v16.3a2.717,2.717,0,0,0,2.716,2.716h.905V68.791l10.864,8.356,10.864-8.358V85.728h.905a2.717,2.717,0,0,0,2.716-2.716v-16.3A2.717,2.717,0,0,0,26.255,64Z" transform="translate(0 -63.907)" fill="#f44336"/>
      </g>
    </g>
  </g>
</svg>
