<svg xmlns="http://www.w3.org/2000/svg" width="39.748" height="30.451" viewBox="0 0 39.748 30.451">
  <g id="Group_24268" data-name="Group 24268" transform="translate(8215 3968.242)">
    <g id="crowd-of-users" transform="translate(-8215 -3968.242)">
      <g id="Group_6152" data-name="Group 6152" transform="translate(0 0)">
        <path id="Path_6100" data-name="Path 6100" d="M44.979,35.393a4.635,4.635,0,0,1,1.85.384,4.615,4.615,0,0,1,.875-2.5,5.442,5.442,0,0,0-1.115-.116H42.975a5.449,5.449,0,0,0-1.111.114,4.619,4.619,0,0,1,.878,2.686A4.628,4.628,0,0,1,44.979,35.393Z" transform="translate(-24.879 -24.359)" fill="#2c6959"/>
        <circle id="Ellipse_343" data-name="Ellipse 343" cx="4.258" cy="4.258" r="4.258" transform="translate(15.644)" fill="#2c6959"/>
        <path id="Path_6101" data-name="Path 6101" d="M59.8,38.867a3.923,3.923,0,1,0-3.921-3.983A4.862,4.862,0,0,1,58.139,38.5,3.894,3.894,0,0,0,59.8,38.867Z" transform="translate(-33.206 -23.083)" fill="#2c6959"/>
        <path id="Path_6102" data-name="Path 6102" d="M26.824,31.019A3.923,3.923,0,1,0,28.91,38.26a4.86,4.86,0,0,1,1.825-3.1c0-.073.011-.146.011-.22A3.923,3.923,0,0,0,26.824,31.019Z" transform="translate(-13.609 -23.083)" fill="#2c6959"/>
        <path id="Path_6103" data-name="Path 6103" d="M71.82,25.154a4.861,4.861,0,0,1,2.262,3.611,3.922,3.922,0,1,0-2.262-3.611Z" transform="translate(-42.681 -17.301)" fill="#2c6959"/>
        <circle id="Ellipse_344" data-name="Ellipse 344" cx="3.924" cy="3.924" r="3.924" transform="translate(16.176 11.987)" fill="#2c6959"/>
        <path id="Path_6104" data-name="Path 6104" d="M62.617,51.019h-3.3a4.835,4.835,0,0,1-1.493,3.368A5.971,5.971,0,0,1,62.084,60.1v1.254a13.5,13.5,0,0,0,5.266-1.107l.262-.133h.027V56.043A5.028,5.028,0,0,0,62.617,51.019Z" transform="translate(-34.361 -34.968)" fill="#2c6959"/>
        <path id="Path_6105" data-name="Path 6105" d="M78.561,41.289h-3.3a4.835,4.835,0,0,1-1.492,3.368,5.97,5.97,0,0,1,4.263,5.713v1.255a13.489,13.489,0,0,0,5.266-1.107l.262-.133h.028V46.313A5.029,5.029,0,0,0,78.561,41.289Z" transform="translate(-43.837 -29.186)" fill="#2c6959"/>
        <path id="Path_6106" data-name="Path 6106" d="M26.3,54.386a4.839,4.839,0,0,1-1.492-3.349c-.122-.009-.243-.019-.368-.019H21.109a5.03,5.03,0,0,0-5.024,5.024v4.072l.01.063.28.088a23.554,23.554,0,0,0,5.657,1.063V60.1A5.973,5.973,0,0,1,26.3,54.386Z" transform="translate(-9.559 -34.968)" fill="#2c6959"/>
        <path id="Path_6107" data-name="Path 6107" d="M41.407,61H38.078a5.03,5.03,0,0,0-5.024,5.024V70.1l.011.064.28.088a22.881,22.881,0,0,0,6.83,1.1,14.029,14.029,0,0,0,5.965-1.12L46.4,70.1h.028V66.027A5.027,5.027,0,0,0,41.407,61Z" transform="translate(-19.643 -40.901)" fill="#2c6959"/>
        <path id="Path_6108" data-name="Path 6108" d="M10.739,29.444a3.9,3.9,0,0,0,1.658-.372,4.863,4.863,0,0,1,2.262-3.612,3.922,3.922,0,1,0-3.92,3.983Z" transform="translate(-4.05 -17.483)" fill="#2c6959"/>
        <path id="Path_6109" data-name="Path 6109" d="M9.819,44.965A4.838,4.838,0,0,1,8.328,41.6h-3.3A5.03,5.03,0,0,0,0,46.62v4.072H.028l.262.133a13.511,13.511,0,0,0,5.266,1.107V50.677A5.969,5.969,0,0,1,9.819,44.965Z" transform="translate(0 -29.368)" fill="#2c6959"/>
        <path id="Path_6110" data-name="Path 6110" d="M24.407,20.564a5.3,5.3,0,0,1,1.874-.425,4.641,4.641,0,0,1,2.275.6,3.946,3.946,0,0,0,.426-.495,5,5,0,0,1-.544-5.163,3.846,3.846,0,0,0-2.6-1,3.887,3.887,0,0,0-3.749,2.876A4.667,4.667,0,0,1,24.407,20.564Z" transform="translate(-13.129 -13.016)" fill="#2c6959"/>
        <path id="Path_6111" data-name="Path 6111" d="M59.117,20.016a3.882,3.882,0,0,0,.477.611,4.635,4.635,0,0,1,2.066-.49,5.82,5.82,0,0,1,1.814.329,4.675,4.675,0,0,1,2.6-3.794,3.877,3.877,0,0,0-6.478-1.384,4.977,4.977,0,0,1-.476,4.727Z" transform="translate(-35.132 -13.013)" fill="#2c6959"/>
      </g>
    </g>
  </g>
</svg>
