<svg xmlns="http://www.w3.org/2000/svg" width="32.351" height="30.125" viewBox="0 0 32.351 30.125">
  <g id="Group_24246" data-name="Group 24246" transform="translate(10676 6144)">
    <g id="home-icon-silhouette" transform="translate(-10676.001 -6161.046)">
      <g id="Group_5985" data-name="Group 5985" transform="translate(0.001 17.047)">
        <g id="Group_5984" data-name="Group 5984" transform="translate(0 0)">
          <path id="Path_6042" data-name="Path 6042" d="M31.809,30.66l-4.9-4.9V20.093a1.854,1.854,0,0,0-3.709,0v1.955L19.546,18.4a4.878,4.878,0,0,0-6.744,0L.543,30.66a1.855,1.855,0,0,0,2.623,2.622L15.425,21.023a1.1,1.1,0,0,1,1.5,0l12.26,12.26a1.855,1.855,0,1,0,2.623-2.622Z" transform="translate(-0.001 -17.047)" fill="#2c6959"/>
          <path id="Path_6043" data-name="Path 6043" d="M80.965,128.015a.91.91,0,0,0-1.288,0l-10.783,10.78a.913.913,0,0,0-.267.645V147.3a3.341,3.341,0,0,0,3.341,3.341h5.339v-8.268h6.027v8.268h5.339a3.341,3.341,0,0,0,3.341-3.341V139.44a.909.909,0,0,0-.267-.645Z" transform="translate(-64.145 -120.519)" fill="#2c6959"/>
        </g>
      </g>
    </g>
  </g>
</svg>
