<svg xmlns="http://www.w3.org/2000/svg" width="34.564" height="31.864" viewBox="0 0 34.564 31.864">
  <g id="Group_24257" data-name="Group 24257" transform="translate(8824.281 5895.455)">
    <g id="XMLID_1_" transform="translate(-8824.281 -5915.455)">
      <g id="XMLID_1090_" transform="translate(0 20)">
        <path id="XMLID_1098_" d="M34.564,30.126a3.379,3.379,0,0,0-3.375-3.375H26.6V23.375A3.379,3.379,0,0,0,23.223,20H11.341a3.379,3.379,0,0,0-3.375,3.375v3.375H3.375A3.379,3.379,0,0,0,0,30.126V48.488a3.379,3.379,0,0,0,3.375,3.375H31.189a3.379,3.379,0,0,0,3.375-3.375ZM11.341,21.35H23.223a2.029,2.029,0,0,1,1.984,1.62H9.357a2.029,2.029,0,0,1,1.984-1.62ZM3.375,28.1H14.253a.675.675,0,0,0,0-1.35H9.316v-2.43H25.248v2.43h-4.92a.675.675,0,1,0,0,1.35h10.86a2.028,2.028,0,0,1,2.025,2.025v5.249L17.282,40.2,1.35,35.375V30.126A2.028,2.028,0,0,1,3.375,28.1ZM31.189,50.514H3.375A2.028,2.028,0,0,1,1.35,48.488v-11.7l15.736,4.765a.675.675,0,0,0,.391,0l15.736-4.765v11.7A2.028,2.028,0,0,1,31.189,50.514Z" transform="translate(0 -20)"/>
        <path id="XMLID_1119_" d="M198.675,194.591h6.481a.675.675,0,0,0,.675-.675v-3.24a.675.675,0,0,0-.675-.675h-6.481a.675.675,0,0,0-.675.675v3.24A.675.675,0,0,0,198.675,194.591Zm.675-3.24h5.131v1.89H199.35Z" transform="translate(-184.633 -178.524)"/>
        <path id="XMLID_1126_" d="M246.805,121.35a.674.674,0,1,0-.478-.2A.68.68,0,0,0,246.805,121.35Z" transform="translate(-229.514 -113.249)"/>
      </g>
    </g>
  </g>
</svg>
