<svg xmlns="http://www.w3.org/2000/svg" width="24.107" height="24.8" viewBox="0 0 24.107 24.8">
  <g id="Group_6410" data-name="Group 6410" transform="translate(-660.372 -857.5)">
    <g id="Group_24287" data-name="Group 24287">
      <g id="like" transform="translate(653.697 857.5)">
        <path id="Path_6086" data-name="Path 6086" d="M30.059,16.86A3.081,3.081,0,0,0,30.78,14.8a3.163,3.163,0,0,0-.674-1.784,2.772,2.772,0,0,0-.659-3.189c-.825-.752-2.225-1.089-4.164-1a16.275,16.275,0,0,0-2.552.327h-.005c-.259.047-.534.1-.814.166a9.047,9.047,0,0,1,.648-3.013c.726-2.209.685-3.9-.135-5.03A3.3,3.3,0,0,0,19.785,0a1.3,1.3,0,0,0-1,.456,3.489,3.489,0,0,0-.436,2.474c-.685,1.836-2.6,6.337-4.227,7.587a.555.555,0,0,0-.083.073,5.571,5.571,0,0,0-1.016,1.525A2.14,2.14,0,0,0,12,11.855H8.832a2.159,2.159,0,0,0-2.157,2.157V22.44A2.159,2.159,0,0,0,8.832,24.6H12A2.153,2.153,0,0,0,13.24,24.2l1.219.145a52.215,52.215,0,0,0,6.913.379c.617.047,1.2.073,1.737.073a11.636,11.636,0,0,0,2.412-.218,4.51,4.51,0,0,0,3.221-2,3.174,3.174,0,0,0,.353-1.986A3.308,3.308,0,0,0,30.271,17.9,3.5,3.5,0,0,0,30.059,16.86ZM8.832,23.2a.758.758,0,0,1-.757-.757V14.007a.758.758,0,0,1,.757-.757H12a.758.758,0,0,1,.757.757v8.427a.758.758,0,0,1-.757.757H8.832Zm19.9-6.944a.7.7,0,0,0-.093.845,2.158,2.158,0,0,1,.239.866,2.075,2.075,0,0,1-.975,1.794.707.707,0,0,0-.239.8,1.831,1.831,0,0,1-.14,1.338,3.244,3.244,0,0,1-2.292,1.317,13.662,13.662,0,0,1-3.781.114h-.073a51.19,51.19,0,0,1-6.742-.368H14.63l-.524-.062a2.2,2.2,0,0,0,.047-.456V14.007a2.194,2.194,0,0,0-.1-.643,4.335,4.335,0,0,1,.965-1.779c2.329-1.846,4.605-8.075,4.7-8.344a.657.657,0,0,0,.031-.347,3.241,3.241,0,0,1,.067-1.5,1.861,1.861,0,0,1,1.462.7c.529.731.508,2.038-.062,3.77-.871,2.64-.944,4.03-.254,4.641a1.13,1.13,0,0,0,1.131.2c.316-.073.617-.135.9-.182l.067-.016c1.592-.347,4.444-.56,5.435.342a1.492,1.492,0,0,1,.176,1.893.693.693,0,0,0,.124.9,1.965,1.965,0,0,1,.576,1.208A1.926,1.926,0,0,1,28.731,16.253Z"/>
      </g>
    </g>
  </g>
</svg>
