<svg xmlns="http://www.w3.org/2000/svg" width="31.253" height="29.873" viewBox="0 0 31.253 29.873">
  <g id="Group_24277" data-name="Group 24277" transform="translate(8814.711 5639.5)">
    <g id="_010-linkedin" data-name="010-linkedin" transform="translate(-8814.711 -5639.5)">
      <path id="Path_10836" data-name="Path 10836" d="M3.79-.668A3.492,3.492,0,1,0,3.7,6.3h.043A3.493,3.493,0,1,0,3.79-.668Zm0,0" transform="translate(0 0.668)" fill="#fff"/>
      <path id="Path_10837" data-name="Path 10837" d="M8.109,198.313h6.7v20.156h-6.7Zm0,0" transform="translate(-7.713 -188.596)" fill="#fff"/>
      <path id="Path_10838" data-name="Path 10838" d="M233.952,188.625c-3.614,0-6.038,3.4-6.038,3.4V189.1h-6.7v20.156h6.7V198a4.591,4.591,0,0,1,.221-1.635,3.667,3.667,0,0,1,3.437-2.45c2.424,0,3.394,1.848,3.394,4.558v10.783h6.7V197.7c0-6.191-3.305-9.072-7.713-9.072Zm0,0" transform="translate(-210.412 -179.381)" fill="#fff"/>
    </g>
  </g>
</svg>
