<svg xmlns="http://www.w3.org/2000/svg" width="19.264" height="27.196" viewBox="0 0 19.264 27.196">
  <path id="Path_10847" data-name="Path 10847" d="M91.663,11.389V7.365a7.366,7.366,0,0,0-14.731,0v4.024a2.837,2.837,0,0,0-2.266,2.775v10.2A2.836,2.836,0,0,0,77.5,27.2H91.1a2.836,2.836,0,0,0,2.833-2.833v-10.2A2.837,2.837,0,0,0,91.663,11.389Zm-6.109,8.7.437,3.058a.562.562,0,0,1-.133.451.57.57,0,0,1-.428.2H83.165a.565.565,0,0,1-.561-.646l.437-3.058a2.834,2.834,0,1,1,2.513,0Zm2.709-8.759H80.332V7.365a3.966,3.966,0,0,1,7.932,0Z" transform="translate(-74.666)" fill="#2c6959"/>
</svg>
