<svg xmlns="http://www.w3.org/2000/svg" width="37.295" height="27.124" viewBox="0 0 37.295 27.124">
  <g id="Group_24247" data-name="Group 24247" transform="translate(10551.147 6142.04)">
    <path id="people" d="M38.3,29.429a1.7,1.7,0,0,1-1.7,1.7H16.257a1.7,1.7,0,0,1-1.7-1.7A10.171,10.171,0,0,1,24.733,19.257h3.39A10.171,10.171,0,0,1,38.3,29.429ZM26.429,4a6.781,6.781,0,1,0,6.781,6.781A6.781,6.781,0,0,0,26.429,4ZM11.171,4a6.781,6.781,0,1,0,6.781,6.781A6.781,6.781,0,0,0,11.171,4Zm0,25.429a13.46,13.46,0,0,1,3.984-9.578,9.205,9.205,0,0,0-3.238-.593H10.426A9.442,9.442,0,0,0,1,28.683v.746a1.7,1.7,0,0,0,1.7,1.7h8.781a5.086,5.086,0,0,1-.305-1.7Z" transform="translate(-10552.147 -6146.04)" fill="#2c6959"/>
  </g>
</svg>
