<svg xmlns="http://www.w3.org/2000/svg" width="38.667" height="33.144" viewBox="0 0 38.667 33.144">
  <g id="Group_24256" data-name="Group 24256" transform="translate(9098.262 5897.045)">
    <g id="teaching_1_" data-name="teaching (1)" transform="translate(-9099.762 -5902.891)">
      <path id="Path_6355" data-name="Path 6355" d="M37.632,6.045H23.686A2.538,2.538,0,0,0,21.15,8.579v1.9H18.36c-.615-5.3-8.192-6.239-10.234-1.854A2.539,2.539,0,0,0,6.471,10.48H3.4a1.9,1.9,0,0,0-1.9,1.9V31.387a1.9,1.9,0,0,0,1.9,1.9H15.008a11.029,11.029,0,0,1-1.549,3.673,1.318,1.318,0,0,0,1.1,2.029H21.4a1.318,1.318,0,0,0,1.1-2.031,11.022,11.022,0,0,1-1.548-3.671H32.56a1.9,1.9,0,0,0,1.9-1.9v-13.3h3.169a2.538,2.538,0,0,0,2.536-2.534V8.579a2.538,2.538,0,0,0-2.536-2.534ZM7.7,10.781a1.267,1.267,0,0,1,1.009-1,.634.634,0,0,0,.47-.392,3.421,3.421,0,0,1,.849-1.278,4.572,4.572,0,0,1,5.709.016c.387.333,1.624,1.526,1.308,2.906a3.125,3.125,0,0,1-2.524,2.038A4.052,4.052,0,0,1,10.613,11.3a.634.634,0,0,0-1.026.745A5.175,5.175,0,0,0,15.515,14.1v1.1a3.4,3.4,0,0,1-6.8,0,.634.634,0,0,0-.634-.633.88.88,0,0,1-.6-1.516c.776.747,1.78-.325.886-.936A1.268,1.268,0,0,1,7.7,10.781ZM5.937,26.319A5.034,5.034,0,0,1,6.36,24.3a7,7,0,0,0,11.833,0c.6,1.134.389,3.293.422,4.553H5.937Zm6.339,0a5.658,5.658,0,0,1-5.14-3.266A5.065,5.065,0,0,1,10.5,21.276a1.9,1.9,0,0,0,3.554,0,5.065,5.065,0,0,1,3.363,1.777,5.658,5.658,0,0,1-5.14,3.266Zm.634-5.7a.634.634,0,0,1-1.268,0v-.773A4.484,4.484,0,0,0,12.91,19.8ZM3.4,11.747H6.53a2.561,2.561,0,0,0,.138.34,2.159,2.159,0,0,0,.816,3.667,4.675,4.675,0,0,0,2.89,3.775v.486a6.345,6.345,0,0,0-5.7,6.3v2.534h-1.9V12.38A.635.635,0,0,1,3.4,11.747ZM20.826,36.615c.21.391.418.743.621,1.047l.527-.351-.57.412H14.558l-.043-.061A12.3,12.3,0,0,0,16.3,33.288h3.362a12.658,12.658,0,0,0,1.164,3.327ZM32.56,32.021H3.4a.635.635,0,0,1-.634-.634V30.12H33.194v1.267A.635.635,0,0,1,32.56,32.021Zm.634-3.168H19.883V26.319a6.345,6.345,0,0,0-5.7-6.3v-.632a4.664,4.664,0,0,0,2.605-4.177V13.455a3.706,3.706,0,0,0,1.352-1.708H21.15v2.238l-2.23,1.857a1.274,1.274,0,0,0,.812,2.241H33.194Zm5.7-13.3a1.269,1.269,0,0,1-1.268,1.267h-17.9l2.23-1.857a1.264,1.264,0,0,0,.456-.974V8.579a1.269,1.269,0,0,1,1.268-1.267H37.632A1.269,1.269,0,0,1,38.9,8.579Z" transform="translate(0 0)" fill="#232423"/>
      <path id="Path_6356" data-name="Path 6356" d="M53.486,11.16H52.162a.662.662,0,1,0,0,1.324h1.324a.662.662,0,1,0,0-1.324Z" transform="translate(-18.614 -1.797)" fill="#232423"/>
      <path id="Path_6357" data-name="Path 6357" d="M47.486,11.16H46.162a.662.662,0,1,0,0,1.324h1.324a.662.662,0,1,0,0-1.324Z" transform="translate(-16.195 -1.797)" fill="#232423"/>
      <path id="Path_6358" data-name="Path 6358" d="M41.486,11.16H40.162a.662.662,0,1,0,0,1.324h1.324a.662.662,0,1,0,0-1.324Z" transform="translate(-13.987 -1.797)" fill="#232423"/>
      <path id="Path_6359" data-name="Path 6359" d="M47.486,16.16H46.162a.662.662,0,1,0,0,1.324h1.324a.662.662,0,1,0,0-1.324Z" transform="translate(-16.195 -3.791)" fill="#232423"/>
      <path id="Path_6360" data-name="Path 6360" d="M41.486,16.16H40.162a.662.662,0,1,0,0,1.324h1.324a.662.662,0,1,0,0-1.324Z" transform="translate(-13.987 -3.791)" fill="#232423"/>
      <path id="Path_6361" data-name="Path 6361" d="M53.486,16.16H52.162a.662.662,0,1,0,0,1.324h1.324a.662.662,0,1,0,0-1.324Z" transform="translate(-18.614 -3.791)" fill="#232423"/>
      <path id="Path_6362" data-name="Path 6362" d="M39.162,31.484h5.3a.662.662,0,1,0,0-1.324h-5.3a.662.662,0,1,0,0,1.324Z" transform="translate(-13.749 -8.937)" fill="#232423"/>
      <path id="Path_6363" data-name="Path 6363" d="M39.162,35.484h5.3a.662.662,0,1,0,0-1.324h-5.3a.662.662,0,1,0,0,1.324Z" transform="translate(-13.749 -10.408)" fill="#232423"/>
      <path id="Path_6364" data-name="Path 6364" d="M39.162,39.484h5.3a.662.662,0,1,0,0-1.324h-5.3a.662.662,0,1,0,0,1.324Z" transform="translate(-13.749 -11.878)" fill="#232423"/>
    </g>
  </g>
</svg>
