<svg xmlns="http://www.w3.org/2000/svg" width="52.449" height="49.174" viewBox="0 0 52.449 49.174">
  <g id="outlook" transform="translate(0 -15.989)">
    <path id="Path_10843" data-name="Path 10843" d="M280.586,112.011H257.639a1.639,1.639,0,1,0,0,3.278H275.81l-10.07,7.831-7.222-4.593-1.757,2.767,8.2,5.212a1.64,1.64,0,0,0,1.885-.089L278.947,117v21.236H257.639a1.639,1.639,0,1,0,0,3.278h22.947a1.64,1.64,0,0,0,1.639-1.639V113.65A1.64,1.64,0,0,0,280.586,112.011Z" transform="translate(-229.775 -86.185)" fill="#1976d2"/>
    <path id="Path_10844" data-name="Path 10844" d="M28.91,16.369a1.611,1.611,0,0,0-1.347-.347L1.337,20.938A1.634,1.634,0,0,0,0,22.548V58.607a1.637,1.637,0,0,0,1.337,1.61l26.225,4.917a1.543,1.543,0,0,0,.3.029A1.639,1.639,0,0,0,29.5,63.524V17.631A1.635,1.635,0,0,0,28.91,16.369Z" transform="translate(0 0)" fill="#2196f3"/>
    <path id="Path_10845" data-name="Path 10845" d="M72.2,195.68c-4.517,0-8.2-4.412-8.2-9.834s3.678-9.834,8.2-9.834,8.2,4.412,8.2,9.834S76.712,195.68,72.2,195.68Zm0-16.391c-2.711,0-4.917,2.94-4.917,6.556S69.484,192.4,72.2,192.4s4.917-2.94,4.917-6.556S74.906,179.289,72.2,179.289Z" transform="translate(-57.444 -143.629)" fill="#fafafa"/>
  </g>
</svg>
