<svg xmlns="http://www.w3.org/2000/svg" width="25" height="31" viewBox="0 0 25 31">
  <g id="Group_24253" data-name="Group 24253" transform="translate(-1729 -71)">
    <g id="Page-1" transform="translate(1729 71)">
      <g id="_035---Reward-Points" data-name="035---Reward-Points">
        <g id="Group_24146" data-name="Group 24146" transform="translate(1.036)">
          <path id="Shape" d="M23.518,4.143A.518.518,0,0,1,23,3.625V.518a.518.518,0,0,1,1.036,0V3.625A.518.518,0,0,1,23.518,4.143Z" transform="translate(-12.126)" fill="#f0c419"/>
          <path id="Shape-2" data-name="Shape" d="M30.518,4.66A.518.518,0,0,1,30,4.143V.518a.518.518,0,0,1,1.036,0V4.143A.518.518,0,0,1,30.518,4.66Z" transform="translate(-15.501)" fill="#f0c419"/>
          <path id="Shape-3" data-name="Shape" d="M37.518,9.107A.518.518,0,0,1,37,8.589V6.518a.518.518,0,0,1,1.036,0V8.589A.518.518,0,0,1,37.518,9.107Z" transform="translate(-18.876 -2.893)" fill="#f0c419"/>
          <path id="Shape-4" data-name="Shape" d="M37.518,2.071A.518.518,0,0,1,37,1.553V.518a.518.518,0,0,1,1.036,0V1.553A.518.518,0,0,1,37.518,2.071Z" transform="translate(-18.876)" fill="#f0c419"/>
          <path id="Shape-5" data-name="Shape" d="M44.518,17.428A.518.518,0,0,1,44,16.91V5.518a.518.518,0,0,1,1.036,0V16.91A.518.518,0,0,1,44.518,17.428Z" transform="translate(-22.251 -2.411)" fill="#f0c419"/>
          <path id="Shape-6" data-name="Shape" d="M16.518,4.66A.518.518,0,0,1,16,4.143V.518a.518.518,0,0,1,1.036,0V4.143A.518.518,0,0,1,16.518,4.66Z" transform="translate(-8.75)" fill="#f0c419"/>
          <path id="Shape-7" data-name="Shape" d="M9.518,9.107A.518.518,0,0,1,9,8.589V6.518a.518.518,0,0,1,1.036,0V8.589A.518.518,0,0,1,9.518,9.107Z" transform="translate(-5.375 -2.893)" fill="#f0c419"/>
          <path id="Shape-8" data-name="Shape" d="M9.518,2.071A.518.518,0,0,1,9,1.553V.518a.518.518,0,0,1,1.036,0V1.553A.518.518,0,0,1,9.518,2.071Z" transform="translate(-5.375)" fill="#f0c419"/>
          <path id="Shape-9" data-name="Shape" d="M2.518,17.428A.518.518,0,0,1,2,16.91V5.518a.518.518,0,1,1,1.036,0V16.91A.518.518,0,0,1,2.518,17.428Z" transform="translate(-2 -2.411)" fill="#f0c419"/>
        </g>
        <circle id="Oval" cx="12.5" cy="12.5" r="12.5" transform="translate(0 6)" fill="#f29c1f"/>
        <ellipse id="Oval-2" data-name="Oval" cx="10.5" cy="10" rx="10.5" ry="10" transform="translate(2 8)" fill="#f0c419"/>
        <path id="Shape-10" data-name="Shape" d="M13.874,41.039A10.886,10.886,0,0,1,3,30.165a10.76,10.76,0,0,1,1.161-4.894.518.518,0,1,1,.924.466,9.735,9.735,0,0,0-1.05,4.428,9.839,9.839,0,0,0,15.742,7.871.518.518,0,0,1,.621.829,10.784,10.784,0,0,1-6.525,2.175Z" transform="translate(-1.446 -12.04)" fill="#e57e25"/>
        <path id="Shape-11" data-name="Shape" d="M26.968,30.084a.518.518,0,0,1-.461-.752,9.738,9.738,0,0,0,1.064-4.455,9.839,9.839,0,0,0-15.742-7.871.518.518,0,0,1-.621-.829A10.877,10.877,0,0,1,27.431,29.8a.518.518,0,0,1-.463.283Z" transform="translate(-5.304 -6.752)" fill="#e57e25"/>
        <path id="Shape-12" data-name="Shape" d="M18.195,20.617l1.426,3.007a1.068,1.068,0,0,0,.8.607l3.164.477a1.137,1.137,0,0,1,.585,1.916l-2.27,2.3a1.158,1.158,0,0,0-.311,1l.539,3.262a1.075,1.075,0,0,1-1.534,1.186l-2.858-1.562a1.013,1.013,0,0,0-.977,0L13.9,34.372a1.075,1.075,0,0,1-1.534-1.186l.539-3.262a1.158,1.158,0,0,0-.311-1l-2.27-2.3a1.137,1.137,0,0,1,.585-1.916l3.164-.477a1.068,1.068,0,0,0,.8-.607l1.426-3a1.036,1.036,0,0,1,1.9,0Z" transform="translate(-4.818 -9.642)" fill="#f29c1f"/>
      </g>
    </g>
  </g>
</svg>
