<svg xmlns="http://www.w3.org/2000/svg" width="23.138" height="29.449" viewBox="0 0 23.138 29.449">
  <g id="Group_24265" data-name="Group 24265" transform="translate(8211.831 4422.896)">
    <g id="Group_24268" data-name="Group 24268">
      <path id="Path_6049" data-name="Path 6049" d="M22.88,10.414a3.155,3.155,0,0,1-3.155-3.155V2H8.155A3.155,3.155,0,0,0,5,5.155V28.294a3.155,3.155,0,0,0,3.155,3.155H24.983a3.155,3.155,0,0,0,3.155-3.155V10.414ZM13.414,7.259a3.155,3.155,0,1,1-3.155,3.155,3.155,3.155,0,0,1,3.155-3.155ZM9.207,17.776a3.155,3.155,0,0,1,3.155-3.155h2.1a3.155,3.155,0,0,1,3.155,3.155v2.1a1.052,1.052,0,0,1-1.052,1.052h-6.31A1.052,1.052,0,0,1,9.207,19.88ZM22.88,26.19H10.259a1.052,1.052,0,1,1,0-2.1H22.88a1.052,1.052,0,1,1,0,2.1Zm0-5.259h-2.1a1.052,1.052,0,0,1,0-2.1h2.1a1.052,1.052,0,0,1,0,2.1Zm0-5.259h-2.1a1.052,1.052,0,0,1,0-2.1h2.1a1.052,1.052,0,0,1,0,2.1Z" transform="translate(-8216.831 -4424.896)" fill="#2c6959"/>
      <path id="Path_6050" data-name="Path 6050" d="M22.052,8.28H26.7L21,2.58V7.229A1.052,1.052,0,0,0,22.052,8.28Z" transform="translate(-8216.003 -4424.867)" fill="#2c6959"/>
    </g>
  </g>
</svg>
