<svg xmlns="http://www.w3.org/2000/svg" width="29.17" height="29.17" viewBox="0 0 29.17 29.17">
  <g id="Group_24270" data-name="Group 24270" transform="translate(8208.833 3826.145)">
    <g id="store" transform="translate(-8208.833 -3826.145)">
      <path id="Path_6112" data-name="Path 6112" d="M14.317,28.082h.6a1.316,1.316,0,0,0,1.315-1.314V25.745H13v1.023a1.316,1.316,0,0,0,1.317,1.314Z" transform="translate(-8.679 -14.539)" fill="#2c6959"/>
      <path id="Path_6113" data-name="Path 6113" d="M38.328,28.082h.6a1.316,1.316,0,0,0,1.315-1.314V25.745h-3.23v1.023A1.316,1.316,0,0,0,38.328,28.082Z" transform="translate(-19.721 -14.539)" fill="#2c6959"/>
      <path id="Path_6114" data-name="Path 6114" d="M22.322,28.082h.6a1.316,1.316,0,0,0,1.314-1.314V25.745h-3.23v1.023A1.316,1.316,0,0,0,22.322,28.082Z" transform="translate(-12.36 -14.539)" fill="#2c6959"/>
      <path id="Path_6115" data-name="Path 6115" d="M30.325,28.082h.6a1.316,1.316,0,0,0,1.315-1.314V25.745H29.01v1.023A1.316,1.316,0,0,0,30.325,28.082Z" transform="translate(-16.04 -14.539)" fill="#2c6959"/>
      <path id="Path_6116" data-name="Path 6116" d="M31.979,11.4H7.536L5.375,18.07H34.14Z" transform="translate(-5.172 -7.944)" fill="#2c6959"/>
      <path id="Path_6117" data-name="Path 6117" d="M9.647,5H33.8V7.378H9.647Z" transform="translate(-7.137 -5)" fill="#2c6959"/>
      <path id="Path_6118" data-name="Path 6118" d="M46.333,28.082h.6a1.316,1.316,0,0,0,1.317-1.314V25.745H45.02v1.023A1.316,1.316,0,0,0,46.333,28.082Z" transform="translate(-23.402 -14.539)" fill="#2c6959"/>
      <path id="Path_6119" data-name="Path 6119" d="M33.117,30.393a2.381,2.381,0,0,1-1.861.906h-.6a2.381,2.381,0,0,1-1.861-.906,2.381,2.381,0,0,1-1.861.906h-.6a2.38,2.38,0,0,1-1.862-.906,2.381,2.381,0,0,1-1.861.906h-.6a2.381,2.381,0,0,1-1.86-.906,2.38,2.38,0,0,1-1.861.906h-.6a2.381,2.381,0,0,1-1.859-.906,2.381,2.381,0,0,1-1.861.906h-.6a2.381,2.381,0,0,1-1.861-.906,2.464,2.464,0,0,1-.577.523v14.93h2.688V34.078a.54.54,0,0,1,.54-.54h6.274a.54.54,0,0,1,.54.54V45.846H33.694V30.916a2.464,2.464,0,0,1-.577-.523Zm-2.111,9.889a.54.54,0,0,1-.54.54H24.192a.54.54,0,0,1-.54-.54V34.005a.54.54,0,0,1,.54-.54h6.274a.54.54,0,0,1,.54.54Z" transform="translate(-7.724 -16.676)" fill="#2c6959"/>
      <path id="Path_6120" data-name="Path 6120" d="M53.02,25.745v1.023a1.316,1.316,0,0,0,1.315,1.314h.6a1.316,1.316,0,0,0,1.315-1.314V25.745Z" transform="translate(-27.081 -14.539)" fill="#2c6959"/>
      <path id="Path_6121" data-name="Path 6121" d="M17.9,38.215h5.2V49.443H17.9Z" transform="translate(-10.93 -20.273)" fill="#2c6959"/>
      <path id="Path_6122" data-name="Path 6122" d="M8.23,25.745H5v1.023a1.316,1.316,0,0,0,1.315,1.314h.6A1.316,1.316,0,0,0,8.23,26.768Z" transform="translate(-5 -14.539)" fill="#2c6959"/>
      <path id="Path_6123" data-name="Path 6123" d="M36.486,38.08h5.2v5.2h-5.2Z" transform="translate(-19.478 -20.211)" fill="#2c6959"/>
    </g>
  </g>
</svg>
