<svg xmlns="http://www.w3.org/2000/svg" width="22.532" height="22.532" viewBox="0 0 22.532 22.532">
  <path id="Path_10848" data-name="Path 10848" d="M22.325,21.307l-5.818-5.725a9.2,9.2,0,0,0,2.459-6.253A9.406,9.406,0,0,0,9.486,0,9.4,9.4,0,0,0,.006,9.329a9.4,9.4,0,0,0,9.48,9.329,9.534,9.534,0,0,0,5.967-2.083l5.84,5.747a.737.737,0,0,0,1.031,0A.71.71,0,0,0,22.325,21.307ZM9.486,17.223A7.958,7.958,0,0,1,1.465,9.329,7.958,7.958,0,0,1,9.486,1.435a7.958,7.958,0,0,1,8.021,7.894A7.958,7.958,0,0,1,9.486,17.223Z" transform="translate(-0.006)" fill="#2c6959" opacity="0.75"/>
</svg>
