<svg id="send" xmlns="http://www.w3.org/2000/svg" width="22.923" height="22.923" viewBox="0 0 22.923 22.923">
  <g id="Group_6043" data-name="Group 6043" transform="translate(0 0)">
    <path id="Path_6085" data-name="Path 6085" d="M22.727.2A.672.672,0,0,0,22,.049L.423,8.681A.672.672,0,0,0,.379,9.909l8.51,4.127,4.127,8.51a.672.672,0,0,0,.6.379h.024a.672.672,0,0,0,.6-.422L22.876.922A.672.672,0,0,0,22.727.2ZM2.333,9.363,19.464,2.511,9.254,12.72ZM13.561,20.592,10.2,13.67,20.414,3.461Z" transform="translate(0 -0.001)"/>
  </g>
</svg>
