<svg xmlns="http://www.w3.org/2000/svg" width="22.235" height="25.547" viewBox="0 0 22.235 25.547">
  <path id="share" d="M18.053,17.184a4.172,4.172,0,0,0-3.092,1.369L8.077,14.29a4.165,4.165,0,0,0,0-3.032l6.884-4.264a4.181,4.181,0,1,0-.8-1.3L7.273,9.962a4.182,4.182,0,1,0,0,5.624l6.884,4.264a4.181,4.181,0,1,0,3.9-2.665Zm-2.657-13a2.657,2.657,0,1,1,2.657,2.657A2.66,2.66,0,0,1,15.4,4.182ZM4.181,15.431a2.657,2.657,0,1,1,2.657-2.657A2.66,2.66,0,0,1,4.181,15.431ZM15.4,21.366a2.657,2.657,0,1,1,2.657,2.657A2.66,2.66,0,0,1,15.4,21.366Zm0,0" transform="translate(0 0)"/>
</svg>
