<svg xmlns="http://www.w3.org/2000/svg" width="28.261" height="26.377" viewBox="0 0 28.261 26.377">
  <g id="Group_24264" data-name="Group 24264" transform="translate(8214.393 4347.999)">
    <g id="Group_24269" data-name="Group 24269">
      <path id="Path_6051" data-name="Path 6051" d="M10.42,8.594a3.768,3.768,0,1,0,3.768,3.768A3.772,3.772,0,0,0,10.42,8.594Zm-1.413,6.47V9.66l4.053,2.7ZM25.493,2H4.768A3.772,3.772,0,0,0,1,5.768V18.957a3.772,3.772,0,0,0,3.768,3.768H25.493a3.772,3.772,0,0,0,3.768-3.768V5.768A3.772,3.772,0,0,0,25.493,2ZM10.42,18.015a5.652,5.652,0,1,1,5.652-5.652A5.658,5.658,0,0,1,10.42,18.015Zm15.073-.942H17.957V15.188h7.536Zm0-3.768H17.957V11.42h7.536Zm0-3.768H17.957V7.652h7.536ZM17.957,26.493V24.609H12.3v1.884H8.536v1.884H21.725V26.493Z" transform="translate(-8215.393 -4349.999)" fill="#2c6959"/>
    </g>
  </g>
</svg>
