<svg xmlns="http://www.w3.org/2000/svg" width="38.146" height="37.501" viewBox="0 0 38.146 37.501">
  <g id="Group_24269" data-name="Group 24269" transform="translate(8211.655 3901.248)">
    <g id="technology" transform="translate(-8211.655 -3901.248)">
      <g id="Page-1_17_" transform="translate(0 0)">
        <g id="_x30_19---Technology-Engineering" transform="translate(0 0)">
          <path id="Shape_133_" d="M1.065,27.663l2.489.408a15.331,15.331,0,0,0,2.218,5.344L4.3,35.473a1.164,1.164,0,0,0,.013,1.4,17.048,17.048,0,0,0,1.183,1.3c.42.421.853.809,1.3,1.184a1.164,1.164,0,0,0,1.4.013l2.056-1.475a15.3,15.3,0,0,0,5.341,2.219l.407,2.491a1.152,1.152,0,0,0,1,.97c.354.04.711.065,1.076.083a.651.651,0,0,0,.683-.645V37.829a.65.65,0,0,0-.628-.647,12.294,12.294,0,0,1,0-24.556.65.65,0,0,0,.628-.647V6.8a.65.65,0,0,0-.681-.647q-.545.023-1.078.076a1.167,1.167,0,0,0-1,.978L15.587,9.7a15.317,15.317,0,0,0-5.341,2.22L8.19,10.446a1.164,1.164,0,0,0-1.4.013,17.2,17.2,0,0,0-1.3,1.184,14.925,14.925,0,0,0-1.183,1.3,1.164,1.164,0,0,0-.013,1.4L5.772,16.4a15.331,15.331,0,0,0-2.218,5.343l-2.489.407a1.153,1.153,0,0,0-.97,1,16.01,16.01,0,0,0,0,3.491,1.169,1.169,0,0,0,.97,1.025Z" transform="translate(0.001 -6.156)" fill="#2c6959"/>
          <path id="Shape_132_" d="M153.638,151.126a9.7,9.7,0,0,0,0,19.358.594.594,0,0,0,.618-.6V151.725a.594.594,0,0,0-.618-.6Z" transform="translate(-135.508 -142.054)" fill="#2c6959"/>
          <path id="Shape_131_" d="M323.522,35.117h-3.233V36.41h3.233a1.945,1.945,0,0,0,1.94-1.94v-4a1.94,1.94,0,1,0-1.293,0v4A.647.647,0,0,1,323.522,35.117Z" transform="translate(-300.247 -25.418)" fill="#2c6959"/>
          <path id="Shape_130_" d="M320.288,203.78h6.466a.647.647,0,1,0,0-1.293h-6.466Z" transform="translate(-300.246 -190.202)" fill="#2c6959"/>
          <path id="Shape_129_" d="M320.288,431.1h3.233a.647.647,0,0,1,.647.647v4a1.94,1.94,0,1,0,1.293,0v-4a1.945,1.945,0,0,0-1.94-1.94h-3.233V431.1Z" transform="translate(-300.246 -403.296)" fill="#2c6959"/>
          <path id="Shape_128_" d="M329.986,347.145h-9.7v1.293h9.7a.647.647,0,0,1,.647.647v3.352a1.94,1.94,0,1,0,1.293,0v-3.352A1.946,1.946,0,0,0,329.986,347.145Z" transform="translate(-300.246 -325.808)" fill="#2c6959"/>
          <path id="Shape_127_" d="M336.452,274.816a1.94,1.94,0,0,0-1.821,1.293H320.288V277.4h14.343a1.936,1.936,0,1,0,1.821-2.586Z" transform="translate(-300.246 -258.005)" fill="#2c6959"/>
          <path id="Shape_126_" d="M327.4,389.122a.647.647,0,0,0-.647-.647h-6.466v1.293h6.466A.646.646,0,0,0,327.4,389.122Z" transform="translate(-300.246 -364.551)" fill="#2c6959"/>
          <path id="Shape_125_" d="M331.925,126.818v-3.352a1.94,1.94,0,1,0-1.293,0v3.352a.647.647,0,0,1-.647.647h-9.7v1.293h9.7A1.946,1.946,0,0,0,331.925,126.818Z" transform="translate(-300.245 -112.593)" fill="#2c6959"/>
        </g>
      </g>
    </g>
  </g>
</svg>
