<svg xmlns="http://www.w3.org/2000/svg" xmlns:xlink="http://www.w3.org/1999/xlink" width="68" height="68" viewBox="0 0 68 68">
  <defs>
    <filter id="Ellipse_314" x="0" y="0" width="68" height="68" filterUnits="userSpaceOnUse">
      <feOffset dy="3" input="SourceAlpha"/>
      <feGaussianBlur stdDeviation="3" result="blur"/>
      <feFlood flood-opacity="0.161"/>
      <feComposite operator="in" in2="blur"/>
      <feComposite in="SourceGraphic"/>
    </filter>
  </defs>
  <g id="Group_24245" data-name="Group 24245" transform="translate(8098 6778)">
    <g id="Group_893" data-name="Group 893" transform="translate(-8089.361 -6772.016)">
      <g transform="matrix(1, 0, 0, 1, -8.64, -5.98)" filter="url(#Ellipse_314)">
        <g id="Ellipse_314-2" data-name="Ellipse 314" transform="translate(9 6)" fill="#fff" stroke="#707070" stroke-width="1">
          <circle cx="25" cy="25" r="25" stroke="none"/>
          <circle cx="25" cy="25" r="24.5" fill="none"/>
        </g>
      </g>
      <g id="twitter" transform="translate(0 0)">
        <circle id="Ellipse_316" data-name="Ellipse 316" cx="25" cy="25" r="25" transform="translate(0.361 0.016)" fill="#55acee"/>
        <g id="Group_892" data-name="Group 892" transform="translate(11.293 15.282)">
          <path id="Path_317" data-name="Path 317" d="M54.677,36.873a12.105,12.105,0,0,1-3.485.954,6.084,6.084,0,0,0,2.668-3.356,12.146,12.146,0,0,1-3.853,1.472,6.073,6.073,0,0,0-10.34,5.535,17.224,17.224,0,0,1-12.507-6.34,6.074,6.074,0,0,0,1.877,8.1,6.025,6.025,0,0,1-2.748-.76c0,.026,0,.052,0,.077a6.071,6.071,0,0,0,4.868,5.949,6.091,6.091,0,0,1-2.74.1,6.074,6.074,0,0,0,5.668,4.214A12.248,12.248,0,0,1,25.1,55.336a17.163,17.163,0,0,0,9.3,2.726c11.16,0,17.264-9.245,17.264-17.264,0-.263-.006-.525-.018-.785a12.3,12.3,0,0,0,3.028-3.14Z" transform="translate(-25.103 -34.028)" fill="#f1f2f2"/>
        </g>
      </g>
    </g>
  </g>
</svg>
