<svg xmlns="http://www.w3.org/2000/svg" width="33.76" height="21.518" viewBox="0 0 33.76 21.518">
  <g id="view" opacity="0.45">
    <g id="Group_4" data-name="Group 4" transform="translate(0 0)">
      <g id="Group_3" data-name="Group 3" transform="translate(0 0)">
        <path id="Path_4" data-name="Path 4" d="M33.546,102.937c-.3-.413-7.488-10.1-16.666-10.1S.516,102.525.214,102.937a1.114,1.114,0,0,0,0,1.314c.3.413,7.488,10.1,16.666,10.1s16.364-9.69,16.666-10.1A1.113,1.113,0,0,0,33.546,102.937Zm-16.666,9.19c-6.761,0-12.616-6.431-14.349-8.534,1.731-2.1,7.574-8.532,14.349-8.532s12.615,6.43,14.349,8.534C29.5,105.7,23.655,112.127,16.88,112.127Z" transform="translate(0 -92.835)"/>
      </g>
    </g>
    <g id="Group_6" data-name="Group 6" transform="translate(10.202 4.081)">
      <g id="Group_5" data-name="Group 5" transform="translate(0 0)">
        <path id="Path_5" data-name="Path 5" d="M161.4,154.725a6.678,6.678,0,1,0,6.678,6.678A6.686,6.686,0,0,0,161.4,154.725Zm0,11.13a4.452,4.452,0,1,1,4.452-4.452A4.457,4.457,0,0,1,161.4,165.855Z" transform="translate(-154.722 -154.725)"/>
      </g>
    </g>
  </g>
</svg>
