<svg xmlns="http://www.w3.org/2000/svg" width="36.624" height="37.016" viewBox="0 0 36.624 37.016">
  <g id="Group_24255" data-name="Group 24255" transform="translate(9405 5899.595)">
    <g id="workshop" transform="translate(-9407.712 -5899.595)">
      <path id="Path_6441" data-name="Path 6441" d="M220.228,104.243v-.814a.542.542,0,1,0-1.084,0v.814a.542.542,0,0,0,1.084,0Z" transform="translate(-200.785 -95.449)" fill="#232423"/>
      <path id="Path_6442" data-name="Path 6442" d="M279.356,104.785a.542.542,0,0,0,.542-.542v-.814a.542.542,0,1,0-1.084,0v.814A.542.542,0,0,0,279.356,104.785Z" transform="translate(-256.141 -95.449)" fill="#232423"/>
      <path id="Path_6443" data-name="Path 6443" d="M237.48,135.273a1.482,1.482,0,0,0,1.481-1.481.542.542,0,0,0-1.084,0,.4.4,0,1,1-.792,0,.542.542,0,0,0-1.084,0A1.482,1.482,0,0,0,237.48,135.273Z" transform="translate(-216.421 -123.617)" fill="#232423"/>
      <path id="Path_6444" data-name="Path 6444" d="M36.5,32.669A3.955,3.955,0,0,0,34.5,25.717V20.875a1.483,1.483,0,0,0-1.481-1.481H27.556v-.479a.542.542,0,0,0-1.084,0v.479H25.69v-3.03a.542.542,0,0,0-.542-.542V15.1a1.446,1.446,0,0,1,1.319,1.326.542.542,0,0,0,1.081-.081,2.535,2.535,0,0,0-2.519-2.336h-1.6v-.815a4.936,4.936,0,0,0,2.431-3.121,2.042,2.042,0,0,0,1.177-3.32.539.539,0,0,0,.033-.185V3.906A3.026,3.026,0,0,0,24,.882,3.037,3.037,0,0,0,21.863,0H15.586a.542.542,0,0,0-.542.542V4.579a2.521,2.521,0,0,0,.642,1.682,2.042,2.042,0,0,0,.568,3.812,4.936,4.936,0,0,0,2.431,3.121v.815H17.1a2.529,2.529,0,0,0-2.526,2.526v2.859H9.109a1.483,1.483,0,0,0-1.481,1.481v.855a.542.542,0,1,0,1.084,0v-.855a.4.4,0,0,1,.4-.4H33.021a.4.4,0,0,1,.4.4v4.839a3.965,3.965,0,0,0-3.406,4.266H25.131c.009-.1.015-.235.015-.344a3.958,3.958,0,1,0-7.916,0c0,.114.007.253.015.344H12.024a3.84,3.84,0,0,0,.006-.592,3.956,3.956,0,0,0-3.319-3.659V24.26a.542.542,0,1,0-1.084,0v1.445a3.955,3.955,0,0,0-2.083,6.966,3.975,3.975,0,0,0-2.832,3.8.542.542,0,0,0,.542.542h9.665a.542.542,0,0,0,.542-.542,3.975,3.975,0,0,0-2.84-3.8,3.974,3.974,0,0,0,1.15-1.6H17.5a3.974,3.974,0,0,0,1.153,1.606,3.975,3.975,0,0,0-2.832,3.8.542.542,0,0,0,.542.542h9.665a.542.542,0,0,0,.542-.542,3.975,3.975,0,0,0-2.84-3.8,3.975,3.975,0,0,0,1.15-1.6h5.387a3.974,3.974,0,0,0,1.153,1.606,3.975,3.975,0,0,0-2.832,3.8.542.542,0,0,0,.542.542h9.665a.542.542,0,0,0,.542-.542,3.976,3.976,0,0,0-2.84-3.8ZM23.364,15.093h.7v.728H23.049A2.356,2.356,0,0,0,23.364,15.093ZM25.989,3.906v2.12h-.135a4.956,4.956,0,0,0-.944-1.85,6.056,6.056,0,0,0-.149-2.069l0-.006A1.943,1.943,0,0,1,25.989,3.906ZM16.128,1.084h5.734a1.966,1.966,0,0,1,1.894,1.448h0A8.8,8.8,0,0,1,23.825,4.7,1.33,1.33,0,0,1,22.5,6.025H17.575a1.45,1.45,0,0,1-1.447-1.447V1.084Zm1.107,8.392a.542.542,0,0,0-.556-.452.958.958,0,1,1-.039-1.915.563.563,0,0,0,.332-.071,2.655,2.655,0,0,0,.6.073H22.5a2.422,2.422,0,0,0,2.14-1.3,3.86,3.86,0,0,1,.245.847.561.561,0,0,0,.626.453.958.958,0,1,1-.07,1.914.545.545,0,0,0-.556.452,3.864,3.864,0,0,1-3.823,3.232h0a3.865,3.865,0,0,1-3.823-3.232Zm3.823,4.317a5.067,5.067,0,0,0,1.289-.168v.908a1.289,1.289,0,0,1-2.577,0v-.908A5.059,5.059,0,0,0,21.058,13.793Zm-3.005,1.3h.7a2.361,2.361,0,0,0,.315.728H18.053v-.728Zm-2.394,1.441a1.443,1.443,0,0,1,1.31-1.435v.722a.542.542,0,0,0-.542.542v3.03h-.768Zm1.853,2.859V16.906h7.095v2.488ZM5.208,29.636a2.875,2.875,0,0,1,2.944-2.872h0a2.873,2.873,0,0,1,.1,5.74H7.911a2.877,2.877,0,0,1-2.7-2.868Zm4.285,3.952a2.889,2.889,0,0,1,2.833,2.342H3.848a2.889,2.889,0,0,1,2.833-2.342Zm11.7-6.826a2.873,2.873,0,0,1,.17,5.742h-.341a2.873,2.873,0,0,1,.17-5.742ZM22.6,33.589a2.889,2.889,0,0,1,2.833,2.342H16.954a2.889,2.889,0,0,1,2.833-2.342Zm14.23-3.952a2.877,2.877,0,0,1-2.7,2.868h-.341a2.877,2.877,0,0,1-2.676-2.478c0-.011,0-.023,0-.034a2.873,2.873,0,1,1,5.724-.356Zm-7.107,6.295a2.889,2.889,0,0,1,2.833-2.342h2.812A2.889,2.889,0,0,1,38.2,35.931Z" fill="#232423"/>
      <path id="Path_6445" data-name="Path 6445" d="M229.406,300.3a1.518,1.518,0,1,0,0-3.035h-1.3a1.518,1.518,0,1,0,0,3.035Zm-1.734-1.518a.434.434,0,0,1,.433-.433h1.3a.433.433,0,1,1,0,.866h-1.3A.434.434,0,0,1,227.672,298.78Z" transform="translate(-207.691 -275.771)" fill="#232423"/>
      <path id="Path_6446" data-name="Path 6446" d="M114.8,300.3h1.3a1.518,1.518,0,0,0,0-3.035h-1.3a1.518,1.518,0,1,0,0,3.035Zm0-1.951h1.3a.433.433,0,0,1,0,.866h-1.3a.433.433,0,1,1,0-.866Z" transform="translate(-102.572 -275.771)" fill="#232423"/>
      <path id="Path_6447" data-name="Path 6447" d="M342.716,300.3a1.518,1.518,0,0,0,0-3.035h-1.3a1.518,1.518,0,0,0,0,3.035Zm-1.734-1.518a.434.434,0,0,1,.433-.433h1.3a.433.433,0,1,1,0,.866h-1.3A.434.434,0,0,1,340.982,298.78Z" transform="translate(-312.809 -275.771)" fill="#232423"/>
    </g>
  </g>
</svg>
