<svg xmlns="http://www.w3.org/2000/svg" xmlns:xlink="http://www.w3.org/1999/xlink" width="144" height="144" viewBox="0 0 144 144">
  <defs>
    <clipPath id="clip-Artboard_20">
      <rect width="144" height="144"/>
    </clipPath>
  </defs>
  <g id="Artboard_20" data-name="Artboard – 20" clip-path="url(#clip-Artboard_20)">
    <rect width="144" height="144" fill="#fff"/>
    <g id="_57-Resume" data-name="57-Resume" transform="translate(35.053 25.249)">
      <path id="Path_6049" data-name="Path 6049" d="M61.434,28.557A9.959,9.959,0,0,1,51.475,18.6V2H14.959A9.959,9.959,0,0,0,5,11.959V84.991a9.959,9.959,0,0,0,9.959,9.959H68.073a9.959,9.959,0,0,0,9.959-9.959V28.557ZM31.557,18.6A9.959,9.959,0,1,1,21.6,28.557,9.959,9.959,0,0,1,31.557,18.6Zm-13.279,33.2a9.959,9.959,0,0,1,9.959-9.959h6.639a9.959,9.959,0,0,1,9.959,9.959v6.639a3.32,3.32,0,0,1-3.32,3.32H21.6a3.32,3.32,0,0,1-3.32-3.32ZM61.434,78.352H21.6a3.32,3.32,0,1,1,0-6.639H61.434a3.32,3.32,0,0,1,0,6.639Zm0-16.6H54.795a3.32,3.32,0,0,1,0-6.639h6.639a3.32,3.32,0,0,1,0,6.639Zm0-16.6H54.795a3.32,3.32,0,0,1,0-6.639h6.639a3.32,3.32,0,0,1,0,6.639Z" transform="translate(-5 -2)" fill="#2c6959"/>
      <path id="Path_6050" data-name="Path 6050" d="M24.32,20.573H38.993L21,2.58V17.253A3.32,3.32,0,0,0,24.32,20.573Z" transform="translate(32.114 -0.655)" fill="#2c6959"/>
    </g>
  </g>
</svg>
