<svg xmlns="http://www.w3.org/2000/svg" xmlns:xlink="http://www.w3.org/1999/xlink" width="144" height="144" viewBox="0 0 144 144">
  <defs>
    <clipPath id="clip-Artboard_6">
      <rect width="144" height="144"/>
    </clipPath>
  </defs>
  <g id="Artboard_6" data-name="Artboard – 6" clip-path="url(#clip-Artboard_6)">
    <rect width="144" height="144" fill="#fff"/>
    <path id="comm-17_chat" d="M24.038.529A23.483,23.483,0,0,0,.582,24.034L.529,56.52a23.382,23.382,0,0,0,21.764,23.34v20.3a1.689,1.689,0,0,0,2.886,1.194L46.448,80.029H78.393a23.465,23.465,0,0,0,23.452-23.505V24.038A23.426,23.426,0,0,0,78.446.529ZM34.3,35.218a5.066,5.066,0,1,1-5.066,5.066A5.089,5.089,0,0,1,34.3,35.218Zm16.883,0a5.066,5.066,0,1,1-5.066,5.066A5.092,5.092,0,0,1,51.187,35.218Zm16.889,0a5.066,5.066,0,1,1-5.069,5.066A5.092,5.092,0,0,1,68.077,35.218Z" transform="translate(20.812 20.811)" fill="#2c6959"/>
  </g>
</svg>
