<svg xmlns="http://www.w3.org/2000/svg" xmlns:xlink="http://www.w3.org/1999/xlink" width="144" height="144" viewBox="0 0 144 144">
  <defs>
    <filter id="Ellipse_313" x="4" y="7" width="136" height="136" filterUnits="userSpaceOnUse">
      <feOffset dy="3" input="SourceAlpha"/>
      <feGaussianBlur stdDeviation="3" result="blur"/>
      <feFlood flood-opacity="0.161"/>
      <feComposite operator="in" in2="blur"/>
      <feComposite in="SourceGraphic"/>
    </filter>
    <clipPath id="clip-Artboard_23">
      <rect width="144" height="144"/>
    </clipPath>
  </defs>
  <g id="Artboard_23" data-name="Artboard – 23" clip-path="url(#clip-Artboard_23)">
    <rect width="144" height="144" fill="#fff"/>
    <g id="Group_6" data-name="Group 6" transform="translate(13.141 12.996)">
      <g transform="matrix(1, 0, 0, 1, -13.14, -13)" filter="url(#Ellipse_313)">
        <circle id="Ellipse_313-2" data-name="Ellipse 313" cx="59" cy="59" r="59" transform="translate(13 13)" fill="#fff"/>
      </g>
      <g id="gmail" transform="translate(25.853 36.471)">
        <rect id="Rectangle_913" data-name="Rectangle 913" width="51.259" height="51.705" transform="translate(8.452 0)" fill="#eceff1"/>
        <path id="Path_315" data-name="Path 315" d="M256,168.393l25.634,20.243V148.672Z" transform="translate(-221.821 -137.149)" fill="#cfd8dc"/>
        <path id="Path_316" data-name="Path 316" d="M61.949,64H59.813L34.179,84.242,8.545,64H6.409A6.411,6.411,0,0,0,0,70.409V108.86a6.411,6.411,0,0,0,6.409,6.409H8.545V75.3L34.179,95.022,59.813,75.3v39.968h2.136a6.411,6.411,0,0,0,6.409-6.409V70.409A6.411,6.411,0,0,0,61.949,64Z" transform="translate(0 -63.782)" fill="#f44336"/>
      </g>
    </g>
  </g>
</svg>
