<svg xmlns="http://www.w3.org/2000/svg" xmlns:xlink="http://www.w3.org/1999/xlink" width="144" height="144" viewBox="0 0 144 144">
  <defs>
    <clipPath id="clip-Artboard_64">
      <rect width="144" height="144"/>
    </clipPath>
  </defs>
  <g id="Artboard_64" data-name="Artboard – 64" clip-path="url(#clip-Artboard_64)">
    <rect width="144" height="144" fill="#fff"/>
    <g id="comments" transform="translate(15.537 16.825)">
      <path id="Path_6516" data-name="Path 6516" d="M169.3,4H106.588A14.915,14.915,0,0,0,91.716,18.868v5.06h56.725A14.915,14.915,0,0,1,163.313,38.8V75.876H169.3A14.915,14.915,0,0,0,184.168,61V18.868A14.915,14.915,0,0,0,169.3,4Z" transform="translate(-71.541 -3.996)" fill="#6c7ed6"/>
      <path id="Path_6517" data-name="Path 6517" d="M158.752,91.515H96.044a14.746,14.746,0,0,0-4.328.648v.032h56.725a14.915,14.915,0,0,1,14.872,14.872v37.076H169.3a14.744,14.744,0,0,0,4.328-.648V106.387A14.915,14.915,0,0,0,158.752,91.515Z" transform="translate(-71.541 -72.263)" fill="#4f67d2"/>
      <path id="Path_6518" data-name="Path 6518" d="M77.58,91.515H14.872A14.915,14.915,0,0,0,0,106.387v42.136a14.915,14.915,0,0,0,14.872,14.872H52.508a2.508,2.508,0,0,1,2.449,3.072,63.008,63.008,0,0,1-4.783,13.349,2.286,2.286,0,0,0,3.252,2.96,83.9,83.9,0,0,0,20.511-17.668,4.7,4.7,0,0,1,3.643-1.714,14.915,14.915,0,0,0,14.872-14.872V106.386A14.915,14.915,0,0,0,77.58,91.515Z" transform="translate(0 -72.263)" fill="#60b8fe"/>
      <path id="Path_6519" data-name="Path 6519" d="M241.629,421.349a2.509,2.509,0,0,0-2.449-3.072h-9.631A2.508,2.508,0,0,1,232,421.349a63.005,63.005,0,0,1-4.783,13.349,2.286,2.286,0,0,0,3.252,2.96c2.173-1.345,4.7-3.039,7.371-5.083A62.782,62.782,0,0,0,241.629,421.349Z" transform="translate(-177.04 -327.146)" fill="#23a8fe"/>
      <path id="Path_6520" data-name="Path 6520" d="M9.631,148.523V106.387A14.915,14.915,0,0,1,24.5,91.515H14.872A14.915,14.915,0,0,0,0,106.387v42.136a14.915,14.915,0,0,0,14.872,14.872H24.5A14.915,14.915,0,0,1,9.631,148.523Z" transform="translate(0 -72.263)" fill="#23a8fe"/>
      <g id="Group_6929" data-name="Group 6929" transform="translate(15.68 51.467)">
        <ellipse id="Ellipse_367" data-name="Ellipse 367" cx="4.935" cy="4.935" rx="4.935" ry="4.935" fill="#dfebfa"/>
        <ellipse id="Ellipse_368" data-name="Ellipse 368" cx="4.935" cy="4.935" rx="4.935" ry="4.935" transform="translate(15.939)" fill="#dfebfa"/>
        <ellipse id="Ellipse_369" data-name="Ellipse 369" cx="4.935" cy="4.935" rx="4.935" ry="4.935" transform="translate(31.878)" fill="#dfebfa"/>
        <ellipse id="Ellipse_370" data-name="Ellipse 370" cx="4.935" cy="4.935" rx="4.935" ry="4.935" transform="translate(47.818)" fill="#dfebfa"/>
      </g>
      <path id="Path_6521" data-name="Path 6521" d="M76.215,242.9a4.932,4.932,0,0,1,2.467-4.273,4.935,4.935,0,1,0,0,8.546A4.931,4.931,0,0,1,76.215,242.9Z" transform="translate(-55.6 -186.496)" fill="#b1dbfc"/>
      <path id="Path_6522" data-name="Path 6522" d="M148.675,242.9a4.932,4.932,0,0,1,2.467-4.273,4.935,4.935,0,1,0,0,8.546A4.931,4.931,0,0,1,148.675,242.9Z" transform="translate(-112.121 -186.496)" fill="#b1dbfc"/>
      <path id="Path_6523" data-name="Path 6523" d="M221.134,242.9a4.932,4.932,0,0,1,2.467-4.273,4.935,4.935,0,1,0,0,8.546A4.932,4.932,0,0,1,221.134,242.9Z" transform="translate(-168.641 -186.496)" fill="#b1dbfc"/>
      <path id="Path_6524" data-name="Path 6524" d="M293.594,242.9a4.931,4.931,0,0,1,2.467-4.273,4.935,4.935,0,1,0,0,8.546A4.931,4.931,0,0,1,293.594,242.9Z" transform="translate(-225.161 -186.496)" fill="#b1dbfc"/>
    </g>
  </g>
</svg>
