<svg xmlns="http://www.w3.org/2000/svg" xmlns:xlink="http://www.w3.org/1999/xlink" width="144" height="144" viewBox="0 0 144 144">
  <defs>
    <clipPath id="clip-Artboard_18">
      <rect width="144" height="144"/>
    </clipPath>
  </defs>
  <g id="Artboard_18" data-name="Artboard – 18" clip-path="url(#clip-Artboard_18)">
    <rect width="144" height="144" fill="#fff"/>
    <g id="knowledge" transform="translate(3.692 -16.287)">
      <path id="Path_6381" data-name="Path 6381" d="M290.514,120.255a17.977,17.977,0,0,0,2.115-27.3A17,17,0,0,0,280.367,88,17.59,17.59,0,0,0,263.3,105.751a17.867,17.867,0,0,0,7.423,14.507.931.931,0,0,1,.37.763v2.312a5.193,5.193,0,0,0,.866,9.4v2.029a5.2,5.2,0,0,0,5.2,5.2h6.927a5.2,5.2,0,0,0,5.2-5.2v-2.03a5.193,5.193,0,0,0,.866-9.4v-2.311A.933.933,0,0,1,290.514,120.255ZM266.76,105.744a14.115,14.115,0,0,1,13.657-14.281l.2,0a13.572,13.572,0,0,1,9.583,3.962,14.514,14.514,0,0,1-1.7,22.013,4.4,4.4,0,0,0-1.826,3.585v1.612H274.553v-1.613a4.4,4.4,0,0,0-1.822-3.582A14.4,14.4,0,0,1,266.76,105.744Zm17.318,30.744h-6.927a1.734,1.734,0,0,1-1.732-1.732v-1.732H285.81v1.732A1.734,1.734,0,0,1,284.078,136.488Zm3.464-6.927H273.688a1.732,1.732,0,1,1,0-3.464h13.854a1.732,1.732,0,1,1,0,3.464Z" transform="translate(-193.762 -37.607)"/>
      <path id="Path_6382" data-name="Path 6382" d="M352.371,126.471a7.828,7.828,0,0,1,4.511,5.114,1.732,1.732,0,1,0,3.334-.938,11.318,11.318,0,0,0-6.534-7.382,1.732,1.732,0,1,0-1.311,3.206Z" transform="translate(-262.711 -65.139)"/>
      <path id="Path_6383" data-name="Path 6383" d="M338.764,45.2V41.732a1.732,1.732,0,0,0-3.464,0V45.2a1.732,1.732,0,0,0,3.464,0Z" transform="translate(-250.179 0)"/>
      <path id="Path_6384" data-name="Path 6384" d="M286.373,57.693a1.733,1.733,0,0,0,1.58-2.437l-1.409-3.164A1.732,1.732,0,1,0,283.38,53.5l1.409,3.164A1.732,1.732,0,0,0,286.373,57.693Z" transform="translate(-209.382 -8.669)"/>
      <path id="Path_6385" data-name="Path 6385" d="M244.48,88.133a1.732,1.732,0,0,0,1.159-3.019L243.065,82.8a1.732,1.732,0,1,0-2.318,2.575l2.574,2.316A1.725,1.725,0,0,0,244.48,88.133Z" transform="translate(-175.646 -33.184)"/>
      <path id="Path_6386" data-name="Path 6386" d="M220.235,131.782a1.732,1.732,0,0,0-1.112-2.182l-3.294-1.07a1.732,1.732,0,0,0-1.07,3.294l3.294,1.07a1.73,1.73,0,0,0,2.182-1.112Z" transform="translate(-154.794 -69.298)"/>
      <path id="Path_6387" data-name="Path 6387" d="M212.995,179.716l-3.445.362a1.732,1.732,0,1,0,.362,3.445l3.445-.362a1.732,1.732,0,0,0-.362-3.445Z" transform="translate(-150.436 -109.463)"/>
      <path id="Path_6388" data-name="Path 6388" d="M448.236,183.161l3.445.362a1.732,1.732,0,0,0,.362-3.445l-3.445-.362a1.732,1.732,0,0,0-.362,3.445Z" transform="translate(-337.452 -109.463)"/>
      <path id="Path_6389" data-name="Path 6389" d="M443.542,132.979a1.729,1.729,0,0,0,.536-.085l3.294-1.07a1.732,1.732,0,0,0-1.07-3.294l-3.294,1.07a1.732,1.732,0,0,0,.534,3.379Z" transform="translate(-333.632 -69.298)"/>
      <path id="Path_6390" data-name="Path 6390" d="M421.422,87.689,424,85.373a1.732,1.732,0,1,0-2.318-2.574L419.1,85.116a1.732,1.732,0,1,0,2.318,2.574Z" transform="translate(-315.393 -33.185)"/>
      <path id="Path_6391" data-name="Path 6391" d="M382.586,57.693a1.732,1.732,0,0,0,1.583-1.028l1.409-3.164a1.732,1.732,0,1,0-3.164-1.409L381,55.256a1.733,1.733,0,0,0,1.58,2.437Z" transform="translate(-285.873 -8.669)"/>
      <path id="Path_6392" data-name="Path 6392" d="M114.713,311.172H92.2v-1.732c0-2.6-3.384-4.494-4.421-5.013a1.749,1.749,0,0,0-.277-.11l-16.95-5.085c-1.073-.948-4.907-4.275-9.594-7.65-7.484-5.388-13.287-8.12-17.249-8.12H29.854v-1.732A1.732,1.732,0,0,0,28.123,280H17.732A1.732,1.732,0,0,0,16,281.732v38.1a1.732,1.732,0,0,0,1.732,1.732H28.123a1.732,1.732,0,0,0,1.732-1.732V318.1h5.115c1.08.144,9.918,1.888,17.73,3.431,15.626,3.085,17.833,3.5,18.321,3.5h43.693a5.2,5.2,0,0,0,5.2-5.2v-3.464a5.2,5.2,0,0,0-5.2-5.2ZM26.391,318.1H19.464V283.464h6.927Zm90.054,1.732a1.734,1.734,0,0,1-1.732,1.732H71.1c-1.08-.144-9.918-1.888-17.729-3.431-15.627-3.085-17.834-3.5-18.322-3.5h-5.2V286.927H43.709c6.553,0,20.137,10.93,24.819,15.142a1.734,1.734,0,0,0,.661.371l17.166,5.15a6.461,6.461,0,0,1,2.38,1.9V312.9a1.734,1.734,0,0,1-1.589,1.726L70.3,311.261l-11.879-6.788a1.732,1.732,0,1,0-1.718,3.007l12.123,6.927a1.732,1.732,0,0,0,.52.195l17.318,3.464a1.739,1.739,0,0,0,.34.033,5.2,5.2,0,0,0,4.9-3.464h22.81a1.734,1.734,0,0,1,1.732,1.732Z" transform="translate(0 -188.046)"/>
    </g>
  </g>
</svg>
