<svg xmlns="http://www.w3.org/2000/svg" xmlns:xlink="http://www.w3.org/1999/xlink" width="144" height="144" viewBox="0 0 144 144">
  <defs>
    <clipPath id="clip-Artboard_31">
      <rect width="144" height="144"/>
    </clipPath>
  </defs>
  <g id="Artboard_31" data-name="Artboard – 31" clip-path="url(#clip-Artboard_31)">
    <rect width="144" height="144" fill="#fff"/>
    <g id="coach_2_" data-name="coach (2)" transform="translate(2.853 21.602)">
      <g id="Group_12452" data-name="Group 12452" transform="translate(23.141 0)">
        <path id="Path_7269" data-name="Path 7269" d="M110.794,70.829a20.085,20.085,0,0,0-10.475-7.286L82.335,57.935a3.091,3.091,0,0,0-.991-.139,4.168,4.168,0,0,1-1.109-2.706V51.032A23.02,23.02,0,0,0,82.511,49.3a18.452,18.452,0,0,0,6.221-12.26,4.808,4.808,0,0,0,4.664-4.8V28.56A4.792,4.792,0,0,0,91.7,24.9V20.132a1.479,1.479,0,1,0-2.958,0v3.177c-.124-.042-.248-.081-.372-.122q-.282-.094-.564-.185-.368-.118-.737-.232c-.185-.057-.37-.115-.555-.17-.254-.076-.508-.149-.761-.221-.177-.051-.354-.1-.532-.151-.274-.076-.547-.148-.822-.22-.158-.041-.316-.084-.473-.125-.349-.089-.7-.173-1.048-.255l-.248-.06q-.648-.15-1.3-.285c-.131-.027-.262-.052-.394-.079-.3-.061-.606-.122-.909-.179-.168-.031-.335-.06-.5-.09-.267-.048-.534-.1-.8-.139-.181-.03-.361-.057-.542-.085-.256-.04-.511-.079-.767-.115-.185-.026-.371-.051-.557-.076q-.378-.05-.756-.1l-.562-.065q-.377-.042-.755-.079-.279-.027-.559-.053c-.256-.023-.511-.043-.767-.062-.182-.014-.364-.028-.546-.04-.266-.018-.532-.032-.8-.046-.171-.009-.342-.019-.513-.027-.293-.013-.586-.022-.879-.031-.144,0-.287-.01-.431-.014q-.654-.014-1.309-.015t-1.308.015c-.144,0-.288.009-.432.014-.292.009-.585.018-.877.031-.172.008-.344.018-.515.027-.265.014-.53.028-.8.046-.182.012-.364.026-.546.04-.255.019-.51.039-.766.062-.187.017-.374.035-.56.053q-.376.037-.753.078l-.564.065q-.376.045-.752.1c-.187.025-.373.05-.56.076-.255.036-.509.075-.764.115-.182.028-.363.056-.545.086-.266.044-.532.091-.8.138-.17.03-.339.059-.508.091-.3.056-.6.117-.9.177-.134.027-.268.052-.4.08q-.648.136-1.295.285l-.263.064c-.345.081-.689.164-1.033.252-.161.041-.323.085-.484.127-.27.071-.54.142-.81.216-.181.05-.361.1-.542.154-.25.072-.5.143-.75.218-.189.056-.377.115-.566.173q-.362.112-.724.228-.289.093-.576.189c-.122.04-.244.079-.365.12v-10.1a7.535,7.535,0,0,1,5.81-7.355l10.8-2.57a12.194,12.194,0,0,1,5.521-.023L82.867,5.9a7.525,7.525,0,0,1,5.871,7.369,1.479,1.479,0,0,0,2.958,0A10.469,10.469,0,0,0,83.528,3.019L72.017.38A15.173,15.173,0,0,0,65.15.408l-10.8,2.57a10.483,10.483,0,0,0-8.083,10.233V24.9a4.792,4.792,0,0,0-1.7,3.664v3.682a4.808,4.808,0,0,0,4.664,4.8A18.451,18.451,0,0,0,55.454,49.3a23.022,23.022,0,0,0,2.275,1.729v4.059A4.168,4.168,0,0,1,56.621,57.8a3.08,3.08,0,0,0-.991.139L37.646,63.543a20.231,20.231,0,0,0-14.505,19.4v1.1a1.479,1.479,0,0,0,2.958,0v-1.1a17.273,17.273,0,0,1,12.394-16.57l.022-.007,9.577-2.986,8,9.131a5.924,5.924,0,0,0,6.384,1.708l1.808-.616,2.548,5.38a6.181,6.181,0,0,0-2.129,1.37,6.371,6.371,0,0,0-1.9,4.518v9.032a2.157,2.157,0,0,0,2.154,2.154h3.706a2.157,2.157,0,0,0,2.154-2.154V90.671a6.176,6.176,0,0,0,.318-11.69l2.544-5.373,1.808.616a5.924,5.924,0,0,0,6.384-1.708l8-9.131,9.577,2.986.022.007a17.273,17.273,0,0,1,12.394,16.57V95.606a2.234,2.234,0,0,1-2.232,2.232h-7.42V83.674a1.479,1.479,0,1,0-2.958,0V97.837H38.709V83.674a1.479,1.479,0,1,0-2.958,0V97.837h-7.42A2.234,2.234,0,0,1,26.1,95.606V90.932a1.479,1.479,0,1,0-2.958,0v4.674a5.2,5.2,0,0,0,5.19,5.19h81.3a5.2,5.2,0,0,0,5.19-5.19V82.947A20.087,20.087,0,0,0,110.794,70.829ZM50.788,25.908c.121-.04.243-.077.365-.116.293-.094.586-.187.879-.277.156-.047.312-.092.468-.138.26-.077.521-.154.781-.227.17-.048.34-.093.51-.139.247-.067.494-.134.741-.2.178-.046.357-.09.535-.134.24-.06.479-.119.719-.175.183-.043.367-.084.55-.126q.353-.08.706-.156c.187-.04.373-.078.56-.116q.35-.071.7-.138.282-.054.565-.1.349-.063.7-.121l.567-.093q.349-.055.7-.105.283-.041.566-.08c.235-.032.469-.061.7-.09.187-.023.373-.046.56-.067.238-.027.476-.051.714-.074.183-.018.367-.037.55-.054.244-.022.488-.041.732-.059.177-.014.355-.029.532-.041.256-.017.511-.031.766-.044.166-.009.332-.02.5-.027.282-.013.565-.021.847-.03.139,0,.278-.01.418-.014q.632-.014,1.263-.015h0q.63,0,1.261.015c.14,0,.28.009.42.014.281.008.562.017.843.029.169.008.337.019.506.028.253.014.506.027.758.044.18.012.36.027.54.041.241.019.483.037.724.059.186.017.372.036.559.055.235.023.471.047.706.074.189.021.379.045.568.068.232.028.464.057.7.089.191.026.383.053.574.081q.345.05.689.1.288.045.575.094.344.058.688.12.288.052.575.106.344.066.688.136.286.058.571.118.347.074.694.153c.188.042.375.084.562.129.235.055.469.113.7.171.184.046.368.091.551.138.24.062.481.127.721.193.177.048.354.1.531.145.251.071.5.145.754.219.165.049.33.1.495.146.278.084.555.173.832.262.138.044.275.086.413.131q.577.189,1.153.39l.089.03.011,0-.38,1.413a1.956,1.956,0,0,1-.95,1.213,1.926,1.926,0,0,1-1.509.158q-1.034-.317-2.069-.6a55.509,55.509,0,0,0-31.16.6,1.925,1.925,0,0,1-1.508-.158,2,2,0,0,1-.328-.226,1.955,1.955,0,0,1-.622-.987l-.186-.69-.194-.722Q50.158,26.114,50.788,25.908Zm6.6,21.153a15.6,15.6,0,0,1-5.278-11.527,1.479,1.479,0,0,0-1.479-1.447H49.371a1.846,1.846,0,0,1-1.844-1.844V29.676l.014.023q.067.117.14.229l.05.075q.065.1.134.188l.045.061c.06.078.123.154.188.229l.046.05q.079.088.162.171l.066.066q.089.087.183.168l.041.037c.076.065.154.127.234.188l.065.047c.063.046.128.091.194.134l.072.047c.087.055.175.109.266.159l.012.006c.08.044.161.085.242.124l.085.039q.089.041.178.078l.095.038c.061.024.123.046.184.067l.084.029c.089.029.178.055.267.078l.033.008c.08.02.16.038.24.054l.092.017q.093.017.187.03l.1.013c.064.008.129.014.194.019l.087.007c.092.005.183.009.275.009h.037c.1,0,.193,0,.289-.011l.084-.006c.106-.009.213-.02.319-.036l.022,0c.1-.015.2-.035.3-.056l.089-.02c.1-.024.2-.05.3-.08l.015,0A55.065,55.065,0,0,1,61.1,30.141a52.136,52.136,0,0,1,18.725.536q2.458.517,4.907,1.269a4.856,4.856,0,0,0,3.808-.4c.09-.05.178-.1.264-.158l.075-.049q.1-.064.19-.132l.067-.049c.08-.06.158-.123.234-.188l.04-.036q.094-.082.184-.169l.065-.064q.084-.085.165-.174l.044-.048q.1-.112.189-.23l.044-.06q.069-.093.134-.189l.05-.075c.048-.074.095-.15.139-.227l.016-.025v2.566a1.846,1.846,0,0,1-1.844,1.844H87.337a1.479,1.479,0,0,0-1.479,1.447A15.6,15.6,0,0,1,80.58,47.06,19.569,19.569,0,0,1,78,48.943l-.015.008c-.137.083-.276.163-.414.243l-.13.075q-.219.123-.441.239l-.12.062a17.48,17.48,0,0,1-2.069.9l-.053.019q-.8.285-1.618.491L73.1,51c-.157.039-.314.074-.472.109l-.2.042c-.145.03-.29.059-.436.085-.091.016-.182.03-.273.045q-.3.049-.6.088c-.138.018-.275.035-.414.05-.1.01-.2.019-.3.028q-.223.019-.448.034l-.26.016c-.223.011-.447.019-.673.022h-.076c-.225,0-.449-.011-.673-.022l-.26-.016q-.225-.014-.448-.034c-.1-.009-.2-.018-.3-.028-.139-.015-.276-.032-.414-.05q-.3-.039-.6-.088c-.091-.015-.182-.029-.273-.045-.146-.026-.291-.055-.436-.085l-.2-.042c-.158-.034-.315-.07-.472-.109l-.046-.012Q64,50.778,63.2,50.493l-.053-.019a17.48,17.48,0,0,1-2.069-.9l-.12-.062q-.221-.116-.441-.239l-.13-.075c-.139-.079-.277-.159-.414-.243l-.015-.008A19.586,19.586,0,0,1,57.384,47.061Zm4.14,24.363a2.973,2.973,0,0,1-3.205-.857l-7.137-8.145,5.328-1.661a.133.133,0,0,1,.02,0,.136.136,0,0,1,.05,0l.008,0a.136.136,0,0,1,.04.021c.006,0,.012,0,.017.009h0l9.543,9.044ZM72.2,84.77a3.232,3.232,0,0,1-2.978,3.211,1.479,1.479,0,0,0-1.369,1.475V93.1h-2.1V84.875a3.394,3.394,0,0,1,1.017-2.406,3.141,3.141,0,0,1,2.269-.921A3.238,3.238,0,0,1,72.2,84.77ZM67.1,72.648l1.878-.64,1.878.64-1.878,3.965Zm1.878-4.24-9.7-9.193a7.121,7.121,0,0,0,1.405-4.124V52.669A20.011,20.011,0,0,0,64.7,54l.014,0q.44.1.886.171l.31.051c.146.023.293.045.44.065.2.027.4.05.6.071l.27.027q.37.034.744.056l.167.008c.278.014.556.024.836.027H69c.28,0,.559-.013.836-.027L70,54.44q.374-.021.744-.056l.27-.027q.3-.032.6-.071c.147-.02.294-.042.44-.065l.31-.051q.446-.076.886-.171l.014,0a20.011,20.011,0,0,0,4.012-1.326v2.421a7.121,7.121,0,0,0,1.405,4.124Zm10.664,2.158a2.972,2.972,0,0,1-3.205.858l-4.664-1.589,7.9-7.489,1.64-1.554.008,0a.139.139,0,0,1,.047-.025l.01,0a.136.136,0,0,1,.07,0l5.328,1.661Z" transform="translate(-23.141 0)"/>
      </g>
    </g>
  </g>
</svg>
