<svg xmlns="http://www.w3.org/2000/svg" xmlns:xlink="http://www.w3.org/1999/xlink" width="144" height="144" viewBox="0 0 144 144">
  <defs>
    <clipPath id="clip-Artboard_58">
      <rect width="144" height="144"/>
    </clipPath>
  </defs>
  <g id="Artboard_58" data-name="Artboard – 58" clip-path="url(#clip-Artboard_58)">
    <rect width="144" height="144" fill="#fff"/>
    <g id="user_4_" data-name="user (4)" transform="translate(32.284 24.155)">
      <path id="Path_6427" data-name="Path 6427" d="M109.92,45.774A22.147,22.147,0,0,0,126.1,39.069a22.148,22.148,0,0,0,6.7-16.182A22.148,22.148,0,0,0,126.1,6.7a22.882,22.882,0,0,0-32.365,0,22.146,22.146,0,0,0-6.705,16.182A22.147,22.147,0,0,0,93.737,39.07a22.153,22.153,0,0,0,16.182,6.7ZM97.675,10.642a17.313,17.313,0,0,1,24.489,0,16.547,16.547,0,0,1,5.074,12.244,16.546,16.546,0,0,1-5.074,12.245,17.311,17.311,0,0,1-24.489,0A16.543,16.543,0,0,1,92.6,22.887a16.545,16.545,0,0,1,5.075-12.244Zm0,0" transform="translate(-70.879 0)" fill="#2c6959"/>
      <path id="Path_6428" data-name="Path 6428" d="M79.088,274.485a56.542,56.542,0,0,0-.77-6,47.309,47.309,0,0,0-1.477-6.037,29.821,29.821,0,0,0-2.482-5.63,21.227,21.227,0,0,0-3.742-4.877,16.5,16.5,0,0,0-5.376-3.378,18.578,18.578,0,0,0-6.863-1.242c-.97,0-1.908.4-3.72,1.578-1.115.727-2.419,1.568-3.875,2.5A22.212,22.212,0,0,1,45.77,253.6a19.468,19.468,0,0,1-12.265,0,22.134,22.134,0,0,1-5.01-2.208c-1.442-.922-2.747-1.762-3.879-2.5-1.81-1.18-2.748-1.578-3.718-1.578a18.555,18.555,0,0,0-6.862,1.243,16.487,16.487,0,0,0-5.377,3.378,21.225,21.225,0,0,0-3.741,4.876,29.878,29.878,0,0,0-2.482,5.631A47.426,47.426,0,0,0,.96,268.481a56.15,56.15,0,0,0-.77,6.007C.064,276.3,0,278.19,0,280.1c0,4.96,1.577,8.976,4.686,11.937,3.071,2.922,7.134,4.4,12.076,4.4H62.518c4.941,0,9-1.482,12.075-4.4,3.11-2.959,4.687-6.976,4.687-11.938,0-1.915-.065-3.8-.192-5.613ZM70.753,288c-2.029,1.931-4.723,2.87-8.237,2.87H16.762c-3.514,0-6.208-.939-8.237-2.869-1.99-1.894-2.957-4.48-2.957-7.9,0-1.781.059-3.539.176-5.226a50.642,50.642,0,0,1,.7-5.408,41.83,41.83,0,0,1,1.3-5.322,24.321,24.321,0,0,1,2.02-4.578,15.732,15.732,0,0,1,2.75-3.6,10.944,10.944,0,0,1,3.576-2.224,12.815,12.815,0,0,1,4.385-.846c.2.1.542.3,1.1.668,1.145.746,2.464,1.6,3.923,2.529a27.586,27.586,0,0,0,6.294,2.812,25.036,25.036,0,0,0,15.691,0,27.629,27.629,0,0,0,6.3-2.814c1.493-.954,2.775-1.781,3.92-2.527.563-.366.91-.565,1.1-.669a12.823,12.823,0,0,1,4.387.846,10.96,10.96,0,0,1,3.576,2.224,15.688,15.688,0,0,1,2.75,3.6,24.239,24.239,0,0,1,2.021,4.577,41.717,41.717,0,0,1,1.3,5.322,51.059,51.059,0,0,1,.7,5.409h0c.118,1.681.178,3.439.178,5.224,0,3.424-.968,6.009-2.958,7.9Zm0,0" transform="translate(0 -201.415)" fill="#2c6959"/>
    </g>
  </g>
</svg>
