<svg xmlns="http://www.w3.org/2000/svg" xmlns:xlink="http://www.w3.org/1999/xlink" width="144" height="144" viewBox="0 0 144 144">
  <defs>
    <clipPath id="clip-Artboard_78">
      <rect width="144" height="144"/>
    </clipPath>
  </defs>
  <g id="Artboard_78" data-name="Artboard – 78" clip-path="url(#clip-Artboard_78)">
    <rect width="144" height="144" fill="#fff"/>
    <g id="menu" transform="translate(17 17)">
      <g id="Group_6932" data-name="Group 6932">
        <g id="Group_6931" data-name="Group 6931">
          <path id="Path_6528" data-name="Path 6528" d="M37.753,0H12.644A12.658,12.658,0,0,0,0,12.644v25.11A12.658,12.658,0,0,0,12.644,50.4h25.11A12.658,12.658,0,0,0,50.4,37.754V12.644A12.658,12.658,0,0,0,37.753,0Zm4.1,37.754a4.107,4.107,0,0,1-4.1,4.1H12.644a4.107,4.107,0,0,1-4.1-4.1V12.644a4.107,4.107,0,0,1,4.1-4.1h25.11a4.107,4.107,0,0,1,4.1,4.1Z" fill="#2c6959"/>
        </g>
      </g>
      <g id="Group_6934" data-name="Group 6934" transform="translate(58.939)">
        <g id="Group_6933" data-name="Group 6933">
          <path id="Path_6529" data-name="Path 6529" d="M313.584,0H288.813A12.827,12.827,0,0,0,276,12.813V37.585A12.827,12.827,0,0,0,288.813,50.4h24.771A12.827,12.827,0,0,0,326.4,37.585V12.813A12.827,12.827,0,0,0,313.584,0Zm4.271,37.585a4.276,4.276,0,0,1-4.271,4.271H288.813a4.276,4.276,0,0,1-4.271-4.271V12.813a4.276,4.276,0,0,1,4.271-4.271h24.771a4.276,4.276,0,0,1,4.271,4.271Z" transform="translate(-276)" fill="#2c6959"/>
        </g>
      </g>
      <g id="Group_6936" data-name="Group 6936" transform="translate(0 58.94)">
        <g id="Group_6935" data-name="Group 6935">
          <path id="Path_6530" data-name="Path 6530" d="M37.753,276H12.644A12.658,12.658,0,0,0,0,288.644v25.11A12.658,12.658,0,0,0,12.644,326.4h25.11A12.658,12.658,0,0,0,50.4,313.754v-25.11A12.658,12.658,0,0,0,37.753,276Zm4.1,37.754a4.107,4.107,0,0,1-4.1,4.1H12.644a4.107,4.107,0,0,1-4.1-4.1v-25.11a4.107,4.107,0,0,1,4.1-4.1h25.11a4.107,4.107,0,0,1,4.1,4.1Z" transform="translate(0 -276)" fill="#2c6959"/>
        </g>
      </g>
      <g id="Group_6938" data-name="Group 6938" transform="translate(58.939 58.94)">
        <g id="Group_6937" data-name="Group 6937">
          <path id="Path_6531" data-name="Path 6531" d="M313.584,276H288.813A12.827,12.827,0,0,0,276,288.813v24.772A12.827,12.827,0,0,0,288.813,326.4h24.771A12.827,12.827,0,0,0,326.4,313.585V288.813A12.827,12.827,0,0,0,313.584,276Zm4.271,37.585a4.276,4.276,0,0,1-4.271,4.271H288.813a4.276,4.276,0,0,1-4.271-4.271V288.813a4.276,4.276,0,0,1,4.271-4.271h24.771a4.276,4.276,0,0,1,4.271,4.271Z" transform="translate(-276 -276)" fill="#2c6959"/>
        </g>
      </g>
    </g>
  </g>
</svg>
