<svg xmlns="http://www.w3.org/2000/svg" xmlns:xlink="http://www.w3.org/1999/xlink" width="144" height="144" viewBox="0 0 144 144">
  <defs>
    <clipPath id="clip-Artboard_17">
      <rect width="144" height="144"/>
    </clipPath>
  </defs>
  <g id="Artboard_17" data-name="Artboard – 17" clip-path="url(#clip-Artboard_17)">
    <rect width="144" height="144" fill="#fff"/>
    <g id="XMLID_1_" transform="translate(21.225 4.864)">
      <g id="XMLID_1090_" transform="translate(0 20)">
        <path id="XMLID_1098_" d="M102.113,49.916a9.983,9.983,0,0,0-9.972-9.972H78.58V29.972A9.983,9.983,0,0,0,68.607,20h-35.1a9.983,9.983,0,0,0-9.972,9.972v9.972H9.972A9.983,9.983,0,0,0,0,49.916v54.248a9.983,9.983,0,0,0,9.972,9.972H92.141a9.983,9.983,0,0,0,9.972-9.972ZM33.506,23.989h35.1a5.993,5.993,0,0,1,5.863,4.787H27.643a5.993,5.993,0,0,1,5.863-4.787ZM9.972,43.933H42.107a1.994,1.994,0,1,0,0-3.989H27.523v-7.18H74.591v7.18H60.057a1.994,1.994,0,1,0,0,3.989H92.141a5.99,5.99,0,0,1,5.983,5.983V65.423L51.057,79.676,3.989,65.423V49.916A5.99,5.99,0,0,1,9.972,43.933Zm82.169,66.214H9.972a5.99,5.99,0,0,1-5.983-5.983V69.591l46.49,14.078a2,2,0,0,0,1.156,0l46.49-14.078v34.573A5.99,5.99,0,0,1,92.141,110.147Z" transform="translate(0 -20)"/>
        <path id="XMLID_1119_" d="M199.994,203.562h19.146a2,2,0,0,0,1.994-1.994v-9.573A1.994,1.994,0,0,0,219.141,190H199.994A1.994,1.994,0,0,0,198,191.994v9.573A1.994,1.994,0,0,0,199.994,203.562Zm1.994-9.573h15.157v5.584H201.989Z" transform="translate(-158.511 -156.095)"/>
        <path id="XMLID_1126_" d="M248.124,123.989a1.992,1.992,0,1,0-1.412-.584A2.009,2.009,0,0,0,248.124,123.989Z" transform="translate(-197.042 -100.056)"/>
      </g>
    </g>
  </g>
</svg>
