<svg xmlns="http://www.w3.org/2000/svg" xmlns:xlink="http://www.w3.org/1999/xlink" width="144" height="144" viewBox="0 0 144 144">
  <defs>
    <clipPath id="clip-Artboard_52">
      <rect width="144" height="144"/>
    </clipPath>
  </defs>
  <g id="Artboard_52" data-name="Artboard – 52" clip-path="url(#clip-Artboard_52)">
    <rect width="144" height="144" fill="#fff"/>
    <path id="share" d="M68.814,65.5a15.9,15.9,0,0,0-11.786,5.22L30.787,54.468a15.878,15.878,0,0,0,0-11.558L57.028,26.657a15.936,15.936,0,1,0-3.063-4.938L27.725,37.971a15.939,15.939,0,1,0,0,21.436l26.24,16.252A15.936,15.936,0,1,0,68.814,65.5ZM58.687,15.939A10.127,10.127,0,1,1,68.814,26.066,10.138,10.138,0,0,1,58.687,15.939ZM15.938,58.815A10.127,10.127,0,1,1,26.064,48.689,10.139,10.139,0,0,1,15.938,58.815ZM58.687,81.438A10.127,10.127,0,1,1,68.814,91.565,10.138,10.138,0,0,1,58.687,81.438Zm0,0" transform="translate(29.741 23.085)"/>
  </g>
</svg>
