<svg xmlns="http://www.w3.org/2000/svg" xmlns:xlink="http://www.w3.org/1999/xlink" width="144" height="144" viewBox="0 0 144 144">
  <defs>
    <clipPath id="clip-Artboard_65">
      <rect width="144" height="144"/>
    </clipPath>
  </defs>
  <g id="Artboard_65" data-name="Artboard – 65" clip-path="url(#clip-Artboard_65)">
    <rect width="144" height="144" fill="#fff"/>
    <g id="outlook" transform="translate(20.269 7.387)">
      <path id="Path_10843" data-name="Path 10843" d="M304.156,112.011H259.21a3.21,3.21,0,1,0,0,6.421H294.8l-19.725,15.339-14.145-9-3.442,5.419L273.542,140.4a3.213,3.213,0,0,0,3.692-.173l23.712-18.447v41.594H259.21a3.21,3.21,0,1,0,0,6.421h44.946a3.212,3.212,0,0,0,3.21-3.21V115.221A3.212,3.212,0,0,0,304.156,112.011Z" transform="translate(-204.633 -76.755)" fill="#1976d2"/>
      <path id="Path_10844" data-name="Path 10844" d="M56.626,16.732a3.155,3.155,0,0,0-2.639-.681L2.62,25.683A3.2,3.2,0,0,0,0,28.835V99.465a3.206,3.206,0,0,0,2.62,3.153l51.367,9.631a3.022,3.022,0,0,0,.591.058,3.211,3.211,0,0,0,3.21-3.21V19.2A3.2,3.2,0,0,0,56.626,16.732Z" transform="translate(0 0)" fill="#2196f3"/>
      <path id="Path_10845" data-name="Path 10845" d="M80.052,214.536C71.2,214.536,64,205.894,64,195.274s7.2-19.263,16.052-19.263S96.1,184.653,96.1,195.274,88.9,214.536,80.052,214.536Zm0-32.1c-5.31,0-9.631,5.759-9.631,12.842s4.321,12.842,9.631,12.842,9.631-5.76,9.631-12.842S85.362,182.432,80.052,182.432Z" transform="translate(-51.158 -127.913)" fill="#fafafa"/>
    </g>
  </g>
</svg>
