<svg xmlns="http://www.w3.org/2000/svg" xmlns:xlink="http://www.w3.org/1999/xlink" width="144" height="144" viewBox="0 0 144 144">
  <defs>
    <clipPath id="clip-Artboard_50">
      <rect width="144" height="144"/>
    </clipPath>
  </defs>
  <g id="Artboard_50" data-name="Artboard – 50" clip-path="url(#clip-Artboard_50)">
    <rect width="144" height="144" fill="#fff"/>
    <g id="like" transform="translate(19.257 24.953)">
      <path id="Path_6086" data-name="Path 6086" d="M96.15,64.512a11.788,11.788,0,0,0,2.758-7.878,12.1,12.1,0,0,0-2.58-6.826c1.29-3.215,1.786-8.275-2.52-12.2-3.155-2.877-8.513-4.167-15.935-3.81a62.275,62.275,0,0,0-9.763,1.25h-.02c-.992.179-2.044.4-3.115.635-.079-1.27.139-4.425,2.48-11.529C70.234,15.7,70.076,9.227,66.94,4.9,63.646.357,58.388,0,56.84,0a4.983,4.983,0,0,0-3.83,1.746c-2.2,2.56-1.945,7.283-1.667,9.465-2.619,7.025-9.962,24.249-16.173,29.031a2.124,2.124,0,0,0-.317.278,21.317,21.317,0,0,0-3.889,5.834,8.189,8.189,0,0,0-3.929-.992H14.93a8.261,8.261,0,0,0-8.255,8.255V85.864a8.261,8.261,0,0,0,8.255,8.255h12.1A8.238,8.238,0,0,0,31.8,92.611l4.663.556a199.8,199.8,0,0,0,26.452,1.449c2.361.179,4.584.278,6.648.278a44.523,44.523,0,0,0,9.227-.833c6.072-1.29,10.22-3.87,12.323-7.66a12.146,12.146,0,0,0,1.349-7.6,12.657,12.657,0,0,0,4.5-10.3A13.4,13.4,0,0,0,96.15,64.512ZM14.93,88.761a2.9,2.9,0,0,1-2.9-2.9V53.6a2.9,2.9,0,0,1,2.9-2.9h12.1a2.9,2.9,0,0,1,2.9,2.9V85.844a2.9,2.9,0,0,1-2.9,2.9H14.93ZM91.07,62.19a2.667,2.667,0,0,0-.357,3.235,8.256,8.256,0,0,1,.913,3.314c.139,2.6-1.111,4.9-3.731,6.866a2.7,2.7,0,0,0-.913,3.056,7.008,7.008,0,0,1-.536,5.12c-1.33,2.381-4.286,4.088-8.771,5.04a52.277,52.277,0,0,1-14.466.437h-.278a195.875,195.875,0,0,1-25.8-1.409h-.02l-2-.238a8.407,8.407,0,0,0,.179-1.746V53.6a8.394,8.394,0,0,0-.377-2.461A16.586,16.586,0,0,1,38.6,44.331c8.91-7.064,17.621-30.9,18-31.929a2.512,2.512,0,0,0,.119-1.33c-.337-2.222-.218-4.941.258-5.755A7.119,7.119,0,0,1,62.575,8c2.024,2.8,1.945,7.8-.238,14.426-3.334,10.1-3.612,15.419-.972,17.76a4.325,4.325,0,0,0,4.326.774c1.21-.278,2.361-.516,3.453-.695.079-.02.179-.04.258-.06,6.092-1.33,17.006-2.143,20.8,1.31,3.215,2.937.933,6.826.675,7.243a2.654,2.654,0,0,0,.476,3.453,7.517,7.517,0,0,1,2.2,4.624C93.63,58.6,92.8,60.4,91.07,62.19Z"/>
    </g>
  </g>
</svg>
