<svg xmlns="http://www.w3.org/2000/svg" xmlns:xlink="http://www.w3.org/1999/xlink" width="144" height="144" viewBox="0 0 144 144">
  <defs>
    <filter id="Ellipse_314" x="7" y="10" width="130" height="130" filterUnits="userSpaceOnUse">
      <feOffset dy="3" input="SourceAlpha"/>
      <feGaussianBlur stdDeviation="3" result="blur"/>
      <feFlood flood-opacity="0.161"/>
      <feComposite operator="in" in2="blur"/>
      <feComposite in="SourceGraphic"/>
    </filter>
    <clipPath id="clip-Artboard_24">
      <rect width="144" height="144"/>
    </clipPath>
  </defs>
  <g id="Artboard_24" data-name="Artboard – 24" clip-path="url(#clip-Artboard_24)">
    <rect width="144" height="144" fill="#fff"/>
    <g id="Group_7" data-name="Group 7" transform="translate(15.285 15.63)">
      <g transform="matrix(1, 0, 0, 1, -15.28, -15.63)" filter="url(#Ellipse_314)">
        <g id="Ellipse_314-2" data-name="Ellipse 314" transform="translate(16 16)" fill="#fff" stroke="#707070" stroke-width="1">
          <circle cx="56" cy="56" r="56" stroke="none"/>
          <circle cx="56" cy="56" r="55.5" fill="none"/>
        </g>
      </g>
      <g id="twitter" transform="translate(0.361 0.016)">
        <circle id="Ellipse_316" data-name="Ellipse 316" cx="56" cy="56" r="56" transform="translate(0.355 0.355)" fill="#55acee"/>
        <g id="Group_892" data-name="Group 892" transform="translate(24.644 34.413)">
          <path id="Path_317" data-name="Path 317" d="M91.769,40.442a27.288,27.288,0,0,1-7.856,2.151,13.715,13.715,0,0,0,6.015-7.565,27.38,27.38,0,0,1-8.685,3.318A13.689,13.689,0,0,0,57.935,50.823,38.826,38.826,0,0,1,29.743,36.53a13.692,13.692,0,0,0,4.232,18.261,13.581,13.581,0,0,1-6.195-1.713c0,.058,0,.116,0,.173a13.685,13.685,0,0,0,10.972,13.41,13.73,13.73,0,0,1-6.176.237,13.692,13.692,0,0,0,12.777,9.5A27.61,27.61,0,0,1,25.1,82.061a38.688,38.688,0,0,0,20.964,6.146c25.158,0,38.916-20.841,38.916-38.917,0-.593-.013-1.183-.04-1.769a27.737,27.737,0,0,0,6.826-7.079Z" transform="translate(-25.103 -34.028)" fill="#f1f2f2"/>
        </g>
      </g>
    </g>
  </g>
</svg>
