<svg xmlns="http://www.w3.org/2000/svg" xmlns:xlink="http://www.w3.org/1999/xlink" width="144" height="144" viewBox="0 0 144 144">
  <defs>
    <clipPath id="clip-Artboard_14">
      <rect width="144" height="144"/>
    </clipPath>
  </defs>
  <g id="Artboard_14" data-name="Artboard – 14" clip-path="url(#clip-Artboard_14)">
    <rect width="144" height="144" fill="#fff"/>
    <g id="Group_3" data-name="Group 3" transform="translate(-1696.355 -47.92)">
      <g id="Page-1" transform="translate(1729 71)">
        <g id="_035---Reward-Points" data-name="035---Reward-Points">
          <g id="Group_24146" data-name="Group 24146" transform="translate(3.302)">
            <path id="Shape" d="M24.651,13.208A1.651,1.651,0,0,1,23,11.557V1.651a1.651,1.651,0,0,1,3.3,0v9.906A1.651,1.651,0,0,1,24.651,13.208Z" transform="translate(11.672)" fill="#f0c419"/>
            <path id="Shape-2" data-name="Shape" d="M31.651,14.859A1.651,1.651,0,0,1,30,13.208V1.651a1.651,1.651,0,1,1,3.3,0V13.208A1.651,1.651,0,0,1,31.651,14.859Z" transform="translate(16.229)" fill="#f0c419"/>
            <path id="Shape-3" data-name="Shape" d="M38.651,15.906A1.651,1.651,0,0,1,37,14.255v-6.6a1.651,1.651,0,0,1,3.3,0v6.6A1.651,1.651,0,0,1,38.651,15.906Z" transform="translate(20.787 3.906)" fill="#f0c419"/>
            <path id="Shape-4" data-name="Shape" d="M38.651,6.6A1.651,1.651,0,0,1,37,4.953v-3.3a1.651,1.651,0,0,1,3.3,0v3.3A1.651,1.651,0,0,1,38.651,6.6Z" transform="translate(20.787)" fill="#f0c419"/>
            <path id="Shape-5" data-name="Shape" d="M45.651,44.625A1.651,1.651,0,0,1,44,42.974V6.651a1.651,1.651,0,1,1,3.3,0V42.974A1.651,1.651,0,0,1,45.651,44.625Z" transform="translate(25.344 3.255)" fill="#f0c419"/>
            <path id="Shape-6" data-name="Shape" d="M17.651,14.859A1.651,1.651,0,0,1,16,13.208V1.651a1.651,1.651,0,0,1,3.3,0V13.208A1.651,1.651,0,0,1,17.651,14.859Z" transform="translate(7.115)" fill="#f0c419"/>
            <path id="Shape-7" data-name="Shape" d="M10.651,15.906A1.651,1.651,0,0,1,9,14.255v-6.6a1.651,1.651,0,0,1,3.3,0v6.6A1.651,1.651,0,0,1,10.651,15.906Z" transform="translate(2.557 3.906)" fill="#f0c419"/>
            <path id="Shape-8" data-name="Shape" d="M10.651,6.6A1.651,1.651,0,0,1,9,4.953v-3.3a1.651,1.651,0,0,1,3.3,0v3.3A1.651,1.651,0,0,1,10.651,6.6Z" transform="translate(2.557)" fill="#f0c419"/>
            <path id="Shape-9" data-name="Shape" d="M3.651,44.625A1.651,1.651,0,0,1,2,42.974V6.651a1.651,1.651,0,1,1,3.3,0V42.974A1.651,1.651,0,0,1,3.651,44.625Z" transform="translate(-2 3.255)" fill="#f0c419"/>
          </g>
          <ellipse id="Oval" cx="39.5" cy="40" rx="39.5" ry="40" transform="translate(0.355 18.92)" fill="#f29c1f"/>
          <ellipse id="Oval-2" data-name="Oval" cx="33.5" cy="31.5" rx="33.5" ry="31.5" transform="translate(6.355 25.92)" fill="#f0c419"/>
          <path id="Shape-10" data-name="Shape" d="M37.672,76.2A34.71,34.71,0,0,1,3,41.529a34.306,34.306,0,0,1,3.7-15.6,1.651,1.651,0,1,1,2.947,1.486A31.04,31.04,0,0,0,6.3,41.529a31.37,31.37,0,0,0,50.192,25.1,1.651,1.651,0,1,1,1.981,2.642,34.383,34.383,0,0,1-20.8,6.934Z" transform="translate(1.953 16.258)" fill="#e57e25"/>
          <path id="Shape-11" data-name="Shape" d="M61.912,65.273a1.651,1.651,0,0,1-1.469-2.4,31.05,31.05,0,0,0,3.391-14.2,31.37,31.37,0,0,0-50.192-25.1,1.651,1.651,0,0,1-1.981-2.642A34.68,34.68,0,0,1,63.388,64.371a1.651,1.651,0,0,1-1.476.9Z" transform="translate(7.161 9.117)" fill="#e57e25"/>
          <path id="Shape-12" data-name="Shape" d="M36.146,21.973l4.547,9.586A3.4,3.4,0,0,0,43.239,33.5l10.088,1.522a3.624,3.624,0,0,1,1.864,6.109l-7.237,7.334a3.692,3.692,0,0,0-.991,3.185l1.717,10.4a3.428,3.428,0,0,1-4.892,3.781l-9.114-4.981a3.231,3.231,0,0,0-3.114,0l-9.114,4.981a3.428,3.428,0,0,1-4.892-3.781l1.717-10.4a3.692,3.692,0,0,0-.991-3.185l-7.237-7.334a3.624,3.624,0,0,1,1.864-6.109L23,33.5a3.4,3.4,0,0,0,2.549-1.937l4.547-9.576a3.3,3.3,0,0,1,6.053-.01Z" transform="translate(6.505 13.019)" fill="#f29c1f"/>
        </g>
      </g>
    </g>
  </g>
</svg>
