<svg xmlns="http://www.w3.org/2000/svg" xmlns:xlink="http://www.w3.org/1999/xlink" width="144" height="144" viewBox="0 0 144 144">
  <defs>
    <clipPath id="clip-Artboard_2">
      <rect width="144" height="144"/>
    </clipPath>
  </defs>
  <g id="Artboard_2" data-name="Artboard – 2" clip-path="url(#clip-Artboard_2)">
    <rect width="144" height="144" fill="#fff"/>
    <path id="people" d="M120.069,85.183a5.412,5.412,0,0,1-5.412,5.412H49.71A5.412,5.412,0,0,1,44.3,85.183,32.473,32.473,0,0,1,76.771,52.71H87.6A32.473,32.473,0,0,1,120.069,85.183ZM82.183,4a21.649,21.649,0,1,0,21.649,21.649A21.649,21.649,0,0,0,82.183,4ZM33.473,4A21.649,21.649,0,1,0,55.122,25.649,21.649,21.649,0,0,0,33.473,4Zm0,81.183A42.973,42.973,0,0,1,46.192,54.6,29.388,29.388,0,0,0,35.855,52.71H31.092A30.146,30.146,0,0,0,1,82.8v2.381A5.412,5.412,0,0,0,6.412,90.6H34.447a16.237,16.237,0,0,1-.974-5.412Z" transform="translate(11.113 24.264)" fill="#2c6959"/>
  </g>
</svg>
