<svg xmlns="http://www.w3.org/2000/svg" xmlns:xlink="http://www.w3.org/1999/xlink" width="144" height="144" viewBox="0 0 144 144">
  <defs>
    <clipPath id="clip-Artboard_38">
      <rect width="144" height="144"/>
    </clipPath>
  </defs>
  <g id="Artboard_38" data-name="Artboard – 38" clip-path="url(#clip-Artboard_38)">
    <rect width="144" height="144" fill="#fff"/>
    <g id="Group_9" data-name="Group 9" transform="translate(22.611 18.732)">
      <g id="Group_12458" data-name="Group 12458" transform="translate(0 4.017)">
        <g id="edit" transform="translate(0 0)">
          <path id="Path_7270" data-name="Path 7270" d="M90.92,91.135a2.453,2.453,0,0,0-2.453,2.453v21.783a7.368,7.368,0,0,1-7.36,7.36H12.267a7.368,7.368,0,0,1-7.36-7.36V51.439a7.369,7.369,0,0,1,7.36-7.36H34.05a2.453,2.453,0,0,0,0-4.907H12.267A12.281,12.281,0,0,0,0,51.439v63.934A12.281,12.281,0,0,0,12.267,127.64h68.84a12.281,12.281,0,0,0,12.267-12.267V93.589a2.453,2.453,0,0,0-2.453-2.453Zm0,0" transform="translate(0 -29.626)"/>
          <path id="Path_7271" data-name="Path 7271" d="M174.049,3.494a11.04,11.04,0,0,0-15.614,0l-43.77,43.77a2.453,2.453,0,0,0-.63,1.08l-5.756,20.78a2.453,2.453,0,0,0,3.019,3.02l20.78-5.757a2.453,2.453,0,0,0,1.08-.63l43.769-43.771a11.052,11.052,0,0,0,0-15.614ZM120.011,48.859l35.823-35.823,11.553,11.553L131.563,60.412ZM117.7,53.49l9.23,9.231-12.767,3.537Zm55.755-34.972-2.6,2.6L159.3,9.566l2.6-2.6a6.133,6.133,0,0,1,8.673,0l2.88,2.879A6.142,6.142,0,0,1,173.458,18.518Zm0,0" transform="translate(-81.647 -0.261)"/>
        </g>
      </g>
    </g>
  </g>
</svg>
