<svg xmlns="http://www.w3.org/2000/svg" xmlns:xlink="http://www.w3.org/1999/xlink" width="144" height="144" viewBox="0 0 144 144">
  <defs>
    <clipPath id="clip-Artboard_39">
      <rect width="144" height="144"/>
    </clipPath>
  </defs>
  <g id="Artboard_39" data-name="Artboard – 39" clip-path="url(#clip-Artboard_39)">
    <rect width="144" height="144" fill="#fff"/>
    <g id="calendar_4_" data-name="calendar (4)" transform="translate(23.916 23.93)">
      <path id="Path_7233" data-name="Path 7233" d="M77.408,7.48H73.83V3.86a3.746,3.746,0,1,0-7.491,0V7.48H29.59V3.86a3.746,3.746,0,0,0-7.491,0V7.48H18.521A18.542,18.542,0,0,0,0,26V77.479A18.542,18.542,0,0,0,18.521,96H77.408A18.542,18.542,0,0,0,95.929,77.479V26A18.542,18.542,0,0,0,77.408,7.48ZM18.521,14.971H22.1v7.3a3.746,3.746,0,0,0,7.491,0v-7.3H66.339v7.3a3.746,3.746,0,1,0,7.491,0v-7.3h3.578A11.042,11.042,0,0,1,88.438,26v3.578H7.491V26a11.042,11.042,0,0,1,11.03-11.03ZM77.408,88.509H18.521a11.042,11.042,0,0,1-11.03-11.03V37.07H88.438V77.479a11.042,11.042,0,0,1-11.03,11.03ZM33.273,51.8a3.745,3.745,0,0,1-3.746,3.746H22.161a3.746,3.746,0,0,1,0-7.491h7.366A3.746,3.746,0,0,1,33.273,51.8Zm44.24,0a3.745,3.745,0,0,1-3.746,3.746H66.4a3.746,3.746,0,0,1,0-7.491h7.366A3.746,3.746,0,0,1,77.513,51.8Zm-22.141,0a3.745,3.745,0,0,1-3.746,3.746H44.26a3.746,3.746,0,0,1,0-7.491h7.366A3.746,3.746,0,0,1,55.372,51.8Zm-22.1,22.1a3.745,3.745,0,0,1-3.746,3.746H22.161a3.746,3.746,0,1,1,0-7.491h7.366A3.746,3.746,0,0,1,33.273,73.9Zm44.24,0a3.745,3.745,0,0,1-3.746,3.746H66.4a3.746,3.746,0,0,1,0-7.491h7.366A3.746,3.746,0,0,1,77.513,73.9Zm-22.141,0a3.745,3.745,0,0,1-3.746,3.746H44.26a3.746,3.746,0,1,1,0-7.491h7.366A3.746,3.746,0,0,1,55.372,73.9Z" transform="translate(0 -0.114)" fill="#2c6959"/>
    </g>
  </g>
</svg>
