<svg xmlns="http://www.w3.org/2000/svg" xmlns:xlink="http://www.w3.org/1999/xlink" width="144" height="144" viewBox="0 0 144 144">
  <defs>
    <clipPath id="clip-Artboard_57">
      <rect width="144" height="144"/>
    </clipPath>
  </defs>
  <g id="Artboard_57" data-name="Artboard – 57" clip-path="url(#clip-Artboard_57)">
    <rect width="144" height="144" fill="#fff"/>
    <g id="checked-filled-list" transform="translate(20.734 17.692)">
      <path id="Path_6061" data-name="Path 6061" d="M52.953,68.16a20.378,20.378,0,0,1,11.36,3.469S81.137,54.632,82,54.2V5.03A5.2,5.2,0,0,0,76.714,0H7.774A4.749,4.749,0,0,0,3.091,5.03V99.2a4.531,4.531,0,0,0,4.683,4.769H40.9l-2.081-1.908a19.46,19.46,0,0,1-5.81-14.048,20.017,20.017,0,0,1,5.81-14.135A20.309,20.309,0,0,1,52.953,68.16ZM29.106,13.7a5.033,5.033,0,0,1,5.03-5.03H68.3a5.033,5.033,0,0,1,5.03,5.03v2.081a5.033,5.033,0,0,1-5.03,5.03H34.136a5.033,5.033,0,0,1-5.03-5.03Zm0,19.078a5.033,5.033,0,0,1,5.03-5.03H68.3a5.033,5.033,0,0,1,5.03,5.03V34.86a5.033,5.033,0,0,1-5.03,5.03H34.136a5.033,5.033,0,0,1-5.03-5.03ZM17.052,58.361a5.9,5.9,0,1,1,5.9-5.9A5.848,5.848,0,0,1,17.052,58.361Zm0-19.338a5.9,5.9,0,1,1,5.9-5.9A5.96,5.96,0,0,1,17.052,39.023Zm0-18.557a5.9,5.9,0,1,1,5.9-5.9A5.848,5.848,0,0,1,17.052,20.465ZM29.106,53.071V50.99a5.033,5.033,0,0,1,5.03-5.03H68.3a5.033,5.033,0,0,1,5.03,5.03v2.081A5.033,5.033,0,0,1,68.3,58.1H34.136A5.033,5.033,0,0,1,29.106,53.071Z" transform="translate(-3.091)" fill="#2c6959"/>
      <path id="Path_6062" data-name="Path 6062" d="M64.963,114.843a8.583,8.583,0,0,0,12.14,0l32.606-32.606a8.671,8.671,0,0,0,.347-12.054,8.514,8.514,0,0,0-12.314-.173L74.589,93.163a4.972,4.972,0,0,1-7.111,0l-3.035-3.035a8.585,8.585,0,0,0-12.14,12.14Z" transform="translate(-9.291 -8.961)" fill="#2c6959"/>
    </g>
  </g>
</svg>
