<svg xmlns="http://www.w3.org/2000/svg" xmlns:xlink="http://www.w3.org/1999/xlink" width="144" height="144" viewBox="0 0 144 144">
  <defs>
    <clipPath id="clip-Artboard_37">
      <rect width="144" height="144"/>
    </clipPath>
  </defs>
  <g id="Artboard_37" data-name="Artboard – 37" clip-path="url(#clip-Artboard_37)">
    <rect width="144" height="144" fill="#fff"/>
    <g id="store" transform="translate(20.754 20.754)">
      <path id="Path_6112" data-name="Path 6112" d="M17.654,34h2.121a4.651,4.651,0,0,0,4.647-4.645V25.745H13v3.614A4.652,4.652,0,0,0,17.654,34Z" transform="translate(2.273 13.859)" fill="#2c6959"/>
      <path id="Path_6113" data-name="Path 6113" d="M41.659,34h2.123a4.652,4.652,0,0,0,4.647-4.645V25.745H37.014v3.614A4.651,4.651,0,0,0,41.659,34Z" transform="translate(24.103 13.859)" fill="#2c6959"/>
      <path id="Path_6114" data-name="Path 6114" d="M25.654,34h2.123a4.651,4.651,0,0,0,4.645-4.645V25.745H21.007v3.614A4.652,4.652,0,0,0,25.654,34Z" transform="translate(9.551 13.859)" fill="#2c6959"/>
      <path id="Path_6115" data-name="Path 6115" d="M33.657,34H35.78a4.652,4.652,0,0,0,4.647-4.645V25.745H29.01v3.614A4.652,4.652,0,0,0,33.657,34Z" transform="translate(16.827 13.859)" fill="#2c6959"/>
      <path id="Path_6116" data-name="Path 6116" d="M99.4,11.4H13.011L5.375,34.965H107.033Z" transform="translate(-4.659 0.821)" fill="#2c6959"/>
      <path id="Path_6117" data-name="Path 6117" d="M9.647,5H94.992v8.406H9.647Z" transform="translate(-0.776 -5)" fill="#2c6959"/>
      <path id="Path_6118" data-name="Path 6118" d="M49.661,34h2.121a4.652,4.652,0,0,0,4.654-4.645V25.745H45.02v3.614A4.65,4.65,0,0,0,49.661,34Z" transform="translate(31.381 13.859)" fill="#2c6959"/>
      <path id="Path_6119" data-name="Path 6119" d="M89.356,30.393a8.413,8.413,0,0,1-6.579,3.2H80.657a8.413,8.413,0,0,1-6.579-3.2A8.415,8.415,0,0,1,67.5,33.6H65.376a8.411,8.411,0,0,1-6.581-3.2,8.413,8.413,0,0,1-6.579,3.2H50.1a8.413,8.413,0,0,1-6.575-3.2,8.411,8.411,0,0,1-6.577,3.2H34.82a8.415,8.415,0,0,1-6.569-3.2,8.413,8.413,0,0,1-6.579,3.2H19.542a8.413,8.413,0,0,1-6.579-3.2,8.709,8.709,0,0,1-2.039,1.85V85.006h9.5V43.417a1.909,1.909,0,0,1,1.909-1.909H44.5a1.909,1.909,0,0,1,1.909,1.909V85.006H91.4V32.243a8.709,8.709,0,0,1-2.039-1.85ZM81.9,65.343a1.909,1.909,0,0,1-1.909,1.909H57.815a1.909,1.909,0,0,1-1.909-1.909V43.159a1.909,1.909,0,0,1,1.909-1.909H79.986A1.909,1.909,0,0,1,81.9,43.159Z" transform="translate(0.385 18.084)" fill="#2c6959"/>
      <path id="Path_6120" data-name="Path 6120" d="M53.02,25.745v3.614A4.652,4.652,0,0,0,57.667,34H59.79a4.652,4.652,0,0,0,4.647-4.645V25.745Z" transform="translate(38.654 13.859)" fill="#2c6959"/>
      <path id="Path_6121" data-name="Path 6121" d="M17.9,38.215H36.259V77.9H17.9Z" transform="translate(6.723 25.195)" fill="#2c6959"/>
      <path id="Path_6122" data-name="Path 6122" d="M16.416,25.745H5v3.614A4.652,4.652,0,0,0,9.647,34H11.77a4.652,4.652,0,0,0,4.647-4.645Z" transform="translate(-5 13.859)" fill="#2c6959"/>
      <path id="Path_6123" data-name="Path 6123" d="M36.486,38.08H54.849V56.442H36.486Z" transform="translate(23.623 25.072)" fill="#2c6959"/>
    </g>
  </g>
</svg>
