<svg xmlns="http://www.w3.org/2000/svg" xmlns:xlink="http://www.w3.org/1999/xlink" width="144" height="144" viewBox="0 0 144 144">
  <defs>
    <clipPath id="clip-Artboard_83">
      <rect width="144" height="144"/>
    </clipPath>
  </defs>
  <g id="Artboard_83" data-name="Artboard – 83" clip-path="url(#clip-Artboard_83)">
    <rect width="144" height="144" fill="#fff"/>
    <g id="Group_21" data-name="Group 21" transform="translate(2564.728 -15917.791)">
      <g id="cad" transform="translate(-2540.728 15934.791)">
        <path id="Path_10699" data-name="Path 10699" d="M102.882,0A6.9,6.9,0,0,0,96,6.882v96.355a6.9,6.9,0,0,0,6.882,6.882h68.825a6.9,6.9,0,0,0,6.882-6.882V27.53L151.06,0Z" transform="translate(-82.235)" fill="#e2e5e7"/>
        <path id="Path_10700" data-name="Path 10700" d="M358.883,27.53H379.53L352,0V20.647A6.9,6.9,0,0,0,358.883,27.53Z" transform="translate(-283.175)" fill="#b0b7bd"/>
        <path id="Path_10701" data-name="Path 10701" d="M404.647,148.647,384,128h20.647Z" transform="translate(-308.293 -100.47)" fill="#cad1d8"/>
        <path id="Path_10702" data-name="Path 10702" d="M114.59,277.854a3.451,3.451,0,0,1-3.441,3.441H35.441A3.451,3.451,0,0,1,32,277.854V243.441A3.451,3.451,0,0,1,35.441,240h75.707a3.451,3.451,0,0,1,3.441,3.441Z" transform="translate(-32 -188.381)" fill="#50bee8"/>
        <path id="Path_10706" data-name="Path 10706" d="M161.383,419.441H96v3.441h65.383a3.451,3.451,0,0,0,3.441-3.441V416A3.451,3.451,0,0,1,161.383,419.441Z" transform="translate(-82.235 -326.528)" fill="#cad1d8"/>
      </g>
      <text id="Txt" transform="translate(-2500 16014.004)" fill="#fff" font-size="24" font-family="Poppins-Regular, Poppins"><tspan x="-16.608" y="0">Txt</tspan></text>
    </g>
  </g>
</svg>
