<svg xmlns="http://www.w3.org/2000/svg" xmlns:xlink="http://www.w3.org/1999/xlink" width="144" height="144" viewBox="0 0 144 144">
  <defs>
    <clipPath id="clip-Artboard_55">
      <rect width="144" height="144"/>
    </clipPath>
  </defs>
  <g id="Artboard_55" data-name="Artboard – 55" clip-path="url(#clip-Artboard_55)">
    <rect width="144" height="144" fill="#fff"/>
    <path id="Path_1" data-name="Path 1" d="M89.057,73.842c0,5.61-3.988,11.73-8.907,11.73s-8.907-6.111-8.907-11.73,3.988-8.586,8.907-8.586S89.057,68.232,89.057,73.842Zm-81.564,0c0,5.61,3.988,11.73,8.907,11.73s8.907-6.111,8.907-11.73-3.988-8.586-8.907-8.586S7.493,68.232,7.493,73.842Zm31.878,0c0,5.61,3.985,11.73,8.9,11.73s8.907-6.111,8.907-11.73-3.988-8.586-8.907-8.586S39.371,68.232,39.371,73.842Zm54.435,15.55a3.932,3.932,0,0,0-2.779-1.154H69.267a3.915,3.915,0,0,0-3.916,3.916l-.006,10.472H94.809l.124-10.437A3.906,3.906,0,0,0,93.805,89.392ZM27.28,88.238H5.524a3.913,3.913,0,0,0-3.916,3.916v10.472h29.46l.124-10.437A3.933,3.933,0,0,0,30.056,89.4,3.877,3.877,0,0,0,27.28,88.238Zm31.875,0H37.4a3.913,3.913,0,0,0-3.916,3.916l-.006,10.472H62.937l.124-10.437A3.927,3.927,0,0,0,61.931,89.4,3.887,3.887,0,0,0,59.154,88.238ZM91.59,9.974V49.241a9.967,9.967,0,0,1-9.968,9.968H35.984V32.326l5.758,7.808a3.09,3.09,0,0,0,4.075.818l6.874-4.124a3.092,3.092,0,1,0-3.181-5.3L45.047,34.2,39.5,26.672a3.105,3.105,0,0,0-2.49-1.261H30.345l-1.163,1.553,2.14,12.12-2.9,2.73-2.9-2.73,2.14-12.12L26.5,25.411H19.83A3.092,3.092,0,0,0,16.739,28.5V48.6a3.078,3.078,0,0,0,4.121,2.9v7.7H14.928A9.967,9.967,0,0,1,4.96,49.238V9.968A9.967,9.967,0,0,1,14.928,0H81.622A9.971,9.971,0,0,1,91.59,9.974ZM35.458,14.046c0-4.433-3.152-6.784-7.039-6.784s-7.033,2.351-7.033,6.784,3.149,9.269,7.033,9.269S35.458,18.479,35.458,14.046Z" transform="translate(23.298 20.409)" fill="#2c6959"/>
  </g>
</svg>
