<svg xmlns="http://www.w3.org/2000/svg" xmlns:xlink="http://www.w3.org/1999/xlink" width="144" height="144" viewBox="0 0 144 144">
  <defs>
    <clipPath id="clip-Artboard_15">
      <rect width="144" height="144"/>
    </clipPath>
  </defs>
  <g id="Artboard_15" data-name="Artboard – 15" clip-path="url(#clip-Artboard_15)">
    <rect width="144" height="144" fill="#fff"/>
    <g id="workshop" transform="translate(18.257 19.616)">
      <path id="Path_6441" data-name="Path 6441" d="M222.185,106.689v-2.282a1.52,1.52,0,0,0-3.041,0v2.282a1.52,1.52,0,0,0,3.041,0Z" transform="translate(-172.561 -82.032)" fill="#232423"/>
      <path id="Path_6442" data-name="Path 6442" d="M280.334,108.209a1.52,1.52,0,0,0,1.52-1.52v-2.282a1.52,1.52,0,1,0-3.041,0v2.282A1.52,1.52,0,0,0,280.334,108.209Z" transform="translate(-220.135 -82.032)" fill="#232423"/>
      <path id="Path_6443" data-name="Path 6443" d="M240.15,138.922a4.156,4.156,0,0,0,4.152-4.152,1.52,1.52,0,0,0-3.041,0,1.111,1.111,0,1,1-2.222,0,1.52,1.52,0,0,0-3.041,0A4.156,4.156,0,0,0,240.15,138.922Z" transform="translate(-185.999 -106.24)" fill="#232423"/>
      <path id="Path_6444" data-name="Path 6444" d="M97.433,91.6a11.089,11.089,0,0,0-5.586-19.491V58.53a4.158,4.158,0,0,0-4.154-4.154H72.37V53.033a1.52,1.52,0,0,0-3.041,0v1.342H67.138v-8.5a1.52,1.52,0,0,0-1.519-1.52V42.334a4.055,4.055,0,0,1,3.7,3.719,1.52,1.52,0,0,0,3.032-.226,7.108,7.108,0,0,0-7.062-6.55H60.805V36.992a13.839,13.839,0,0,0,6.817-8.75,5.724,5.724,0,0,0,3.3-9.309,1.511,1.511,0,0,0,.093-.519V10.95a8.483,8.483,0,0,0-8.606-8.478,8.515,8.515,0,0,0-6-2.472h-17.6a1.52,1.52,0,0,0-1.52,1.52V12.837a7.068,7.068,0,0,0,1.8,4.717A5.726,5.726,0,0,0,40.68,28.242a13.84,13.84,0,0,0,6.817,8.75v2.285H43.053a7.09,7.09,0,0,0-7.082,7.082v8.017H20.647a4.158,4.158,0,0,0-4.154,4.154v2.4a1.52,1.52,0,1,0,3.041,0v-2.4a1.114,1.114,0,0,1,1.113-1.113H87.693a1.114,1.114,0,0,1,1.113,1.113V72.1a11.117,11.117,0,0,0-9.55,11.96H65.569c.025-.285.042-.66.042-.964a11.1,11.1,0,1,0-22.195,0c0,.32.02.709.042.964H28.822a10.765,10.765,0,0,0,.018-1.66,11.091,11.091,0,0,0-9.305-10.259V68.021a1.52,1.52,0,1,0-3.041,0v4.051A11.09,11.09,0,0,0,10.652,91.6a11.146,11.146,0,0,0-7.94,10.661,1.52,1.52,0,0,0,1.52,1.52h27.1a1.52,1.52,0,0,0,1.52-1.52A11.146,11.146,0,0,0,24.888,91.6a11.143,11.143,0,0,0,3.225-4.5H44.168A11.142,11.142,0,0,0,47.4,91.6a11.146,11.146,0,0,0-7.941,10.661,1.52,1.52,0,0,0,1.52,1.52h27.1a1.52,1.52,0,0,0,1.52-1.52A11.146,11.146,0,0,0,61.636,91.6a11.145,11.145,0,0,0,3.225-4.5h15.1A11.142,11.142,0,0,0,83.2,91.6a11.146,11.146,0,0,0-7.94,10.661,1.52,1.52,0,0,0,1.52,1.52h27.1a1.52,1.52,0,0,0,1.52-1.52A11.147,11.147,0,0,0,97.433,91.6ZM60.616,42.317h1.962V44.36H59.734A6.606,6.606,0,0,0,60.616,42.317ZM67.975,10.95v5.944H67.6a13.9,13.9,0,0,0-2.646-5.187c0-3.266.1-4.2-.419-5.8l-.005-.017A5.446,5.446,0,0,1,67.975,10.95ZM40.328,3.041H56.406A5.512,5.512,0,0,1,61.716,7.1v0c.253.933.192,1.15.192,6.064a3.729,3.729,0,0,1-3.725,3.725h-13.8a4.064,4.064,0,0,1-4.057-4.057v-9.8Zm3.1,23.529a1.52,1.52,0,0,0-1.56-1.268,2.686,2.686,0,1,1-.11-5.371,1.579,1.579,0,0,0,.931-.2,7.445,7.445,0,0,0,1.693.2h13.8a6.792,6.792,0,0,0,6-3.643,10.822,10.822,0,0,1,.686,2.374,1.573,1.573,0,0,0,1.756,1.269,2.685,2.685,0,1,1-.2,5.366,1.527,1.527,0,0,0-1.56,1.268,10.833,10.833,0,0,1-10.718,9.062h0a10.837,10.837,0,0,1-10.72-9.062Zm10.719,12.1a14.207,14.207,0,0,0,3.613-.472v2.547a3.613,3.613,0,0,1-7.227,0V38.2A14.183,14.183,0,0,0,54.151,38.672Zm-8.427,3.646h1.962a6.62,6.62,0,0,0,.882,2.042H45.724V42.317Zm-6.713,4.041a4.045,4.045,0,0,1,3.673-4.022V44.36a1.52,1.52,0,0,0-1.519,1.52v8.5H39.011Zm5.194,8.017V47.4H64.1v6.975ZM9.71,83.094a8.061,8.061,0,0,1,8.255-8.052h.011a8.055,8.055,0,0,1,.268,16.092h-.955A8.066,8.066,0,0,1,9.71,83.094ZM21.723,94.176a8.1,8.1,0,0,1,7.944,6.567H5.9a8.1,8.1,0,0,1,7.944-6.567ZM54.514,75.037a8.056,8.056,0,0,1,.477,16.1h-.955a8.056,8.056,0,0,1,.477-16.1Zm3.957,19.139a8.1,8.1,0,0,1,7.944,6.567H42.644a8.1,8.1,0,0,1,7.944-6.567Zm39.9-11.082a8.066,8.066,0,0,1-7.579,8.041h-.955a8.067,8.067,0,0,1-7.5-6.948c0-.032-.008-.064-.012-.1a8.056,8.056,0,1,1,16.049-1ZM78.441,100.743a8.1,8.1,0,0,1,7.944-6.567h7.883a8.1,8.1,0,0,1,7.944,6.567Z" fill="#232423"/>
      <path id="Path_6445" data-name="Path 6445" d="M234.489,305.772a4.255,4.255,0,1,0,0-8.51h-3.646a4.255,4.255,0,1,0,0,8.51Zm-4.86-4.255a1.216,1.216,0,0,1,1.214-1.215h3.646a1.214,1.214,0,1,1,0,2.429h-3.646A1.216,1.216,0,0,1,229.629,301.517Z" transform="translate(-178.496 -237.006)" fill="#232423"/>
      <path id="Path_6446" data-name="Path 6446" d="M117.533,305.772h3.646a4.255,4.255,0,0,0,0-8.51h-3.646a4.255,4.255,0,1,0,0,8.51Zm0-5.469h3.646a1.214,1.214,0,0,1,0,2.429h-3.646a1.214,1.214,0,1,1,0-2.429Z" transform="translate(-88.154 -237.006)" fill="#232423"/>
      <path id="Path_6447" data-name="Path 6447" d="M347.8,305.772a4.255,4.255,0,0,0,0-8.51h-3.646a4.255,4.255,0,0,0,0,8.51Zm-4.861-4.255a1.216,1.216,0,0,1,1.214-1.215H347.8a1.214,1.214,0,0,1,0,2.429h-3.646A1.216,1.216,0,0,1,342.938,301.517Z" transform="translate(-268.838 -237.006)" fill="#232423"/>
    </g>
  </g>
</svg>
