<svg xmlns="http://www.w3.org/2000/svg" xmlns:xlink="http://www.w3.org/1999/xlink" width="144" height="144" viewBox="0 0 144 144">
  <defs>
    <clipPath id="clip-Artboard_86">
      <rect width="144" height="144"/>
    </clipPath>
  </defs>
  <g id="Artboard_86" data-name="Artboard – 86" clip-path="url(#clip-Artboard_86)">
    <rect width="144" height="144" fill="#fff"/>
    <g id="teaching_1_" data-name="teaching (1)" transform="translate(10.229 14.66)">
      <path id="Path_6355" data-name="Path 6355" d="M114.761,6.47H71.046A7.955,7.955,0,0,0,63.1,14.414v5.958H54.35C52.422,3.759,28.672.815,22.269,14.56a7.96,7.96,0,0,0-5.187,5.813H7.461A5.966,5.966,0,0,0,1.5,26.33V85.91a5.966,5.966,0,0,0,5.961,5.958H43.844a34.573,34.573,0,0,1-4.857,11.514,4.132,4.132,0,0,0,3.446,6.359H63.893a4.132,4.132,0,0,0,3.441-6.365,34.551,34.551,0,0,1-4.852-11.509H98.865a5.966,5.966,0,0,0,5.961-5.958V44.2h9.935a7.955,7.955,0,0,0,7.948-7.944V14.414a7.955,7.955,0,0,0-7.948-7.944ZM20.932,21.318a3.972,3.972,0,0,1,3.163-3.144,1.987,1.987,0,0,0,1.475-1.229,10.725,10.725,0,0,1,2.661-4.006c4.49-4.169,13.019-4.146,17.9.05,1.212,1.043,5.091,4.785,4.1,9.11-.928,4.048-5.41,5.92-7.912,6.389a12.7,12.7,0,0,1-12.25-5.533,1.987,1.987,0,0,0-3.215,2.335c4.473,6.075,11.8,8.925,18.582,6.437v3.461c-.449,14.069-20.855,14.064-21.3,0A1.986,1.986,0,0,0,22.146,33.2,2.757,2.757,0,0,1,20.27,28.45c2.433,2.34,5.579-1.018,2.778-2.936a3.976,3.976,0,0,1-2.116-4.2Zm-5.523,48.7a15.781,15.781,0,0,1,1.325-6.331c8,13.613,29.1,13.609,37.092,0,1.883,3.556,1.22,10.324,1.324,14.273H15.409Zm19.87,0A17.737,17.737,0,0,1,19.168,59.785a15.877,15.877,0,0,1,10.542-5.57,5.959,5.959,0,0,0,11.14,0,15.877,15.877,0,0,1,10.541,5.57A17.737,17.737,0,0,1,35.28,70.022Zm1.987-17.874a1.987,1.987,0,0,1-3.974,0V49.724a14.056,14.056,0,0,0,3.974-.147ZM7.461,24.344h9.807a8.026,8.026,0,0,0,.432,1.067A6.769,6.769,0,0,0,20.258,36.9a14.654,14.654,0,0,0,9.06,11.833v1.524A19.89,19.89,0,0,0,11.435,70.022v7.944H5.474V26.33A1.989,1.989,0,0,1,7.461,24.344ZM62.081,102.3c.657,1.226,1.312,2.329,1.946,3.282l1.653-1.1-1.788,1.292H42.433l-.135-.19a38.557,38.557,0,0,0,5.6-13.712H58.432a39.678,39.678,0,0,0,3.649,10.43ZM98.865,87.9H7.461A1.989,1.989,0,0,1,5.474,85.91V81.938h95.378V85.91A1.989,1.989,0,0,1,98.865,87.9Zm1.987-9.93H59.124V70.022A19.89,19.89,0,0,0,41.241,50.263V48.282a14.619,14.619,0,0,0,8.166-13.094V29.7a11.616,11.616,0,0,0,4.238-5.354H63.1v7.014L56.108,37.18A3.993,3.993,0,0,0,58.652,44.2h42.2ZM118.735,36.26a3.977,3.977,0,0,1-3.974,3.972H58.651l6.991-5.821a3.961,3.961,0,0,0,1.43-3.052V14.414a3.977,3.977,0,0,1,3.974-3.972h43.715a3.977,3.977,0,0,1,3.974,3.972Z" transform="translate(0 0)" fill="#232423"/>
      <path id="Path_6356" data-name="Path 6356" d="M57.725,11.16h-4.15a2.075,2.075,0,1,0,0,4.15h4.15a2.075,2.075,0,1,0,0-4.15Z" transform="translate(48.386 5.712)" fill="#232423"/>
      <path id="Path_6357" data-name="Path 6357" d="M51.725,11.16h-4.15a2.075,2.075,0,1,0,0,4.15h4.15a2.075,2.075,0,1,0,0-4.15Z" transform="translate(43.158 5.712)" fill="#232423"/>
      <path id="Path_6358" data-name="Path 6358" d="M45.725,11.16h-4.15a2.075,2.075,0,1,0,0,4.15h4.15a2.075,2.075,0,1,0,0-4.15Z" transform="translate(37.273 5.712)" fill="#232423"/>
      <path id="Path_6359" data-name="Path 6359" d="M51.725,16.16h-4.15a2.075,2.075,0,1,0,0,4.15h4.15a2.075,2.075,0,1,0,0-4.15Z" transform="translate(43.158 10.133)" fill="#232423"/>
      <path id="Path_6360" data-name="Path 6360" d="M45.725,16.16h-4.15a2.075,2.075,0,1,0,0,4.15h4.15a2.075,2.075,0,1,0,0-4.15Z" transform="translate(37.273 10.133)" fill="#232423"/>
      <path id="Path_6361" data-name="Path 6361" d="M57.725,16.16h-4.15a2.075,2.075,0,1,0,0,4.15h4.15a2.075,2.075,0,1,0,0-4.15Z" transform="translate(48.386 10.133)" fill="#232423"/>
      <path id="Path_6362" data-name="Path 6362" d="M40.575,34.31h16.6a2.075,2.075,0,1,0,0-4.15h-16.6a2.075,2.075,0,1,0,0,4.15Z" transform="translate(35.883 23.888)" fill="#232423"/>
      <path id="Path_6363" data-name="Path 6363" d="M40.575,38.31h16.6a2.075,2.075,0,1,0,0-4.15h-16.6a2.075,2.075,0,1,0,0,4.15Z" transform="translate(35.883 27.818)" fill="#232423"/>
      <path id="Path_6364" data-name="Path 6364" d="M40.575,42.31h16.6a2.075,2.075,0,1,0,0-4.15h-16.6a2.075,2.075,0,1,0,0,4.15Z" transform="translate(35.883 31.747)" fill="#232423"/>
    </g>
  </g>
</svg>
