<svg xmlns="http://www.w3.org/2000/svg" xmlns:xlink="http://www.w3.org/1999/xlink" width="144" height="144" viewBox="0 0 144 144">
  <defs>
    <clipPath id="clip-Artboard_70">
      <rect width="144" height="144"/>
    </clipPath>
  </defs>
  <g id="Artboard_70" data-name="Artboard – 70" clip-path="url(#clip-Artboard_70)">
    <rect width="144" height="144" fill="#fff"/>
    <g id="menu" transform="translate(36 36)">
      <g id="Group_6932" data-name="Group 6932">
        <g id="Group_6931" data-name="Group 6931">
          <path id="Path_6528" data-name="Path 6528" d="M24.684,0H8.267A8.276,8.276,0,0,0,0,8.267V24.683A8.276,8.276,0,0,0,8.267,32.95H24.684a8.276,8.276,0,0,0,8.267-8.267V8.267A8.276,8.276,0,0,0,24.684,0Zm2.682,24.683a2.685,2.685,0,0,1-2.682,2.682H8.267a2.685,2.685,0,0,1-2.682-2.682V8.267A2.685,2.685,0,0,1,8.267,5.585H24.684a2.685,2.685,0,0,1,2.682,2.682Z" fill="#777978"/>
        </g>
      </g>
      <g id="Group_6934" data-name="Group 6934" transform="translate(38.535)">
        <g id="Group_6933" data-name="Group 6933">
          <path id="Path_6529" data-name="Path 6529" d="M300.573,0h-16.2A8.387,8.387,0,0,0,276,8.377v16.2a8.387,8.387,0,0,0,8.377,8.377h16.2a8.387,8.387,0,0,0,8.377-8.377V8.377A8.387,8.387,0,0,0,300.573,0Zm2.792,24.573a2.8,2.8,0,0,1-2.792,2.792h-16.2a2.8,2.8,0,0,1-2.792-2.792V8.377a2.8,2.8,0,0,1,2.792-2.792h16.2a2.8,2.8,0,0,1,2.792,2.792Z" transform="translate(-276)" fill="#777978"/>
        </g>
      </g>
      <g id="Group_6936" data-name="Group 6936" transform="translate(0 38.535)">
        <g id="Group_6935" data-name="Group 6935">
          <path id="Path_6530" data-name="Path 6530" d="M24.684,276H8.267A8.276,8.276,0,0,0,0,284.267v16.417a8.276,8.276,0,0,0,8.267,8.267H24.684a8.276,8.276,0,0,0,8.267-8.267V284.267A8.276,8.276,0,0,0,24.684,276Zm2.682,24.683a2.685,2.685,0,0,1-2.682,2.682H8.267a2.685,2.685,0,0,1-2.682-2.682V284.267a2.685,2.685,0,0,1,2.682-2.682H24.684a2.685,2.685,0,0,1,2.682,2.682Z" transform="translate(0 -276)" fill="#777978"/>
        </g>
      </g>
      <g id="Group_6938" data-name="Group 6938" transform="translate(38.535 38.535)">
        <g id="Group_6937" data-name="Group 6937">
          <path id="Path_6531" data-name="Path 6531" d="M300.573,276h-16.2A8.387,8.387,0,0,0,276,284.377v16.2a8.387,8.387,0,0,0,8.377,8.377h16.2a8.387,8.387,0,0,0,8.377-8.377v-16.2A8.387,8.387,0,0,0,300.573,276Zm2.792,24.573a2.8,2.8,0,0,1-2.792,2.792h-16.2a2.8,2.8,0,0,1-2.792-2.792v-16.2a2.8,2.8,0,0,1,2.792-2.792h16.2a2.8,2.8,0,0,1,2.792,2.792Z" transform="translate(-276 -276)" fill="#777978"/>
        </g>
      </g>
    </g>
  </g>
</svg>
