<svg xmlns="http://www.w3.org/2000/svg" xmlns:xlink="http://www.w3.org/1999/xlink" width="144" height="144" viewBox="0 0 144 144">
  <defs>
    <clipPath id="clip-Artboard_41">
      <rect width="144" height="144"/>
    </clipPath>
  </defs>
  <g id="Artboard_41" data-name="Artboard – 41" clip-path="url(#clip-Artboard_41)">
    <rect width="144" height="144" fill="#fff"/>
    <g id="calendar_2_" data-name="calendar (2)" transform="translate(18.648 22.157)">
      <path id="Path_6426" data-name="Path 6426" d="M95.579,2H85.658v9.921a3.307,3.307,0,0,1-6.614,0V2H26.133v9.921a3.307,3.307,0,1,1-6.614,0V2H9.6C4.638,2,1,6.3,1,11.921V23.826H106.823V11.921C106.823,6.3,100.87,2,95.579,2ZM1,30.771V91.288c0,5.953,3.638,9.921,8.929,9.921H95.91c5.291,0,11.244-4.3,11.244-9.921V30.771ZM30.432,86.328H22.5a2.608,2.608,0,0,1-2.646-2.646V75.415A2.608,2.608,0,0,1,22.5,72.769h8.267a2.608,2.608,0,0,1,2.646,2.646v8.267a2.9,2.9,0,0,1-2.976,2.646Zm0-29.763H22.5a2.608,2.608,0,0,1-2.646-2.646V45.652A2.608,2.608,0,0,1,22.5,43.006h8.267a2.608,2.608,0,0,1,2.646,2.646v8.267a2.9,2.9,0,0,1-2.976,2.646ZM56.888,86.328H48.62a2.608,2.608,0,0,1-2.646-2.646V75.415a2.608,2.608,0,0,1,2.646-2.646h8.267a2.608,2.608,0,0,1,2.646,2.646v8.267A2.434,2.434,0,0,1,56.888,86.328Zm0-29.763H48.62a2.608,2.608,0,0,1-2.646-2.646V45.652a2.608,2.608,0,0,1,2.646-2.646h8.267a2.608,2.608,0,0,1,2.646,2.646v8.267A2.434,2.434,0,0,1,56.888,56.565ZM83.343,86.328H75.076a2.608,2.608,0,0,1-2.646-2.646V75.415a2.608,2.608,0,0,1,2.646-2.646h8.267a2.608,2.608,0,0,1,2.646,2.646v8.267A2.434,2.434,0,0,1,83.343,86.328Zm0-29.763H75.076a2.608,2.608,0,0,1-2.646-2.646V45.652a2.608,2.608,0,0,1,2.646-2.646h8.267a2.608,2.608,0,0,1,2.646,2.646v8.267A2.434,2.434,0,0,1,83.343,56.565Z" transform="translate(-1 -2)" fill="#2c6959"/>
    </g>
  </g>
</svg>
