<svg xmlns="http://www.w3.org/2000/svg" xmlns:xlink="http://www.w3.org/1999/xlink" width="144" height="144" viewBox="0 0 144 144">
  <defs>
    <clipPath id="clip-Artboard_32">
      <rect width="144" height="144"/>
    </clipPath>
  </defs>
  <g id="Artboard_32" data-name="Artboard – 32" clip-path="url(#clip-Artboard_32)">
    <rect width="144" height="144" fill="#fff"/>
    <path id="XMLID_753_" d="M86.64,39.907A46.422,46.422,0,1,1,69.688,22.955a1.712,1.712,0,0,1-1.717,2.963A43,43,0,1,0,83.676,41.624a1.712,1.712,0,0,1,2.963-1.718Zm22.454-18.063L94.562,36.375a1.713,1.713,0,0,1-1.654.443L78.941,33.076,47.648,64.369a1.712,1.712,0,0,1-2.422-2.422L76.519,30.654,72.776,16.687a1.713,1.713,0,0,1,.443-1.654L87.751.5a1.712,1.712,0,0,1,2.865.768l3.743,13.968,13.968,3.743a1.713,1.713,0,0,1,.768,2.865Zm-4.519-.325L92.517,18.289a1.713,1.713,0,0,1-1.211-1.211L88.075,5.02,76.34,16.755l3.487,13.013,13.013,3.487ZM46.437,39.171a23.771,23.771,0,0,1,10.2,2.272,1.712,1.712,0,0,0,1.459-3.1A27.4,27.4,0,1,0,71.25,51.5a1.712,1.712,0,1,0-3.1,1.458,23.774,23.774,0,0,1,2.272,10.2A23.987,23.987,0,1,1,46.437,39.171Z" transform="translate(17.203 17.203)"/>
  </g>
</svg>
