<svg xmlns="http://www.w3.org/2000/svg" xmlns:xlink="http://www.w3.org/1999/xlink" width="144" height="144" viewBox="0 0 144 144">
  <defs>
    <clipPath id="clip-Artboard_54">
      <rect width="144" height="144"/>
    </clipPath>
  </defs>
  <g id="Artboard_54" data-name="Artboard – 54" clip-path="url(#clip-Artboard_54)">
    <rect width="144" height="144" fill="#fff"/>
    <g id="Group_1" data-name="Group 1" transform="translate(-127.171 -884.432)">
      <path id="Path_6053" data-name="Path 6053" d="M200.023,331.893a10.557,10.557,0,1,0-18.208,0A13.743,13.743,0,0,0,173.5,344.5V354a3.167,3.167,0,0,0,3.167,3.167h28.5A3.167,3.167,0,0,0,208.338,354v-9.5A13.743,13.743,0,0,0,200.023,331.893Z" transform="translate(8.155 652.953)" fill="#2c6959"/>
      <path id="Path_6054" data-name="Path 6054" d="M26.734,166.893a10.557,10.557,0,1,0-18.249-.071A13.743,13.743,0,0,0,0,179.5V189a3.167,3.167,0,0,0,3.167,3.167H31.882A3.167,3.167,0,0,0,35.049,189v-9.5A13.743,13.743,0,0,0,26.734,166.893Z" transform="translate(145.025 783.112)" fill="#2c6959"/>
      <path id="Path_6055" data-name="Path 6055" d="M372.734,166.893a10.557,10.557,0,1,0-18.249-.071A13.743,13.743,0,0,0,346,179.5V189a3.167,3.167,0,0,0,3.167,3.167h28.715A3.167,3.167,0,0,0,381.049,189v-9.5A13.743,13.743,0,0,0,372.734,166.893Z" transform="translate(-127.919 783.112)" fill="#2c6959"/>
      <path id="Path_6056" data-name="Path 6056" d="M200.023,16.893a10.557,10.557,0,1,0-18.208,0A13.743,13.743,0,0,0,173.5,29.5V39a3.167,3.167,0,0,0,3.167,3.167h28.5A3.167,3.167,0,0,0,208.338,39V29.5A13.743,13.743,0,0,0,200.023,16.893Z" transform="translate(8.155 901.443)" fill="#2c6959"/>
      <path id="Path_6057" data-name="Path 6057" d="M377.165,379.167a9.512,9.512,0,0,1-9.5,9.5h-.358a35.849,35.849,0,0,1,.252,6.334A15.848,15.848,0,0,0,383.5,379.167V376h-6.334Z" transform="translate(-144.728 605.621)" fill="#2c6959"/>
      <path id="Path_6058" data-name="Path 6058" d="M333.868,37.334h7.1a9.512,9.512,0,0,1,9.5,9.5v3.488a16.771,16.771,0,0,1,6.334-.038v-3.45A15.853,15.853,0,0,0,340.97,31h-7.5A16.85,16.85,0,0,1,333.868,37.334Z" transform="translate(-118.038 877.777)" fill="#2c6959"/>
      <path id="Path_6059" data-name="Path 6059" d="M74.834,50.3V46.835a9.512,9.512,0,0,1,9.5-9.5h7a16.852,16.852,0,0,1,.4-6.334h-7.4A15.853,15.853,0,0,0,68.5,46.835V50.3A16.754,16.754,0,0,1,74.834,50.3Z" transform="translate(90.987 877.777)" fill="#2c6959"/>
      <path id="Path_6060" data-name="Path 6060" d="M74.834,379.167V376H68.5v3.167A15.853,15.853,0,0,0,84.335,395a35.84,35.84,0,0,1,.252-6.334h-.252A9.512,9.512,0,0,1,74.834,379.167Z" transform="translate(90.987 605.621)" fill="#2c6959"/>
    </g>
  </g>
</svg>
