<svg xmlns="http://www.w3.org/2000/svg" xmlns:xlink="http://www.w3.org/1999/xlink" width="144" height="144" viewBox="0 0 144 144">
  <defs>
    <clipPath id="clip-Artboard_5">
      <rect width="144" height="144"/>
    </clipPath>
  </defs>
  <g id="Artboard_5" data-name="Artboard – 5" clip-path="url(#clip-Artboard_5)">
    <rect width="144" height="144" fill="#fff"/>
    <g id="suitcase" transform="translate(16.704 23.92)">
      <path id="Path_6044" data-name="Path 6044" d="M40.217,22.711a4.6,4.6,0,0,1-4.6-4.6V11.2H17.2v6.9a4.6,4.6,0,0,1-9.2,0V11.2A9.214,9.214,0,0,1,17.2,2H35.614a9.214,9.214,0,0,1,9.2,9.2v6.9A4.6,4.6,0,0,1,40.217,22.711Z" transform="translate(28.819)" fill="#2c6959"/>
      <path id="Path_6045" data-name="Path 6045" d="M58.5,28.925a9.48,9.48,0,0,1-3.268.552,10.085,10.085,0,0,1-3.544-.644L0,11.62V46.736A12.649,12.649,0,0,0,12.656,59.393H97.8a12.649,12.649,0,0,0,12.656-12.656V11.62Z" transform="translate(0 34.655)" fill="#2c6959"/>
      <path id="Path_6046" data-name="Path 6046" d="M110.457,17.656V28.2L56.333,46.237a3.406,3.406,0,0,1-2.209,0L0,28.2V17.656A12.649,12.649,0,0,1,12.656,5H97.8A12.649,12.649,0,0,1,110.457,17.656Z" transform="translate(0 10.807)" fill="#2c6959"/>
    </g>
  </g>
</svg>
