<svg xmlns="http://www.w3.org/2000/svg" xmlns:xlink="http://www.w3.org/1999/xlink" width="144" height="144" viewBox="0 0 144 144">
  <defs>
    <clipPath id="clip-Artboard_30">
      <rect width="144" height="144"/>
    </clipPath>
  </defs>
  <g id="Artboard_30" data-name="Artboard – 30" clip-path="url(#clip-Artboard_30)">
    <rect width="144" height="144" fill="#fff"/>
    <path id="mentor" d="M99.379,78.977a54.1,54.1,0,0,1,4.437-4.459c2.3-2.191,5.46-5.191,9.8-9.553,2.411-2.424,3.456-5.827,3.107-10.115-.176-2.158-.517-4.884-.95-8.336-.683-5.451-1.62-12.917-2.38-22.252a5.182,5.182,0,0,0-8.78-3.292,3.963,3.963,0,0,0-1.19,2.37c-.117.88-.329,2.12-.6,3.69-.506,2.963-1.239,7.254-1.969,12.879-.091-.021-.182-.04-.276-.054a3.3,3.3,0,0,0-3.011,1.1c-1.963,2.221-7.583,9.937-16.7,22.933a8.774,8.774,0,0,0-1.377,4.884c.008,3.807-.007,8.485-.034,11.345l-2.194,0h0a1.525,1.525,0,0,0-1.525,1.524l-.01,14.382a1.525,1.525,0,0,0,1.524,1.526l24.908.019h0a1.525,1.525,0,0,0,1.525-1.525l.01-14.382a1.525,1.525,0,0,0-1.524-1.525l-3.1,0,0-.265A1.36,1.36,0,0,1,99.379,78.977Zm1.252,15.533-21.859-.016.007-11.332,21.859.016ZM82.5,80.115c.027-2.876.041-7.55.034-11.353a5.745,5.745,0,0,1,.823-3.126c11.281-16.072,15.2-21.2,16.494-22.665a.3.3,0,0,1,.5.076,21.446,21.446,0,0,1,1.547,4.283C98.581,53.8,94.68,62.016,94.066,64.244a1.525,1.525,0,1,0,2.94.81c.437-1.587,3.729-8.8,7.75-16.6.208-.4.675-1.3-1.188-5.675,0-.011,0-.022.006-.033.817-6.779,1.683-11.845,2.256-15.2.273-1.6.49-2.866.614-3.8a.909.909,0,0,1,.295-.587,2.133,2.133,0,0,1,3.613,1.355c.766,9.4,1.707,16.9,2.394,22.384.428,3.415.766,6.113.937,8.2.277,3.406-.452,5.93-2.23,7.717-4.309,4.332-7.447,7.315-9.738,9.493a54.206,54.206,0,0,0-4.74,4.792,4.416,4.416,0,0,0-.955,2.729l0,.3ZM44.124,81.655l.009,14.382a1.525,1.525,0,0,0,1.525,1.525h0l24.908-.019a1.525,1.525,0,0,0,1.524-1.525l-.01-14.382a1.525,1.525,0,0,0-1.525-1.525h0l-2.194,0c-.027-2.861-.042-7.539-.034-11.345a8.774,8.774,0,0,0-1.377-4.884c-9.122-13-14.742-20.712-16.7-22.932a3.3,3.3,0,0,0-3.012-1.1c-.094.014-.185.033-.276.054-.729-5.626-1.462-9.916-1.969-12.88-.268-1.57-.48-2.809-.6-3.69a3.963,3.963,0,0,0-1.19-2.37,5.182,5.182,0,0,0-8.78,3.292c-.76,9.335-1.7,16.8-2.38,22.253-.433,3.451-.774,6.178-.95,8.335-.349,4.289.7,7.692,3.107,10.115,4.339,4.362,7.494,7.362,9.8,9.552a54,54,0,0,1,4.438,4.46,1.361,1.361,0,0,1,.31.885l0,.265-3.1,0a1.525,1.525,0,0,0-1.524,1.525Zm7.67-1.826a4.416,4.416,0,0,0-.955-2.729,54.056,54.056,0,0,0-4.74-4.793c-2.291-2.178-5.429-5.161-9.737-9.494-1.778-1.787-2.507-4.311-2.23-7.717.17-2.091.508-4.788.937-8.2.687-5.479,1.628-12.983,2.394-22.385a2.133,2.133,0,0,1,3.613-1.355.91.91,0,0,1,.3.587c.124.937.34,2.2.614,3.8.573,3.353,1.439,8.42,2.256,15.2,0,.011,0,.022.006.033-1.863,4.37-1.4,5.274-1.19,5.671,4.024,7.81,7.315,15.021,7.753,16.608a1.525,1.525,0,1,0,2.94-.81c-.614-2.229-4.513-10.445-7.838-16.915a21.452,21.452,0,0,1,1.547-4.283.3.3,0,0,1,.5-.076c1.3,1.469,5.212,6.593,16.494,22.665a5.75,5.75,0,0,1,.823,3.126c-.008,3.8.007,8.477.034,11.353L51.8,80.125Zm17.24,3.332.007,11.332-21.859.016-.007-11.332ZM55,37.02v7.5a1.525,1.525,0,0,0,1.525,1.525H91.288a1.525,1.525,0,0,0,1.525-1.525v-7.5a17.657,17.657,0,0,0-12.87-16.973,10.947,10.947,0,1,0-12.072,0A17.657,17.657,0,0,0,55,37.02ZM73.073,22.444H74.74l1.606,11.58-2.44,2.91-2.44-2.91ZM66.009,10.92a7.9,7.9,0,1,1,7.9,7.9A7.9,7.9,0,0,1,66.009,10.92ZM69.96,22.693,68.353,34.276a1.525,1.525,0,0,0,.342,1.189l4.043,4.822a1.525,1.525,0,0,0,2.337,0l4.043-4.822a1.525,1.525,0,0,0,.342-1.189L77.853,22.692A14.6,14.6,0,0,1,89.763,37.02V43H85.586V35.282a1.525,1.525,0,0,0-3.05,0V43H65.277V35.282a1.525,1.525,0,1,0-3.05,0V43H58.05V37.02A14.6,14.6,0,0,1,69.96,22.692Z" transform="translate(-2.151 23.236)"/>
  </g>
</svg>
