<svg xmlns="http://www.w3.org/2000/svg" xmlns:xlink="http://www.w3.org/1999/xlink" width="144" height="144" viewBox="0 0 144 144">
  <defs>
    <clipPath id="clip-Artboard_80">
      <rect width="144" height="144"/>
    </clipPath>
  </defs>
  <g id="Artboard_80" data-name="Artboard – 80" clip-path="url(#clip-Artboard_80)">
    <rect width="144" height="144" fill="#fff"/>
    <path id="path2" d="M33.52,93.075A17.516,17.516,0,0,1,16.006,75.561V19.507a10.5,10.5,0,0,1,10.5-10.5h.014a10.5,10.5,0,0,1,10.5,10.5V68.562a3.5,3.5,0,0,1-3.5,3.5H33.52a3.5,3.5,0,0,1-3.5-3.5V26.52a3.5,3.5,0,0,0-7.006,0V68.555A10.509,10.509,0,0,0,33.52,79.064h.007a10.5,10.5,0,0,0,10.5-10.5V19.507A17.509,17.509,0,0,0,26.522,2h-.014A17.509,17.509,0,0,0,9,19.507V75.561a24.52,24.52,0,1,0,49.041,0V26.52a3.5,3.5,0,0,0-7.006,0v49.04A17.513,17.513,0,0,1,33.52,93.075Z" transform="translate(38 21)" fill="#2c6959" fill-rule="evenodd"/>
  </g>
</svg>
