<svg xmlns="http://www.w3.org/2000/svg" xmlns:xlink="http://www.w3.org/1999/xlink" width="144" height="144" viewBox="0 0 144 144">
  <defs>
    <filter id="Ellipse_312" x="3" y="6" width="138" height="138" filterUnits="userSpaceOnUse">
      <feOffset dy="3" input="SourceAlpha"/>
      <feGaussianBlur stdDeviation="3" result="blur"/>
      <feFlood flood-opacity="0.161"/>
      <feComposite operator="in" in2="blur"/>
      <feComposite in="SourceGraphic"/>
    </filter>
    <clipPath id="clip-Artboard_22">
      <rect width="144" height="144"/>
    </clipPath>
  </defs>
  <g id="Artboard_22" data-name="Artboard – 22" clip-path="url(#clip-Artboard_22)">
    <rect width="144" height="144" fill="#fff"/>
    <g id="Group_5" data-name="Group 5" transform="translate(11.124 11.488)">
      <g transform="matrix(1, 0, 0, 1, -11.12, -11.49)" filter="url(#Ellipse_312)">
        <g id="Ellipse_312-2" data-name="Ellipse 312" transform="translate(12 12)" fill="#fff" stroke="#707070" stroke-width="1">
          <circle cx="60" cy="60" r="60" stroke="none"/>
          <circle cx="60" cy="60" r="59.5" fill="none"/>
        </g>
      </g>
      <g id="facebook" transform="translate(0.38 0.016)">
        <circle id="Ellipse_315" data-name="Ellipse 315" cx="60" cy="60" r="60" transform="translate(0.497 0.497)" fill="#3b5998"/>
        <path id="Path_314" data-name="Path 314" d="M73.277,61.764H62.317v40.155H45.71V61.764h-7.9V47.652h7.9V38.52c0-6.53,3.1-16.757,16.754-16.757l12.3.051v13.7H65.84c-1.464,0-3.523.731-3.523,3.847v8.305H74.728Z" transform="translate(1.822 1.749)" fill="#fff"/>
      </g>
    </g>
  </g>
</svg>
