<svg xmlns="http://www.w3.org/2000/svg" xmlns:xlink="http://www.w3.org/1999/xlink" width="144" height="144" viewBox="0 0 144 144">
  <defs>
    <clipPath id="clip-Artboard_81">
      <rect width="144" height="144"/>
    </clipPath>
  </defs>
  <g id="Artboard_81" data-name="Artboard – 81" clip-path="url(#clip-Artboard_81)">
    <rect width="144" height="144" fill="#fff"/>
    <g id="Group_19" data-name="Group 19" transform="translate(2820 -15938.816)">
      <g id="_3ds" data-name="3ds" transform="translate(-2793 15958.816)">
        <path id="Path_10660" data-name="Path 10660" d="M102.494,0A6.513,6.513,0,0,0,96,6.494v90.92a6.513,6.513,0,0,0,6.494,6.494h64.943a6.513,6.513,0,0,0,6.494-6.494V25.977L147.954,0Z" transform="translate(-83.011)" fill="#e2e5e7"/>
        <path id="Path_10661" data-name="Path 10661" d="M358.494,25.977h19.483L352,0V19.483A6.513,6.513,0,0,0,358.494,25.977Z" transform="translate(-287.057)" fill="#b0b7bd"/>
        <path id="Path_10662" data-name="Path 10662" d="M403.483,147.483,384,128h19.483Z" transform="translate(-312.563 -102.023)" fill="#cad1d8"/>
        <path id="Path_10663" data-name="Path 10663" d="M109.932,275.719a3.257,3.257,0,0,1-3.247,3.247H35.247A3.257,3.257,0,0,1,32,275.719V243.247A3.257,3.257,0,0,1,35.247,240h71.437a3.257,3.257,0,0,1,3.247,3.247Z" transform="translate(-32 -191.293)" fill="#84bd5a"/>
        <path id="Path_10667" data-name="Path 10667" d="M157.7,419.247H96v3.247h61.7a3.257,3.257,0,0,0,3.247-3.247V416A3.257,3.257,0,0,1,157.7,419.247Z" transform="translate(-83.011 -331.574)" fill="#cad1d8"/>
      </g>
      <text id="PDF" transform="translate(-2754.446 16035)" fill="#fff" font-size="24" font-family="Poppins-Medium, Poppins" font-weight="500"><tspan x="-21.828" y="0">PDF</tspan></text>
    </g>
  </g>
</svg>
