<svg xmlns="http://www.w3.org/2000/svg" xmlns:xlink="http://www.w3.org/1999/xlink" width="144" height="144" viewBox="0 0 144 144">
  <defs>
    <clipPath id="clip-Artboard_56">
      <rect width="144" height="144"/>
    </clipPath>
  </defs>
  <g id="Artboard_56" data-name="Artboard – 56" clip-path="url(#clip-Artboard_56)">
    <rect width="144" height="144" fill="#fff"/>
    <g id="crowd-of-users" transform="translate(9.712 24.604)">
      <g id="Group_6152" data-name="Group 6152" transform="translate(0 0)">
        <path id="Path_6100" data-name="Path 6100" d="M51.606,40.132a14.5,14.5,0,0,1,5.785,1.2,14.435,14.435,0,0,1,2.737-7.8,17.023,17.023,0,0,0-3.487-.362H45.34a17.042,17.042,0,0,0-3.476.358,14.449,14.449,0,0,1,2.747,8.4A14.474,14.474,0,0,1,51.606,40.132Z" transform="translate(11.263 -5.618)" fill="#2c6959"/>
        <circle id="Ellipse_343" data-name="Ellipse 343" cx="13.32" cy="13.32" r="13.32" transform="translate(48.931)" fill="#2c6959"/>
        <path id="Path_6101" data-name="Path 6101" d="M68.139,55.563A12.271,12.271,0,1,0,55.876,43.106,15.209,15.209,0,0,1,62.953,54.4,12.18,12.18,0,0,0,68.139,55.563Z" transform="translate(15.032 -6.195)" fill="#2c6959"/>
        <path id="Path_6102" data-name="Path 6102" d="M35.173,31.019A12.271,12.271,0,1,0,41.7,53.667a15.2,15.2,0,0,1,5.709-9.688c.013-.23.034-.457.034-.689A12.271,12.271,0,0,0,35.173,31.019Z" transform="translate(6.161 -6.196)" fill="#2c6959"/>
        <path id="Path_6103" data-name="Path 6103" d="M71.82,33.375a15.2,15.2,0,0,1,7.076,11.3,12.266,12.266,0,1,0-7.076-11.3Z" transform="translate(19.322 -8.813)" fill="#2c6959"/>
        <path id="Path_10872" data-name="Path 10872" d="M12.273,0A12.273,12.273,0,1,1,0,12.273,12.273,12.273,0,0,1,12.273,0Z" transform="translate(50.596 37.492)" fill="#2c6959"/>
        <path id="Path_6104" data-name="Path 6104" d="M72.824,51.019H62.489A15.124,15.124,0,0,1,57.82,61.553a18.677,18.677,0,0,1,13.336,17.87v3.924c10.2-.377,16.084-3.265,16.471-3.463l.82-.416h.085V66.732A15.726,15.726,0,0,0,72.824,51.019Z" transform="translate(15.555 -0.815)" fill="#2c6959"/>
        <path id="Path_6105" data-name="Path 6105" d="M88.765,41.289H78.432a15.123,15.123,0,0,1-4.667,10.534A18.674,18.674,0,0,1,87.1,69.692v3.924c10.2-.376,16.084-3.264,16.471-3.463l.82-.415h.088V57A15.731,15.731,0,0,0,88.765,41.289Z" transform="translate(19.845 -3.433)" fill="#2c6959"/>
        <path id="Path_6106" data-name="Path 6106" d="M48.028,61.552a15.137,15.137,0,0,1-4.666-10.475c-.382-.028-.761-.06-1.152-.06H31.8A15.732,15.732,0,0,0,16.085,66.732V79.47l.032.2.877.277a73.671,73.671,0,0,0,17.7,3.326V79.423A18.681,18.681,0,0,1,48.028,61.552Z" transform="translate(4.327 -0.815)" fill="#2c6959"/>
        <path id="Path_6107" data-name="Path 6107" d="M59.182,61H48.768A15.734,15.734,0,0,0,33.054,76.716V89.453l.033.2.876.274a71.566,71.566,0,0,0,21.364,3.445c11.549,0,18.242-3.293,18.656-3.5l.82-.416h.086V76.716A15.725,15.725,0,0,0,59.182,61Z" transform="translate(8.892 1.871)" fill="#2c6959"/>
        <path id="Path_6108" data-name="Path 6108" d="M19.088,46.141a12.2,12.2,0,0,0,5.185-1.162,15.21,15.21,0,0,1,7.076-11.3A12.268,12.268,0,1,0,19.088,46.141Z" transform="translate(1.833 -8.73)" fill="#2c6959"/>
        <path id="Path_6109" data-name="Path 6109" d="M30.713,52.133A15.131,15.131,0,0,1,26.047,41.6H15.713A15.733,15.733,0,0,0,0,57.31V70.048H.088l.82.415c.388.2,6.268,3.088,16.471,3.462V70A18.671,18.671,0,0,1,30.713,52.133Z" transform="translate(0 -3.35)" fill="#2c6959"/>
        <path id="Path_6110" data-name="Path 6110" d="M29.33,34.363a16.562,16.562,0,0,1,5.863-1.329A14.517,14.517,0,0,1,42.309,34.9a12.342,12.342,0,0,0,1.332-1.548,15.629,15.629,0,0,1-1.7-16.148,12.028,12.028,0,0,0-8.12-3.123,12.158,12.158,0,0,0-11.727,8.995A14.6,14.6,0,0,1,29.33,34.363Z" transform="translate(5.944 -10.753)" fill="#2c6959"/>
        <path id="Path_6111" data-name="Path 6111" d="M59.117,32.657a12.142,12.142,0,0,0,1.491,1.91,14.5,14.5,0,0,1,6.462-1.533,18.2,18.2,0,0,1,5.675,1.03A14.623,14.623,0,0,1,80.867,22.2a12.128,12.128,0,0,0-20.261-4.327,15.569,15.569,0,0,1-1.489,14.785Z" transform="translate(15.904 -10.754)" fill="#2c6959"/>
      </g>
    </g>
  </g>
</svg>
