<svg xmlns="http://www.w3.org/2000/svg" xmlns:xlink="http://www.w3.org/1999/xlink" width="144" height="144" viewBox="0 0 144 144">
  <defs>
    <clipPath id="clip-Artboard_53">
      <rect width="144" height="144"/>
    </clipPath>
  </defs>
  <g id="Artboard_53" data-name="Artboard – 53" clip-path="url(#clip-Artboard_53)">
    <rect width="144" height="144" fill="#fff"/>
    <g id="hr" transform="translate(0.317 23.248)">
      <g id="Group_6759" data-name="Group 6759" transform="translate(29.527 1.428)">
        <g id="Group_6757" data-name="Group 6757" transform="translate(0)">
          <g id="Group_6747" data-name="Group 6747" transform="translate(18.668 0)">
            <path id="Path_6449" data-name="Path 6449" d="M173.1,30.991H133.554v-4.2A19.294,19.294,0,0,1,152.848,7.5h.96A19.294,19.294,0,0,1,173.1,26.789v4.2Z" transform="translate(-133.554 -7.495)" fill="#5d5260"/>
          </g>
          <g id="Group_6748" data-name="Group 6748" transform="translate(35.208)">
            <path id="Path_6450" data-name="Path 6450" d="M224.063,7.495h-.96a19.44,19.44,0,0,0-2.754.2,19.3,19.3,0,0,1,16.541,19.1v4.2h6.467v-4.2A19.294,19.294,0,0,0,224.063,7.495Z" transform="translate(-220.35 -7.495)" fill="#4b3f4e"/>
          </g>
          <g id="Group_6749" data-name="Group 6749" transform="translate(0 54.398)">
            <path id="Path_6451" data-name="Path 6451" d="M112.48,318.537v14.72H35.6V318.724a13.835,13.835,0,0,1,8.469-12.751l29.973-13.031,30.212,12.949A13.83,13.83,0,0,1,112.48,318.537Z" transform="translate(-35.597 -292.942)" fill="#b8b6ff"/>
          </g>
          <g id="Group_6750" data-name="Group 6750" transform="translate(27.837 49.001)">
            <path id="Path_6452" data-name="Path 6452" d="M192.274,283.9c-5.857,0-10.605-1.147-10.605-7V264.621h21.21v12.272C202.879,282.75,198.131,283.9,192.274,283.9Z" transform="translate(-181.669 -264.621)" fill="#e2a876"/>
          </g>
          <g id="Group_6751" data-name="Group 6751" transform="translate(55.291 23.496)">
            <path id="Path_6453" data-name="Path 6453" d="M329.033,140.924h-3.3V130.787h3.3a2.549,2.549,0,0,1,2.549,2.549v5.04A2.549,2.549,0,0,1,329.033,140.924Z" transform="translate(-325.73 -130.787)" fill="#e2a876"/>
          </g>
          <g id="Group_6752" data-name="Group 6752" transform="translate(15.742 23.496)">
            <path id="Path_6454" data-name="Path 6454" d="M120.75,140.924h3.3V130.787h-3.3a2.549,2.549,0,0,0-2.549,2.549v5.04A2.549,2.549,0,0,0,120.75,140.924Z" transform="translate(-118.201 -130.787)" fill="#e2a876"/>
          </g>
          <g id="Group_6753" data-name="Group 6753" transform="translate(21.59 15.449)">
            <path id="Path_6455" data-name="Path 6455" d="M182.586,109.524a16.849,16.849,0,0,1-33.7,0V96.608a8.241,8.241,0,0,1,1.849-5.059,8.122,8.122,0,0,1,4.037-2.533c4.823-1.393,6.617,2.591,12.092,2.321,4.991-.246,6.312-3.7,10.191-2.538a7.749,7.749,0,0,1,5.528,7.81q0,6.458,0,12.916Z" transform="translate(-148.889 -88.56)" fill="#ecbd83"/>
          </g>
          <g id="Group_6754" data-name="Group 6754" transform="translate(33.332 68.082)">
            <path id="Path_6456" data-name="Path 6456" d="M220.723,391.38H210.5l4.48-25.872.057-.328a.563.563,0,0,1,.351-.431l.221.195.221-.195a.562.562,0,0,1,.353.431l.057.328Z" transform="translate(-210.504 -364.748)" fill="#5d5260"/>
          </g>
          <g id="Group_6755" data-name="Group 6755" transform="translate(21.59 59.009)">
            <path id="Path_6457" data-name="Path 6457" d="M165.74,326.406l-.63.565-5.812,5.208a2.3,2.3,0,0,1-3.518-.551l-6.892-11.774,6.247-2.716,10.383,9.073Z" transform="translate(-148.889 -317.138)" fill="#a09eef"/>
          </g>
          <g id="Group_6756" data-name="Group 6756" transform="translate(38.442 58.944)">
            <path id="Path_6458" data-name="Path 6458" d="M254.216,319.494l-6.942,11.858a2.3,2.3,0,0,1-3.516.551l-5.812-5.208-.632-.565.221-.195,10.385-9.138Z" transform="translate(-237.315 -316.797)" fill="#a09eef"/>
          </g>
        </g>
        <g id="Group_6758" data-name="Group 6758" transform="translate(55.343 74.733)">
          <path id="Path_6459" data-name="Path 6459" d="M352,419.632H328.665A2.663,2.663,0,0,1,326,416.969V402.314a2.663,2.663,0,0,1,2.663-2.663H352a2.663,2.663,0,0,1,2.663,2.663v14.655A2.663,2.663,0,0,1,352,419.632Z" transform="translate(-326.002 -399.651)" fill="#ccf49f"/>
        </g>
      </g>
      <g id="Group_6760" data-name="Group 6760" transform="translate(28.098 0)">
        <path id="Path_6460" data-name="Path 6460" d="M109.95,445.387a1.429,1.429,0,0,0-1.429,1.429v9.836a1.429,1.429,0,0,0,2.859,0v-9.836A1.429,1.429,0,0,0,109.95,445.387Z" transform="translate(-93.195 -360.509)"/>
        <path id="Path_6461" data-name="Path 6461" d="M110.869,74.732h-4.578a15.2,15.2,0,0,0-7.547-7.271L85.5,61.785l-.065-.03L83.442,60.9l-3.336-1.43-.011,0-.1-.043c0-.108.01-.217.01-.325v-7.52a18.238,18.238,0,0,0,6.24-13.741v-1.35h1.877A3.983,3.983,0,0,0,92.1,32.512v-5.04a3.982,3.982,0,0,0-2.926-3.832V20.723A20.747,20.747,0,0,0,68.45,0h-.96A20.747,20.747,0,0,0,46.766,20.723V23.64a3.982,3.982,0,0,0-2.926,3.833v5.04a3.983,3.983,0,0,0,3.978,3.978h1.87v1.35a18.239,18.239,0,0,0,6.247,13.748V59.1c0,.132,0,.264.007.395l-18.5,8.044A15.23,15.23,0,0,0,28.1,81.608V96.142a1.429,1.429,0,0,0,2.859,0V81.608a12.384,12.384,0,0,1,7.609-11.44l11.959-5.2,1.509,2.578A1.429,1.429,0,0,0,54.5,66.1l-1.335-2.281,3.086-1.342.589.454.013.01,8.882,6.845-5.954,5.335-2.73-4.664A1.429,1.429,0,1,0,54.584,71.9L58.2,78.077a1.429,1.429,0,0,0,2.187.342L65.76,73.6l-4.3,22.268a1.429,1.429,0,1,0,2.806.543l3.706-19.176,3.706,19.176a1.429,1.429,0,1,0,2.806-.543L70.178,73.6l5.375,4.816a1.429,1.429,0,0,0,2.187-.342l7.725-13.2,12.136,5.2a12.342,12.342,0,0,1,5.419,4.65H87.533a4.1,4.1,0,0,0-4.092,4.092V93.48a4.1,4.1,0,0,0,4.092,4.092h23.336a4.1,4.1,0,0,0,4.092-4.092V78.825a4.1,4.1,0,0,0-4.092-4.092ZM89.24,32.512a1.121,1.121,0,0,1-1.12,1.12H86.247V26.353h1.874a1.121,1.121,0,0,1,1.12,1.12Zm-41.422,1.12a1.121,1.121,0,0,1-1.12-1.12v-5.04a1.121,1.121,0,0,1,1.12-1.12h1.87v7.279Zm4.729,4.208,0-12.916c0-.009,0-.018,0-.028a6.8,6.8,0,0,1,1.511-4.111A6.678,6.678,0,0,1,57.4,18.7c2.058-.595,3.354,0,5.149.82a13.1,13.1,0,0,0,6.618,1.554,12.18,12.18,0,0,0,5.114-1.441,1.429,1.429,0,0,0-1.291-2.55,9.22,9.22,0,0,1-3.964,1.136,10.441,10.441,0,0,1-5.286-1.3c-1.9-.87-4.054-1.857-7.132-.968a9.185,9.185,0,0,0-6.784,7.536h-.2V20.723A17.885,17.885,0,0,1,67.49,2.859h.96A17.885,17.885,0,0,1,86.315,20.723v2.771h-.129a9.1,9.1,0,0,0-1.081-3.4,9.407,9.407,0,0,0-5.41-4.351,1.429,1.429,0,0,0-.817,2.739,6.522,6.522,0,0,1,3.728,3,6.454,6.454,0,0,1,.78,3.383c0,.019,0,.038,0,.057V37.84a15.42,15.42,0,0,1-30.839,0Zm6.444,23.142c-.052-.25-.1-.5-.128-.76a9.019,9.019,0,0,1-.069-1.121V53.644a18.245,18.245,0,0,0,18.352,0V59.1a9.238,9.238,0,0,1-.063,1.077c-.031.271-.076.538-.13.8L67.969,67.9ZM76.158,75.123,70.2,69.788l9.547-7.357,2.39,1.024.678.29ZM112.1,93.48a1.235,1.235,0,0,1-1.234,1.234H87.533A1.235,1.235,0,0,1,86.3,93.48V78.825a1.235,1.235,0,0,1,1.234-1.234h23.336a1.235,1.235,0,0,1,1.234,1.234Z" transform="translate(-28.098 0)"/>
        <path id="Path_6462" data-name="Path 6462" d="M420.935,424.021a3.967,3.967,0,0,0-4.03-3.891h-2.52a1.429,1.429,0,0,0-1.429,1.429v9.472a1.429,1.429,0,1,0,2.859,0V429l2.619,2.976a1.429,1.429,0,0,0,2.146-1.888l-2.165-2.46A3.9,3.9,0,0,0,420.935,424.021Zm-4.03-1.032a1.041,1.041,0,1,1,0,2.065l-1.078,0c0-.4,0-.789,0-1.036,0-.212,0-.614,0-1.032h1.083Z" transform="translate(-339.613 -340.066)"/>
        <path id="Path_6463" data-name="Path 6463" d="M356.329,420.13a1.429,1.429,0,0,0-1.429,1.429V424.7h-3.7v-3.144a1.429,1.429,0,0,0-2.859,0v9.472a1.429,1.429,0,1,0,2.859,0v-3.469h3.7v3.469a1.429,1.429,0,1,0,2.859,0v-9.472A1.429,1.429,0,0,0,356.329,420.13Z" transform="translate(-287.315 -340.066)"/>
      </g>
    </g>
  </g>
</svg>
