<svg xmlns="http://www.w3.org/2000/svg" xmlns:xlink="http://www.w3.org/1999/xlink" width="144" height="144" viewBox="0 0 144 144">
  <defs>
    <clipPath id="clip-Artboard_72">
      <rect width="144" height="144"/>
    </clipPath>
  </defs>
  <g id="Artboard_72" data-name="Artboard – 72" clip-path="url(#clip-Artboard_72)">
    <rect width="144" height="144" fill="#fff"/>
    <g id="worldwide" transform="translate(28.296 28.305)">
      <g id="Group_6947" data-name="Group 6947" transform="translate(0 0)">
        <path id="Path_6541" data-name="Path 6541" d="M43.72.05a43.7,43.7,0,0,0-40.175,26.5L3,26.727l.211.634A43.692,43.692,0,1,0,43.72.05ZM77.994,65.775,75.75,63.533V58.31a1.455,1.455,0,0,0-.146-.651l-5.68-11.345V40.832a1.456,1.456,0,0,0-.648-1.212l-4.37-2.913a1.457,1.457,0,0,0-1.165-.2L58.39,37.843,49.4,33.986l-1.237-8.663L51.592,21.9h7.357l2.476,3.721a1.456,1.456,0,0,0,.973.628L71.137,27.7a1.444,1.444,0,0,0,.7-.055l8.049-2.683A40.636,40.636,0,0,1,77.994,65.775ZM71.986,14.4l-2.368,1.579-6.6-1.321-4.284-1.426a1.43,1.43,0,0,0-.813-.032L52.5,14.555l-2.374-.791,1.759-3.519h4.926a1.456,1.456,0,0,0,.651-.153l5.04-2.52A40.932,40.932,0,0,1,71.986,14.4ZM27.754,6.215l3.5,2.33a1.455,1.455,0,0,0,.569.224l7.058,1.177-.689,2.061-3.678,1.228a1.457,1.457,0,0,0-.788.631l-4.183,6.971-6.719,4.032-9.9,1.414a1.456,1.456,0,0,0-1.253,1.44v4.37a1.456,1.456,0,0,0,.427,1.03l2.486,2.486v2.5l-6.059-4.04-2.2-6.594A41.017,41.017,0,0,1,27.754,6.215ZM23.607,53.97l-6.583-1.318-2.447-4.881V44.348L20,38.921l2.009,4.018a1.457,1.457,0,0,0,1.3.805h9.371l3.946,6.576a1.457,1.457,0,0,0,1.248.706H41.93l-1.02,5.108L35.4,61.65a1.457,1.457,0,0,0-.428,1.03v3.641l-5.243,3.933a1.457,1.457,0,0,0-.583,1.165v5.261l-1.812-.6-2.558-6.4V55.4A1.456,1.456,0,0,0,23.607,53.97ZM19.229,76.36A40.772,40.772,0,0,1,4.7,31.837l1.21,3.63a1.456,1.456,0,0,0,.572.752l7.261,4.84L12.09,42.715a1.456,1.456,0,0,0-.427,1.03v4.37a1.456,1.456,0,0,0,.153.651l2.913,5.826a1.457,1.457,0,0,0,1.02.776l6.117,1.222V69.962a1.457,1.457,0,0,0,.1.54l2.913,7.283a1.457,1.457,0,0,0,.893.84l4.37,1.457a1.431,1.431,0,0,0,.453.076A1.457,1.457,0,0,0,32.055,78.7V72.147L37.3,68.214a1.457,1.457,0,0,0,.583-1.165V63.283l5.4-5.4a1.458,1.458,0,0,0,.4-.744l1.457-7.283a1.456,1.456,0,0,0-1.427-1.742h-5L34.76,41.538a1.457,1.457,0,0,0-1.248-.706h-9.3l-2.5-5.021a1.456,1.456,0,0,0-1.071-.787,1.427,1.427,0,0,0-1.263.408L17.49,37.316v-2.31a1.456,1.456,0,0,0-.427-1.03L14.577,31.49v-2.5l8.946-1.277a1.463,1.463,0,0,0,.543-.194l7.283-4.37a1.456,1.456,0,0,0,.5-.5l4.093-6.821L39.8,14.539a1.442,1.442,0,0,0,.921-.921l1.457-4.37a1.457,1.457,0,0,0-1.142-1.893L32.6,5.95l-1.481-.988A40.67,40.67,0,0,1,59.133,6L56.472,7.333H50.989a1.456,1.456,0,0,0-1.311.805l-2.913,5.826A1.457,1.457,0,0,0,47.609,16l4.37,1.456a1.43,1.43,0,0,0,.813.032l5.415-1.353,3.968,1.321a1.071,1.071,0,0,0,.175.047l7.283,1.456a1.446,1.446,0,0,0,1.094-.216l3.315-2.211a41.09,41.09,0,0,1,4.381,5.854l-7.166,2.389L63.5,23.478l-2.563-3.845a1.456,1.456,0,0,0-1.2-.648H50.989a1.456,1.456,0,0,0-1.03.427l-4.37,4.37a1.457,1.457,0,0,0-.412,1.237l1.457,10.2a1.456,1.456,0,0,0,.874,1.132l10.2,4.37a1.44,1.44,0,0,0,.926.074l5.2-1.3,3.18,2.124v5.047a1.455,1.455,0,0,0,.146.651l5.68,11.345v5.482a1.456,1.456,0,0,0,.427,1.03l3.047,3.048A40.772,40.772,0,0,1,19.229,76.36Z" transform="translate(0 -0.05)" fill="#646564" stroke="#707070" stroke-width="0.5"/>
      </g>
    </g>
  </g>
</svg>
