<svg xmlns="http://www.w3.org/2000/svg" xmlns:xlink="http://www.w3.org/1999/xlink" width="144" height="144" viewBox="0 0 144 144">
  <defs>
    <clipPath id="clip-Artboard_25">
      <rect width="144" height="144"/>
    </clipPath>
  </defs>
  <g id="Artboard_25" data-name="Artboard – 25" clip-path="url(#clip-Artboard_25)">
    <rect width="144" height="144" fill="#fff"/>
    <g id="Group_10" data-name="Group 10" transform="translate(17.62 17.279)">
      <g id="Group_12459" data-name="Group 12459" transform="translate(-0.028 0.313)">
        <circle id="Ellipse_505" data-name="Ellipse 505" cx="54.5" cy="54.5" r="54.5" transform="translate(0.408 0.408)" fill="#2c6959" opacity="0.73"/>
        <g id="Group_12373" data-name="Group 12373" transform="translate(35.475 34.743)">
          <g id="Group_12374" data-name="Group 12374" transform="translate(0 0)">
            <path id="Path_7256" data-name="Path 7256" d="M-4410.925-14107.209a3.217,3.217,0,0,1-3.218-3.217v-33.527a3.218,3.218,0,0,1,3.218-3.219,3.219,3.219,0,0,1,3.22,3.219v33.527A3.217,3.217,0,0,1-4410.925-14107.209Z" transform="translate(4430.977 14147.172)" fill="#fff"/>
            <path id="Path_7257" data-name="Path 7257" d="M3.219,39.964A3.219,3.219,0,0,1,0,36.745V3.219a3.219,3.219,0,0,1,6.438,0V36.745A3.219,3.219,0,0,1,3.219,39.964Z" transform="translate(39.964 16.832) rotate(90)" fill="#fff"/>
          </g>
        </g>
      </g>
    </g>
  </g>
</svg>
