<svg xmlns="http://www.w3.org/2000/svg" xmlns:xlink="http://www.w3.org/1999/xlink" width="144" height="144" viewBox="0 0 144 144">
  <defs>
    <clipPath id="clip-Artboard_36">
      <rect width="144" height="144"/>
    </clipPath>
  </defs>
  <g id="Artboard_36" data-name="Artboard – 36" clip-path="url(#clip-Artboard_36)">
    <rect width="144" height="144" fill="#fff"/>
    <g id="technology" transform="translate(11.623 12.137)">
      <g id="Page-1_17_" transform="translate(0 0)">
        <g id="_x30_19---Technology-Engineering" transform="translate(0 0)">
          <path id="Shape_133_" d="M3.4,74.767l7.941,1.3a48.908,48.908,0,0,0,7.075,17.05l-4.7,6.563a3.713,3.713,0,0,0,.041,4.451,54.384,54.384,0,0,0,3.775,4.156c1.341,1.343,2.723,2.58,4.146,3.777a3.713,3.713,0,0,0,4.455.041l6.559-4.7a48.815,48.815,0,0,0,17.037,7.079l1.3,7.947a3.676,3.676,0,0,0,3.176,3.094c1.13.128,2.269.206,3.432.264a2.077,2.077,0,0,0,2.178-2.058V107.2a2.075,2.075,0,0,0-2-2.063,39.221,39.221,0,0,1,0-78.336,2.075,2.075,0,0,0,2-2.063V8.221a2.075,2.075,0,0,0-2.172-2.063Q55.9,6.23,54.2,6.4A3.723,3.723,0,0,0,51.024,9.52l-1.3,7.947a48.862,48.862,0,0,0-17.037,7.081l-6.559-4.707a3.712,3.712,0,0,0-4.455.041,54.871,54.871,0,0,0-4.146,3.777,47.612,47.612,0,0,0-3.775,4.156,3.713,3.713,0,0,0-.041,4.459l4.7,6.563a48.909,48.909,0,0,0-7.075,17.043L3.4,57.181A3.678,3.678,0,0,0,.3,60.36,51.075,51.075,0,0,0,.3,71.5,3.729,3.729,0,0,0,3.4,74.767Z" transform="translate(0.001 -6.156)" fill="#2c6959"/>
          <path id="Shape_132_" d="M173.536,151.127a30.939,30.939,0,0,0,0,61.755,1.893,1.893,0,0,0,1.972-1.91V153.037a1.894,1.894,0,0,0-1.972-1.91Z" transform="translate(-115.697 -122.187)" fill="#2c6959"/>
          <path id="Shape_131_" d="M330.6,53.544H320.289v4.125H330.6a6.206,6.206,0,0,0,6.188-6.188V38.726a6.188,6.188,0,1,0-4.125,0V51.481A2.063,2.063,0,0,1,330.6,53.544Z" transform="translate(-256.353 -22.602)" fill="#2c6959"/>
          <path id="Shape_130_" d="M320.288,206.612h20.626a2.063,2.063,0,1,0,0-4.125H320.288Z" transform="translate(-256.352 -163.295)" fill="#2c6959"/>
          <path id="Shape_129_" d="M320.288,433.931H330.6a2.063,2.063,0,0,1,2.063,2.063v12.755a6.188,6.188,0,1,0,4.125,0V435.994a6.206,6.206,0,0,0-6.188-6.188H320.288Z" transform="translate(-256.352 -345.236)" fill="#2c6959"/>
          <path id="Shape_128_" d="M351.227,347.145H320.288v4.125h30.939a2.063,2.063,0,0,1,2.063,2.063v10.693a6.188,6.188,0,1,0,4.125,0V353.333A6.206,6.206,0,0,0,351.227,347.145Z" transform="translate(-256.352 -279.076)" fill="#2c6959"/>
          <path id="Shape_127_" d="M371.853,274.816a6.188,6.188,0,0,0-5.808,4.125H320.288v4.125h45.757a6.178,6.178,0,1,0,5.808-8.25Z" transform="translate(-256.352 -221.186)" fill="#2c6959"/>
          <path id="Shape_126_" d="M342.977,390.538a2.063,2.063,0,0,0-2.063-2.063H320.288V392.6h20.626A2.062,2.062,0,0,0,342.977,390.538Z" transform="translate(-256.352 -312.156)" fill="#2c6959"/>
          <path id="Shape_125_" d="M357.414,142.412V131.72a6.188,6.188,0,1,0-4.125,0v10.693a2.063,2.063,0,0,1-2.063,2.063H320.287V148.6h30.939A6.207,6.207,0,0,0,357.414,142.412Z" transform="translate(-256.351 -97.032)" fill="#2c6959"/>
        </g>
      </g>
    </g>
  </g>
</svg>
