<svg xmlns="http://www.w3.org/2000/svg" xmlns:xlink="http://www.w3.org/1999/xlink" width="144" height="144" viewBox="0 0 144 144">
  <defs>
    <clipPath id="clip-Artboard_16">
      <rect width="144" height="144"/>
    </clipPath>
  </defs>
  <g id="Artboard_16" data-name="Artboard – 16" clip-path="url(#clip-Artboard_16)">
    <rect width="144" height="144" fill="#fff"/>
    <g id="coach_1_" data-name="coach (1)" transform="translate(2.518 20.644)">
      <g id="Group_6448" data-name="Group 6448" transform="translate(23.141 0)">
        <path id="Path_6354" data-name="Path 6354" d="M111.8,71.645a20.317,20.317,0,0,0-10.6-7.37L83.017,58.6a3.127,3.127,0,0,0-1-.14,4.216,4.216,0,0,1-1.122-2.737V51.619a23.285,23.285,0,0,0,2.3-1.749,18.665,18.665,0,0,0,6.292-12.4A4.863,4.863,0,0,0,94.2,32.613V28.889a4.848,4.848,0,0,0-1.72-3.706V20.364a1.5,1.5,0,1,0-2.992,0v3.213c-.125-.042-.251-.082-.376-.123q-.285-.095-.57-.187-.372-.12-.745-.234c-.187-.058-.374-.116-.561-.172-.256-.077-.513-.151-.77-.224-.179-.051-.358-.1-.538-.153-.277-.076-.554-.149-.831-.222-.16-.042-.319-.085-.479-.126-.353-.09-.707-.175-1.06-.258l-.251-.061q-.655-.152-1.311-.289c-.133-.028-.265-.053-.4-.079-.306-.062-.613-.124-.919-.181-.17-.032-.339-.061-.509-.091-.27-.048-.541-.1-.811-.141-.183-.03-.365-.058-.548-.086-.259-.04-.517-.08-.776-.117-.188-.027-.375-.052-.563-.077q-.382-.051-.764-.1l-.569-.066q-.382-.042-.763-.079-.283-.028-.565-.053c-.258-.023-.517-.043-.775-.063-.184-.014-.368-.028-.552-.04-.269-.018-.538-.032-.806-.047-.173-.009-.346-.02-.519-.027-.3-.013-.592-.022-.889-.031-.145,0-.291-.011-.436-.014q-.662-.015-1.324-.015t-1.323.015c-.146,0-.292.01-.437.014-.3.009-.592.018-.887.031-.174.008-.347.018-.521.027-.268.014-.536.029-.8.047-.184.012-.368.027-.553.041-.258.02-.516.04-.774.063-.189.017-.378.035-.567.054q-.381.037-.761.079l-.571.066q-.381.046-.761.1c-.189.025-.378.05-.566.077-.258.037-.515.076-.773.116-.184.028-.367.056-.551.087-.269.044-.538.092-.806.14-.171.031-.343.06-.514.092-.3.057-.607.118-.911.179-.135.027-.271.053-.406.081q-.655.137-1.31.288l-.266.065c-.348.082-.7.166-1.045.254-.163.041-.326.086-.49.129-.273.072-.546.143-.819.219-.183.051-.365.1-.548.156-.253.072-.506.145-.759.221-.191.057-.382.116-.573.175q-.366.113-.732.23-.292.094-.583.191c-.123.041-.246.079-.369.121V13.364A7.622,7.622,0,0,1,55.4,5.924l10.922-2.6A12.335,12.335,0,0,1,71.912,3.3l11.643,2.67a7.611,7.611,0,0,1,5.938,7.454,1.5,1.5,0,0,0,2.992,0A10.589,10.589,0,0,0,84.223,3.054L72.58.384a15.347,15.347,0,0,0-6.946.029l-10.922,2.6a10.6,10.6,0,0,0-8.176,10.351V25.182a4.847,4.847,0,0,0-1.72,3.707v3.725a4.863,4.863,0,0,0,4.718,4.855,18.664,18.664,0,0,0,6.292,12.4,23.286,23.286,0,0,0,2.3,1.749v4.106a4.216,4.216,0,0,1-1.122,2.737,3.116,3.116,0,0,0-1,.14L37.813,64.275A20.464,20.464,0,0,0,23.141,83.9v1.116a1.5,1.5,0,0,0,2.992,0V83.9A17.472,17.472,0,0,1,38.67,67.142l.023-.007,9.688-3.021,8.093,9.236a5.992,5.992,0,0,0,6.457,1.728l1.829-.623L67.337,79.9a6.252,6.252,0,0,0-2.154,1.386,6.444,6.444,0,0,0-1.925,4.57V94.99a2.182,2.182,0,0,0,2.179,2.179h3.749a2.182,2.182,0,0,0,2.179-2.179V91.715a6.247,6.247,0,0,0,.322-11.824l2.574-5.435,1.829.623a5.992,5.992,0,0,0,6.458-1.728l8.093-9.236,9.688,3.021.023.007A17.472,17.472,0,0,1,112.888,83.9v12.8a2.26,2.26,0,0,1-2.257,2.257h-7.506V84.638a1.5,1.5,0,1,0-2.992,0V98.964H38.889V84.638a1.5,1.5,0,1,0-2.992,0V98.964H28.391a2.26,2.26,0,0,1-2.257-2.257V91.979a1.5,1.5,0,0,0-2.992,0v4.727a5.256,5.256,0,0,0,5.25,5.25h82.24a5.256,5.256,0,0,0,5.25-5.25V83.9A20.319,20.319,0,0,0,111.8,71.645Zm-60.7-45.438c.123-.04.246-.078.369-.117.3-.095.593-.19.889-.28.158-.048.316-.093.473-.14.263-.078.526-.156.79-.23.172-.048.344-.094.516-.141.25-.068.5-.136.75-.2.18-.047.361-.091.541-.136.243-.06.485-.12.728-.177.185-.044.371-.085.557-.127q.357-.081.714-.158c.189-.04.378-.079.567-.117q.354-.072.708-.139.286-.054.571-.106.353-.064.706-.123l.573-.094q.353-.056.707-.107.286-.042.572-.081c.237-.032.475-.062.712-.091.189-.023.378-.047.567-.068.241-.027.482-.051.722-.075.185-.019.371-.038.557-.055.247-.022.494-.041.741-.06.179-.014.359-.029.538-.041.258-.018.517-.031.775-.045.168-.009.336-.02.5-.027.286-.013.571-.021.857-.03.141,0,.282-.011.422-.014q.639-.014,1.278-.015h0q.637,0,1.275.015c.142,0,.284.01.425.014.284.009.568.017.852.03.171.008.341.019.512.028.256.014.511.027.767.044.182.012.364.027.546.042.244.019.488.037.732.059.188.017.377.036.565.055.238.024.476.048.714.074.192.022.383.045.575.069.235.029.469.058.7.09.194.026.387.054.581.082q.349.05.7.105.291.046.582.095.348.058.7.121.291.052.581.108.348.066.7.137.289.059.577.119.351.075.7.155c.19.043.379.085.569.13.237.056.475.115.712.173.186.046.372.092.557.14.243.063.486.129.729.195.179.049.358.1.537.146.254.071.508.147.762.222.167.049.334.1.5.148.281.085.561.175.842.265.139.045.279.087.418.132q.584.191,1.166.395l.09.03.011,0L88.8,28.066a1.978,1.978,0,0,1-.961,1.227,1.948,1.948,0,0,1-1.526.16q-1.045-.321-2.093-.6a56.149,56.149,0,0,0-31.519.6,1.947,1.947,0,0,1-1.526-.16,2.022,2.022,0,0,1-.332-.229,1.978,1.978,0,0,1-.629-1l-.188-.7-.2-.731Q50.469,26.415,51.107,26.206Zm6.672,21.4a15.782,15.782,0,0,1-5.338-11.66,1.5,1.5,0,0,0-1.5-1.464H49.673a1.867,1.867,0,0,1-1.865-1.865v-2.6l.015.024q.068.118.142.232l.051.076q.065.1.135.19l.046.062c.061.079.124.156.19.231l.046.051q.08.089.164.173l.067.066q.09.088.185.17l.041.037c.077.066.156.129.237.19l.066.048c.064.047.129.092.2.136l.073.048c.088.056.177.11.269.161l.013.006c.081.044.162.086.245.126l.086.04q.09.041.18.079l.1.038c.062.024.124.046.186.068l.085.029c.09.029.18.056.27.079l.033.008c.081.021.162.039.243.055l.093.017q.094.017.189.03l.1.013c.065.008.13.014.2.019l.088.007c.093.005.185.009.278.009h.037c.1,0,.195,0,.292-.011l.085-.006c.108-.009.215-.02.323-.036l.022,0c.1-.016.2-.035.3-.057l.09-.02c.1-.024.2-.051.3-.081l.015,0a55.7,55.7,0,0,1,7.95-1.826,52.736,52.736,0,0,1,18.941.542q2.486.523,4.964,1.284a4.912,4.912,0,0,0,3.852-.4c.091-.051.18-.1.267-.16l.076-.05q.1-.065.193-.134l.068-.049c.081-.061.16-.124.237-.19l.041-.037q.1-.083.186-.171l.066-.065q.085-.086.166-.176l.044-.048q.1-.113.191-.232l.045-.06q.07-.094.136-.191l.051-.076c.049-.075.1-.152.141-.229l.016-.026v2.6a1.867,1.867,0,0,1-1.865,1.865H88.076a1.5,1.5,0,0,0-1.5,1.464A15.782,15.782,0,0,1,81.242,47.6a19.8,19.8,0,0,1-2.607,1.9l-.015.008c-.139.084-.279.165-.419.245l-.132.076q-.222.125-.446.242l-.121.063a17.682,17.682,0,0,1-2.093.915l-.053.019q-.806.288-1.637.5l-.047.012c-.158.039-.318.075-.478.11l-.2.042c-.147.03-.293.06-.441.086-.092.016-.184.031-.276.046q-.3.05-.611.089c-.139.018-.278.036-.419.05-.1.011-.2.019-.3.028q-.226.02-.453.034l-.263.016c-.226.011-.452.019-.68.023h-.076c-.228,0-.455-.011-.68-.023l-.263-.016q-.227-.014-.453-.034c-.1-.009-.2-.018-.3-.028-.14-.015-.279-.032-.419-.05q-.307-.039-.611-.089c-.092-.015-.184-.029-.276-.046-.148-.027-.294-.056-.441-.086l-.2-.042c-.16-.035-.319-.071-.478-.11l-.047-.012q-.831-.208-1.637-.5l-.053-.019a17.682,17.682,0,0,1-2.093-.915l-.121-.063q-.224-.118-.446-.242l-.132-.076c-.14-.08-.28-.161-.419-.245l-.015-.008A19.812,19.812,0,0,1,57.779,47.6Zm4.188,24.643a3.007,3.007,0,0,1-3.242-.867L51.505,63.14l5.39-1.68a.133.133,0,0,1,.02,0,.138.138,0,0,1,.05,0l.008,0a.137.137,0,0,1,.04.022c.006,0,.012,0,.017.009h0l9.653,9.148Zm10.8,13.5a3.269,3.269,0,0,1-3.012,3.248,1.5,1.5,0,0,0-1.385,1.492v3.69H66.251V85.853a3.434,3.434,0,0,1,1.028-2.434,3.177,3.177,0,0,1,2.295-.932A3.275,3.275,0,0,1,72.77,85.746ZM67.611,73.484l1.9-.647,1.9.647-1.9,4.011Zm1.9-4.289L59.7,59.9a7.2,7.2,0,0,0,1.422-4.172V53.276a20.242,20.242,0,0,0,4.058,1.342l.014,0q.445.1.9.173l.313.051c.148.023.3.046.445.065.2.027.4.051.607.072l.273.027q.375.035.753.057l.169.008c.281.014.562.024.846.027h.033c.283,0,.565-.013.846-.027l.169-.008q.378-.022.753-.057l.273-.027q.3-.032.607-.072c.149-.02.3-.042.445-.065l.313-.051q.451-.077.9-.173l.014,0A20.242,20.242,0,0,0,77.9,53.276v2.449A7.2,7.2,0,0,0,79.323,59.9ZM80.3,71.378a3.006,3.006,0,0,1-3.242.867l-4.717-1.607,7.994-7.576,1.659-1.572.008,0a.14.14,0,0,1,.048-.026l.01,0a.138.138,0,0,1,.071,0l5.389,1.68Z" transform="translate(-23.141 0)"/>
      </g>
    </g>
  </g>
</svg>
