<svg xmlns="http://www.w3.org/2000/svg" xmlns:xlink="http://www.w3.org/1999/xlink" width="80" height="80" viewBox="0 0 80 80">
  <defs>
    <clipPath id="clip-facebook">
      <rect width="80" height="80"/>
    </clipPath>
  </defs>
  <g id="facebook" clip-path="url(#clip-facebook)">
    <path id="facebook_4_" data-name="facebook (4)" d="M65.277,0H10.168A10.166,10.166,0,0,0,0,10.166V65.275A10.166,10.166,0,0,0,10.168,75.441H37.347l.046-26.958h-7a1.652,1.652,0,0,1-1.652-1.646l-.034-8.69a1.653,1.653,0,0,1,1.653-1.659h6.991v-8.4c0-9.744,5.951-15.05,14.644-15.05h7.133a1.653,1.653,0,0,1,1.653,1.653v7.327a1.653,1.653,0,0,1-1.652,1.653l-4.377,0c-4.727,0-5.643,2.246-5.643,5.543v7.269H59.492a1.653,1.653,0,0,1,1.641,1.847l-1.03,8.69a1.653,1.653,0,0,1-1.641,1.458H49.151L49.1,75.441H65.277A10.166,10.166,0,0,0,75.443,65.275V10.166A10.166,10.166,0,0,0,65.277,0Z" transform="translate(2.278 2.28)" fill="#475993"/>
  </g>
</svg>
