<svg id="email_4_" data-name="email (4)" xmlns="http://www.w3.org/2000/svg" width="155.139" height="109.082" viewBox="0 0 155.139 109.082">
  <g id="Group_24302" data-name="Group 24302" transform="translate(7.947 60.98)">
    <g id="Group_24301" data-name="Group 24301">
      <path id="Path_10873" data-name="Path 10873" d="M118.8,277.251,105.81,290.288a14.382,14.382,0,0,1-19.923,0L72.894,277.251,26.226,324.07a13.5,13.5,0,0,0,5.689,1.283H159.783a13.49,13.49,0,0,0,5.687-1.282Z" transform="translate(-26.226 -277.251)" fill="#4b4d63"/>
    </g>
  </g>
  <g id="Group_24304" data-name="Group 24304" transform="translate(7.947)">
    <g id="Group_24303" data-name="Group 24303">
      <path id="Path_10874" data-name="Path 10874" d="M159.784,76H31.916a13.5,13.5,0,0,0-5.688,1.283L76.1,127.316s.007,0,.011.007a.015.015,0,0,1,0,.008L92.325,143.6a5.457,5.457,0,0,0,7.051,0l16.211-16.266a.06.06,0,0,1,.007-.011.059.059,0,0,0,.011-.007l49.866-50.033A13.489,13.489,0,0,0,159.784,76Z" transform="translate(-26.228 -76)" fill="#4b4d63"/>
    </g>
  </g>
  <g id="Group_24306" data-name="Group 24306" transform="translate(0 7.639)">
    <g id="Group_24305" data-name="Group 24305">
      <path id="Path_10875" data-name="Path 10875" d="M1.45,101.212a13.468,13.468,0,0,0-1.45,6v81.811a13.464,13.464,0,0,0,1.45,6l46.749-46.9Z" transform="translate(0 -101.212)" fill="#4b4d63"/>
    </g>
  </g>
  <g id="Group_24308" data-name="Group 24308" transform="translate(106.941 7.639)">
    <g id="Group_24307" data-name="Group 24307">
      <path id="Path_10876" data-name="Path 10876" d="M399.681,101.21l-46.748,46.9,46.748,46.9a13.469,13.469,0,0,0,1.45-6V107.206A13.469,13.469,0,0,0,399.681,101.21Z" transform="translate(-352.933 -101.21)" fill="#4b4d63"/>
    </g>
  </g>
</svg>
