<svg xmlns="http://www.w3.org/2000/svg" width="196.49" height="265.602" viewBox="0 0 196.49 265.602">
  <g id="pin_2_" data-name="pin (2)" transform="translate(0.5 0.5)">
    <g id="Group_23859" data-name="Group 23859" transform="translate(0 0)">
      <g id="Group_23858" data-name="Group 23858" transform="translate(0)">
        <path id="Path_10817" data-name="Path 10817" d="M145.825,0A97.854,97.854,0,0,0,48.08,97.745c0,17.744,7.958,36.827,8.291,37.632a157.63,157.63,0,0,0,11.3,21.13l67.019,101.545c2.743,4.163,6.8,6.549,11.137,6.549s8.395-2.386,11.137-6.543l67.024-101.551a156.964,156.964,0,0,0,11.3-21.13c.334-.8,8.285-19.882,8.285-37.632A97.854,97.854,0,0,0,145.825,0Zm78.857,130.915a144.432,144.432,0,0,1-10.3,19.261L147.36,251.727c-1.322,2.007-1.742,2.007-3.065,0L77.271,150.176a144.5,144.5,0,0,1-10.3-19.267c-.1-.236-7.394-17.8-7.394-33.164a86.246,86.246,0,0,1,172.491,0C232.071,113.131,224.757,130.742,224.682,130.915Z" transform="translate(-48.08)" fill="#2c6959" stroke="#2c6959" stroke-width="1"/>
        <path id="Path_10818" data-name="Path 10818" d="M163.827,64.008a51.747,51.747,0,1,0,51.747,51.747A51.807,51.807,0,0,0,163.827,64.008Zm0,91.995a40.248,40.248,0,1,1,40.248-40.248A40.3,40.3,0,0,1,163.827,156Z" transform="translate(-66.082 -18.005)" fill="#2c6959" stroke="#2c6959" stroke-width="1"/>
      </g>
    </g>
  </g>
</svg>
