<svg xmlns="http://www.w3.org/2000/svg" width="150" height="150" viewBox="0 0 150 150">
  <g id="_x31_0.Linkedin" transform="translate(-10 -10)">
    <path id="Path_10877" data-name="Path 10877" d="M135.238,137.863V82.925c0-27-5.812-47.625-37.312-47.625-15.187,0-25.312,8.25-29.438,16.125h-.375V37.738H38.3V137.863H69.425V88.175c0-13.125,2.438-25.687,18.563-25.687,15.937,0,16.125,14.813,16.125,26.438v48.75h31.125Z" transform="translate(24.762 22.138)" fill="#4b4d63"/>
    <path id="Path_10878" data-name="Path 10878" d="M11.3,36.6H42.425V136.725H11.3Z" transform="translate(1.138 23.275)" fill="#4b4d63"/>
    <path id="Path_10879" data-name="Path 10879" d="M28,10A18.094,18.094,0,1,0,46,28,18,18,0,0,0,28,10Z" fill="#4b4d63"/>
  </g>
</svg>
