<svg id="twitter_2_" data-name="twitter (2)" xmlns="http://www.w3.org/2000/svg" width="155.139" height="126.051" viewBox="0 0 155.139 126.051">
  <g id="Group_24310" data-name="Group 24310" transform="translate(0)">
    <path id="Path_10881" data-name="Path 10881" d="M155.139,62.922a66.311,66.311,0,0,1-18.326,5.023A31.626,31.626,0,0,0,150.8,50.366a63.56,63.56,0,0,1-20.168,7.7A31.8,31.8,0,0,0,75.62,79.813a32.749,32.749,0,0,0,.737,7.253A90.024,90.024,0,0,1,10.8,53.8a31.813,31.813,0,0,0,9.774,42.508,31.409,31.409,0,0,1-14.37-3.917v.349a31.951,31.951,0,0,0,25.482,31.251,31.744,31.744,0,0,1-8.339,1.047,28.121,28.121,0,0,1-6.021-.543,32.108,32.108,0,0,0,29.719,22.156A63.906,63.906,0,0,1,7.611,160.214,59.57,59.57,0,0,1,0,159.777,89.539,89.539,0,0,0,48.791,174.05c58.526,0,90.523-48.481,90.523-90.5,0-1.406-.048-2.763-.116-4.111A63.449,63.449,0,0,0,155.139,62.922Z" transform="translate(0 -48)" fill="#4b4d63"/>
  </g>
</svg>
