<svg xmlns="http://www.w3.org/2000/svg" width="44.887" height="34.941" viewBox="0 0 44.887 34.941">
  <path id="upload_1_" data-name="upload (1)" d="M11.367,71.938a1.4,1.4,0,0,1-.058-1.983l4.778-5.066a1.4,1.4,0,0,1,2.041,0l4.778,5.066a1.4,1.4,0,0,1-2.041,1.925l-2.355-2.5v9.8a1.4,1.4,0,0,1-2.805,0v-9.8l-2.355,2.5a1.4,1.4,0,0,1-1.983.058Zm11.6,9.2H11.245a1.4,1.4,0,1,0,0,2.805H22.97a1.4,1.4,0,1,0,0-2.805ZM44.887,60.1v28.18a1.4,1.4,0,0,1-2.1,1.215l-8.568-4.947V85.76a5.911,5.911,0,0,1-5.9,5.9H5.9A5.911,5.911,0,0,1,0,85.76V62.629a5.911,5.911,0,0,1,5.9-5.9H28.31a5.911,5.911,0,0,1,5.9,5.9v1.208l8.568-4.947a1.4,1.4,0,0,1,2.1,1.215ZM31.409,62.629a3.1,3.1,0,0,0-3.1-3.1H5.9a3.1,3.1,0,0,0-3.1,3.1V85.76a3.1,3.1,0,0,0,3.1,3.1H28.31a3.1,3.1,0,0,0,3.1-3.1Zm10.672-.095-7.866,4.542V81.313l7.866,4.542Z" transform="translate(0 -56.724)" fill="#2c6959"/>
</svg>
