<svg xmlns="http://www.w3.org/2000/svg" xmlns:xlink="http://www.w3.org/1999/xlink" width="80" height="80" viewBox="0 0 80 80">
  <defs>
    <clipPath id="clip-whtsapp">
      <rect width="80" height="80"/>
    </clipPath>
  </defs>
  <g id="whtsapp" clip-path="url(#clip-whtsapp)">
    <g id="whatsapp_1_" data-name="whatsapp (1)" transform="translate(2.905 1.637)">
      <path id="Path_11112" data-name="Path 11112" d="M63.431,10.662A37.533,37.533,0,0,0,37.233,0C8.887,0-8.912,30.711,5.243,55.141L0,74.188l19.583-5.107c8.532,4.609,15.521,4.2,17.669,4.473,32.869,0,49.23-39.765,26.133-62.773Z" transform="translate(0)" fill="#eceff1"/>
      <path id="Path_11113" data-name="Path 11113" d="M32.847,63.126l-.019,0h-.049A31.146,31.146,0,0,1,16.04,58.2L4.448,61.209,7.555,49.942l-.739-1.159A30.505,30.505,0,0,1,2.13,32.523C2.13,5.342,35.345-8.25,54.566,10.962,73.74,29.973,60.278,63.126,32.847,63.126Z" transform="translate(4.454 4.11)" fill="#4caf50"/>
      <path id="Path_11114" data-name="Path 11114" d="M41.62,30.942l-.028.232c-.93-.464-5.462-2.68-6.306-2.986-1.895-.7-1.36-.111-5,4.056-.541.6-1.079.649-2,.232a25.088,25.088,0,0,1-7.428-4.59,28.045,28.045,0,0,1-5.131-6.4c-.906-1.564.989-1.787,2.714-5.051a1.7,1.7,0,0,0-.077-1.62c-.232-.464-2.077-5.008-2.85-6.819-.742-1.805-1.505-1.577-2.077-1.577-1.781-.155-3.082-.13-4.229,1.063-4.989,5.484-3.731,11.141.538,17.156,8.389,10.98,12.859,13,21.032,15.808a12.789,12.789,0,0,0,5.811.374c1.774-.281,5.462-2.229,6.232-4.408a7.652,7.652,0,0,0,.556-4.4c-.229-.417-.835-.649-1.762-1.066Z" transform="translate(12.498 13.284)" fill="#fafafa"/>
    </g>
  </g>
</svg>
