<svg xmlns="http://www.w3.org/2000/svg" xmlns:xlink="http://www.w3.org/1999/xlink" width="80" height="80" viewBox="0 0 80 80">
  <defs>
    <clipPath id="clip-Artboard_14">
      <rect width="80" height="80"/>
    </clipPath>
  </defs>
  <g id="Artboard_14" data-name="Artboard – 14" clip-path="url(#clip-Artboard_14)">
    <g id="zoom" transform="translate(4 -166.471)">
      <path id="Path_17270" data-name="Path 17270" d="M123.012,200.823a8.006,8.006,0,0,0-5.673-2.352h-.01a8.031,8.031,0,1,0,5.683,2.352Zm-2.271,9.085a4.818,4.818,0,1,1,0-6.814A4.818,4.818,0,0,1,120.741,209.909Z" transform="translate(-94.046 0)" fill="#2d8cff" fill-rule="evenodd"/>
      <path id="Path_17271" data-name="Path 17271" d="M243.821,200.823a8.03,8.03,0,1,0,0,11.357A8.011,8.011,0,0,0,243.821,200.823Zm-2.271,9.085a4.818,4.818,0,1,1,0-6.814A4.818,4.818,0,0,1,241.55,209.909Z" transform="translate(-197.991 0)" fill="#2d8cff" fill-rule="evenodd"/>
      <path id="Path_17272" data-name="Path 17272" d="M3.212,214.493l.8.04H16.061l-.04-.8a2.48,2.48,0,0,0-2.369-2.37l-.8-.04H5.621l9.637-9.637-.04-.8a2.428,2.428,0,0,0-2.369-2.37l-.8-.039H0l.04.8a2.492,2.492,0,0,0,2.368,2.37l.8.04H10.44L.8,211.321l.04.8A2.455,2.455,0,0,0,3.212,214.493Z" transform="translate(0 -0.001)" fill="#2d8cff" fill-rule="evenodd"/>
      <path id="Path_17273" data-name="Path 17273" d="M360.127,203.289a3.471,3.471,0,0,1,.393,1.611l.04.8v5.621l.04.8a2.468,2.468,0,0,0,2.37,2.37l.8.04V205.7l.04-.8a3.5,3.5,0,0,1,.4-1.617,3.213,3.213,0,0,1,5.558.01,3.521,3.521,0,0,1,.39,1.607l.04.8v5.622l.04.8a2.458,2.458,0,0,0,2.37,2.37l.8.04V204.9a6.424,6.424,0,0,0-11.243-4.249,6.426,6.426,0,0,0-8.416-1.074,4.437,4.437,0,0,0-2.826-1.1v16.061l.8-.04a2.424,2.424,0,0,0,2.369-2.369l.04-.8V205.7l.04-.8a3.5,3.5,0,0,1,.394-1.614,3.213,3.213,0,0,1,5.557,0Z" transform="translate(-301.937 -0.004)" fill="#2d8cff" fill-rule="evenodd"/>
    </g>
  </g>
</svg>
